<svg width="112" height="68" viewBox="0 0 112 68" fill="none" xmlns="http://www.w3.org/2000/svg">
<path d="M4.75 14.5H2.75C1.7835 14.5 1 13.7165 1 12.75C1 11.7835 1.7835 11 2.75 11H4.75C5.7165 11 6.5 11.7835 6.5 12.75C6.5 13.7165 5.7165 14.5 4.75 14.5Z" fill="#F7F7F7"/>
<path d="M46.75 14.5H9.99246C9.02596 14.5 8.24246 13.7165 8.24246 12.75C8.24246 11.7835 9.02596 11 9.99246 11H33.0476C33.5736 11 34 10.5736 34 10.0476C34 5.05076 38.0508 1 43.0476 1H57C59.2091 1 61 2.79086 61 5V9.02312C61 10.1186 61.8813 11.0102 62.9767 11.023L103.856 11.4983C103.935 11.4992 104 11.4351 104 11.3556C104 9.77847 102.722 8.5 101.144 8.5H67C66.1716 8.5 65.5 7.82843 65.5 7C65.5 6.17157 66.1716 5.5 67 5.5H101.5C104.538 5.5 107 7.96243 107 11V11.4229C107 11.4655 107.035 11.5 107.077 11.5C109.813 11.5 111.804 14.0953 111.096 16.738L99.5 60C98.6251 64.083 95.0168 67 90.8411 67H25.5C22.7386 67 20.5 64.7614 20.5 62V61.7509C20.5 61.5843 20.5208 61.4183 20.562 61.2569L26.5728 37.676C26.8169 36.7183 27.7356 36.0919 28.7162 36.2145C29.9142 36.3643 30.6936 37.5505 30.3556 38.7095L24 60.5C23.565 62.0011 24.6912 63.5 26.2541 63.5H90.4295C93.1294 63.5 95.4968 61.6966 96.214 59.0937L107.803 17.0312C108.153 15.7578 107.195 14.5 105.874 14.5H62.5C59.7386 14.5 57.5 12.2614 57.5 9.5V6.5C57.5 5.39543 56.6046 4.5 55.5 4.5H43C39.9624 4.5 37.5 6.96243 37.5 10C37.5 10.5523 37.9477 11 38.5 11H46.75C47.7165 11 48.5 11.7835 48.5 12.75C48.5 13.7165 47.7165 14.5 46.75 14.5Z" fill="#F7F7F7"/>
<path d="M40.25 20.5H16.75C15.7835 20.5 15 19.7165 15 18.75C15 17.7835 15.7835 17 16.75 17H40.25C41.2165 17 42 17.7835 42 18.75C42 19.7165 41.2165 20.5 40.25 20.5Z" fill="#F7F7F7"/>
<path d="M34.25 34H13.75C12.7835 34 12 33.2165 12 32.25C12 31.2835 12.7835 30.5 13.75 30.5H28.5L30.6193 23.7183C30.8458 22.9935 31.517 22.5 32.2764 22.5C33.4059 22.5 34.2346 23.5615 33.9607 24.6572L32.5 30.5H34.25C35.2165 30.5 36 31.2835 36 32.25C36 33.2165 35.2165 34 34.25 34Z" fill="#F7F7F7"/>
<path d="M4.75 14.5H2.75C1.7835 14.5 1 13.7165 1 12.75C1 11.7835 1.7835 11 2.75 11H4.75C5.7165 11 6.5 11.7835 6.5 12.75C6.5 13.7165 5.7165 14.5 4.75 14.5Z" stroke="#F7F7F7"/>
<path d="M46.75 14.5H9.99246C9.02596 14.5 8.24246 13.7165 8.24246 12.75C8.24246 11.7835 9.02596 11 9.99246 11H33.0476C33.5736 11 34 10.5736 34 10.0476C34 5.05076 38.0508 1 43.0476 1H57C59.2091 1 61 2.79086 61 5V9.02312C61 10.1186 61.8813 11.0102 62.9767 11.023L103.856 11.4983C103.935 11.4992 104 11.4351 104 11.3556C104 9.77847 102.722 8.5 101.144 8.5H67C66.1716 8.5 65.5 7.82843 65.5 7C65.5 6.17157 66.1716 5.5 67 5.5H101.5C104.538 5.5 107 7.96243 107 11V11.4229C107 11.4655 107.035 11.5 107.077 11.5C109.813 11.5 111.804 14.0953 111.096 16.738L99.5 60C98.6251 64.083 95.0168 67 90.8411 67H25.5C22.7386 67 20.5 64.7614 20.5 62V61.7509C20.5 61.5843 20.5208 61.4183 20.562 61.2569L26.5728 37.676C26.8169 36.7183 27.7356 36.0919 28.7162 36.2145C29.9142 36.3643 30.6936 37.5505 30.3556 38.7095L24 60.5C23.565 62.0011 24.6912 63.5 26.2541 63.5H90.4295C93.1294 63.5 95.4968 61.6966 96.214 59.0937L107.803 17.0312C108.153 15.7578 107.195 14.5 105.874 14.5H62.5C59.7386 14.5 57.5 12.2614 57.5 9.5V6.5C57.5 5.39543 56.6046 4.5 55.5 4.5H43C39.9624 4.5 37.5 6.96243 37.5 10C37.5 10.5523 37.9477 11 38.5 11H46.75C47.7165 11 48.5 11.7835 48.5 12.75C48.5 13.7165 47.7165 14.5 46.75 14.5Z" stroke="#F7F7F7"/>
<path d="M40.25 20.5H16.75C15.7835 20.5 15 19.7165 15 18.75C15 17.7835 15.7835 17 16.75 17H40.25C41.2165 17 42 17.7835 42 18.75C42 19.7165 41.2165 20.5 40.25 20.5Z" stroke="#F7F7F7"/>
<path d="M34.25 34H13.75C12.7835 34 12 33.2165 12 32.25C12 31.2835 12.7835 30.5 13.75 30.5H28.5L30.6193 23.7183C30.8458 22.9935 31.517 22.5 32.2764 22.5C33.4059 22.5 34.2346 23.5615 33.9607 24.6572L32.5 30.5H34.25C35.2165 30.5 36 31.2835 36 32.25C36 33.2165 35.2165 34 34.25 34Z" stroke="#F7F7F7"/>
</svg>
