<svg width="216" height="154" viewBox="0 0 216 154" fill="none" xmlns="http://www.w3.org/2000/svg">
<g clip-path="url(#clip0_400_1204)">
<path d="M23.1514 128.732L84.8398 118.544C85.7358 118.398 86.5475 117.93 87.1224 117.229C87.6973 116.528 87.9959 115.642 87.9619 114.736L85.7749 59.8964C85.7542 59.3698 85.6214 58.8537 85.3855 58.3822C85.1496 57.9106 84.8159 57.4946 84.4065 57.1616C83.9972 56.8285 83.5215 56.5862 83.0111 56.4506C82.5008 56.3149 81.9673 56.2891 81.4462 56.3749C80.9189 56.4613 80.3792 56.4336 79.8637 56.2936C79.3481 56.1535 78.8688 55.9045 78.4582 55.5633C78.0476 55.2222 77.7154 54.7969 77.484 54.3163C77.2527 53.8357 77.1277 53.3111 77.1174 52.7781L76.7856 34.0416C76.7705 33.0882 76.3872 32.1774 75.7157 31.4989C75.0441 30.8205 74.1361 30.4267 73.1808 30.3997L24.1317 28.8948C23.1773 28.8649 22.2481 29.2032 21.5374 29.8395C20.8266 30.4758 20.3891 31.361 20.3158 32.311L19.803 38.6016C19.7316 39.4272 19.3879 40.2059 18.8257 40.8158C18.2635 41.4258 17.5145 41.8326 16.696 41.9727L13.5738 42.4994C12.6995 42.6346 11.9015 43.0747 11.3216 43.7415C10.7417 44.4083 10.4174 45.2586 10.4065 46.1413L10.2858 67.3459C10.2826 68.2237 9.96691 69.0718 9.39504 69.7389C8.82316 70.406 8.03232 70.8486 7.16366 70.9878L5.3839 71.2888C4.85259 71.3745 4.34633 71.5745 3.90023 71.8749C3.45414 72.1753 3.07888 72.569 2.8005 73.0286C2.52213 73.4882 2.34729 74.0027 2.28812 74.5365C2.22895 75.0702 2.28686 75.6104 2.45784 76.1196L19.0489 126.234C19.3244 127.068 19.8884 127.778 20.6399 128.235C21.3915 128.693 22.2817 128.869 23.1514 128.732Z" fill="#052F45" stroke="#F7F7F7" stroke-width="3" stroke-miterlimit="10"/>
<path d="M14.5842 42.4843L58.0527 41.7168C59.1841 41.6966 60.3081 41.9031 61.3582 42.324C62.4083 42.7449 63.363 43.3717 64.166 44.1673C64.969 44.9629 65.6039 45.9112 66.0331 46.9559C66.4624 48.0007 66.6772 49.1207 66.6649 50.2498L66.4839 68.309L25.9415 74.9608L15.6249 69.6032L9.5918 69.3775V43.1465L12.4123 42.68C13.13 42.5581 13.8562 42.4926 14.5842 42.4843Z" fill="#052F45" stroke="#F7F7F7" stroke-width="3" stroke-miterlimit="10"/>
<path d="M17.5566 52.8082L57.5712 52.4771" stroke="#F7F7F7" stroke-width="3" stroke-miterlimit="10"/>
<path d="M17.4355 61.6121L58.3249 61.7626" stroke="#F7F7F7" stroke-width="3" stroke-miterlimit="10"/>
<path d="M19.6072 41.4911L18.7324 26.7427L77.1026 28.0821L76.0318 78.4523L71.0695 67.4964L66.4844 68.2639L64.6594 44.6966L58.0531 41.7018L19.6072 41.4911Z" fill="#052F45" stroke="#F7F7F7" stroke-width="3" stroke-miterlimit="10"/>
<path d="M87.9616 114.736L74.2363 74.5093" stroke="#F7F7F7" stroke-width="3" stroke-miterlimit="10"/>
<path d="M51.1 135.971L120.254 124.548C121.258 124.387 122.168 123.865 122.813 123.081C123.458 122.296 123.792 121.303 123.754 120.289L121.31 58.8129C121.288 58.2218 121.14 57.6422 120.876 57.1128C120.612 56.5834 120.237 56.1165 119.777 55.7432C119.318 55.3699 118.783 55.0989 118.21 54.9483C117.637 54.7977 117.038 54.771 116.453 54.87C115.864 54.9623 115.261 54.9278 114.685 54.7689C114.11 54.6099 113.575 54.3302 113.116 53.9483C112.658 53.5665 112.287 53.0914 112.027 52.5547C111.768 52.0181 111.626 51.4324 111.612 50.8367L111.235 29.7676C111.22 28.6985 110.79 27.6767 110.037 26.9164C109.283 26.1562 108.264 25.7164 107.193 25.6893L52.2463 24.079C51.1767 24.0447 50.135 24.4227 49.3374 25.1344C48.5398 25.8462 48.0475 26.8372 47.9628 27.9015L47.3896 34.9747C47.3165 35.9011 46.9331 36.7759 46.301 37.4584C45.669 38.1409 44.8252 38.5913 43.9055 38.7371L40.3007 39.339C39.3309 39.4989 38.449 39.9961 37.8113 40.7426C37.1736 41.489 36.8213 42.4366 36.8166 43.4174L36.6809 67.1954C36.6656 68.1724 36.3068 69.1129 35.6673 69.8529C35.0277 70.5928 34.1479 71.085 33.1817 71.2437L31.1757 71.5747C30.5806 71.6727 30.0138 71.898 29.5143 72.2353C29.0147 72.5726 28.5943 73.0137 28.2819 73.5285C27.9695 74.0433 27.7725 74.6195 27.7044 75.2174C27.6364 75.8154 27.6989 76.4209 27.8876 76.9925L46.4545 133.172C46.7706 134.112 47.4113 134.91 48.2622 135.422C49.113 135.935 50.1188 136.129 51.1 135.971Z" fill="#052F45" stroke="#F7F7F7" stroke-width="3" stroke-miterlimit="10"/>
<path d="M41.4917 39.2789L90.2241 38.421C91.494 38.3968 92.7559 38.6272 93.9349 39.0987C95.114 39.5702 96.1861 40.2731 97.0877 41.1657C97.9894 42.0583 98.7022 43.1225 99.1839 44.2952C99.6657 45.4679 99.9065 46.7252 99.8921 47.9924L99.6659 68.1887L54.297 75.6832L42.7285 69.6635L36.0469 69.4227V40.0163L39.2143 39.5046C39.9668 39.3736 40.7281 39.2981 41.4917 39.2789Z" fill="#052F45" stroke="#F7F7F7" stroke-width="3" stroke-miterlimit="10"/>
<path d="M44.8262 50.8668L89.6973 50.4906" stroke="#F7F7F7" stroke-width="3" stroke-miterlimit="10"/>
<path d="M44.6895 60.7241L90.541 60.9047" stroke="#F7F7F7" stroke-width="3" stroke-miterlimit="10"/>
<path d="M47.1322 38.1802L46.1367 21.641L111.581 23.1459L110.374 79.596L104.809 67.3308L99.6654 68.1886L97.6292 41.777L90.2236 38.421L47.1322 38.1802Z" fill="#052F45" stroke="#F7F7F7" stroke-width="3" stroke-miterlimit="10"/>
<path d="M123.754 120.289L108.369 75.1866" stroke="#F7F7F7" stroke-width="3" stroke-miterlimit="10"/>
<path d="M81.1149 139.357L158.188 126.64C159.302 126.455 160.311 125.872 161.027 125C161.742 124.128 162.116 123.026 162.079 121.9L159.349 53.3801C159.324 52.723 159.158 52.0788 158.864 51.4903C158.57 50.9018 158.154 50.3825 157.643 49.9669C157.133 49.5513 156.539 49.2488 155.902 49.0796C155.265 48.9105 154.6 48.8784 153.949 48.9857C153.289 49.0939 152.612 49.0587 151.966 48.8826C151.32 48.7065 150.72 48.3936 150.206 47.9651C149.692 47.5367 149.277 47.0028 148.989 46.3998C148.7 45.7968 148.545 45.1389 148.535 44.4709L148.112 21.0691C148.082 19.8813 147.595 18.7506 146.753 17.9104C145.911 17.0702 144.778 16.5848 143.588 16.5543L82.3969 14.628C81.2043 14.5893 80.0424 15.0101 79.1523 15.803C78.2621 16.5959 77.7119 17.7002 77.6157 18.887L76.9219 26.7578C76.8438 27.7924 76.419 28.7707 75.7158 29.5351C75.0126 30.2995 74.0721 30.8055 73.0456 30.9716L69.0788 31.6037C68.0021 31.7803 67.022 32.3296 66.3105 33.1551C65.5989 33.9806 65.2014 35.0297 65.1875 36.1185L65.0367 62.6204C65.0228 63.7091 64.6252 64.7582 63.9137 65.5837C63.2022 66.4093 62.2221 66.9585 61.1453 67.1352L58.898 67.5114C58.2373 67.6212 57.6083 67.8722 57.0539 68.2473C56.4996 68.6223 56.0331 69.1125 55.6864 69.6843C55.3397 70.2561 55.1211 70.8959 55.0454 71.5599C54.9697 72.2238 55.0388 72.8963 55.248 73.5312L75.9415 136.136C76.2667 137.207 76.9704 138.124 77.9219 138.716C78.8733 139.309 80.0079 139.536 81.1149 139.357Z" fill="#052F45" stroke="#F7F7F7" stroke-width="3" stroke-miterlimit="10"/>
<path d="M70.3906 31.6036L124.689 30.6405C126.104 30.6121 127.511 30.8682 128.826 31.3934C130.14 31.9186 131.335 32.7022 132.34 33.6977C133.345 34.6932 134.138 35.8802 134.674 37.188C135.21 38.4958 135.476 39.8978 135.458 41.3105L135.216 63.8845L84.5835 72.2369L71.7028 65.5399L64.252 65.269V32.4314L67.7813 31.8444C68.6444 31.7039 69.5163 31.6234 70.3906 31.6036Z" fill="#052F45" stroke="#F7F7F7" stroke-width="3" stroke-miterlimit="10"/>
<path d="M74.1152 44.516L124.115 44.0946" stroke="#F7F7F7" stroke-width="3" stroke-miterlimit="10"/>
<path d="M73.9648 55.502L125.065 55.6977" stroke="#F7F7F7" stroke-width="3" stroke-miterlimit="10"/>
<path d="M76.6792 30.3696L75.5781 11.9492L148.518 13.6197L147.161 76.541L140.977 62.8612L135.245 63.8093L132.968 34.3728L124.718 30.6405L76.6792 30.3696Z" fill="#052F45" stroke="#F7F7F7" stroke-width="3" stroke-miterlimit="10"/>
<path d="M162.079 121.885L144.945 71.6199" stroke="#F7F7F7" stroke-width="3" stroke-miterlimit="10"/>
<path d="M118.836 151.667L209.181 136.753C210.484 136.525 211.66 135.834 212.492 134.808C213.324 133.781 213.755 132.489 213.706 131.17L210.539 50.8668C210.511 50.0951 210.318 49.3382 209.974 48.6466C209.629 47.955 209.141 47.3446 208.542 46.8562C207.942 46.3677 207.245 46.0124 206.497 45.8138C205.749 45.6153 204.968 45.5782 204.204 45.7049C203.432 45.8326 202.641 45.7928 201.886 45.5881C201.131 45.3835 200.429 45.0187 199.828 44.5189C199.226 44.019 198.74 43.3956 198.402 42.6914C198.064 41.9871 197.883 41.2184 197.869 40.4376L197.372 13.0027C197.349 11.6057 196.788 10.2711 195.805 9.27621C194.822 8.28129 193.492 7.70252 192.093 7.66013L120.344 5.44788C118.932 5.40961 117.559 5.91758 116.514 6.86557C115.468 7.81355 114.83 9.12817 114.733 10.5346L113.979 19.7598C113.884 20.9665 113.387 22.1068 112.567 22.9988C111.747 23.8907 110.651 24.4829 109.454 24.6809L104.748 25.4635C103.484 25.6797 102.337 26.3342 101.51 27.3115C100.682 28.2889 100.226 29.5264 100.224 30.806L99.9974 61.7776C99.9915 63.0564 99.535 64.2924 98.7078 65.2691C97.8805 66.2459 96.7353 66.9011 95.4726 67.1201L92.8482 67.5415C92.0713 67.669 91.3314 67.9631 90.6794 68.4035C90.0275 68.844 89.479 69.4202 89.0718 70.0926C88.6646 70.7649 88.4084 71.5174 88.3209 72.2981C88.2333 73.0788 88.3165 73.8692 88.5647 74.6147L112.772 147.995C113.179 149.227 114.014 150.274 115.125 150.947C116.237 151.621 117.552 151.876 118.836 151.667Z" fill="#052F45" stroke="#F7F7F7" stroke-width="3" stroke-miterlimit="10"/>
<path d="M106.272 25.3582L169.936 24.2295C171.59 24.2073 173.231 24.5154 174.764 25.1357C176.296 25.7559 177.688 26.6758 178.859 27.8411C180.03 29.0065 180.955 30.3937 181.58 31.9212C182.206 33.4487 182.519 35.0856 182.5 36.7355L182.214 63.102L122.908 72.9142L107.826 65.0734L99.0625 64.7123V26.3214L103.21 25.584C104.224 25.4337 105.247 25.3582 106.272 25.3582Z" fill="#052F45" stroke="#F7F7F7" stroke-width="3" stroke-miterlimit="10"/>
<path d="M110.631 40.4828L169.242 40.0012" stroke="#F7F7F7" stroke-width="3" stroke-miterlimit="10"/>
<path d="M110.465 53.365L170.343 53.5907" stroke="#F7F7F7" stroke-width="3" stroke-miterlimit="10"/>
<path d="M113.632 23.9134L112.365 2.31763L197.839 4.27404L196.255 78.0309L189.001 62.0033L182.274 63.117L179.619 28.6088L169.936 24.2295L113.632 23.9134Z" fill="#052F45" stroke="#F7F7F7" stroke-width="3" stroke-miterlimit="10"/>
<path d="M213.737 131.17L193.646 72.252" stroke="#F7F7F7" stroke-width="3" stroke-miterlimit="10"/>
</g>
<defs>
<clipPath id="clip0_400_1204">
<rect width="216" height="154" fill="white"/>
</clipPath>
</defs>
</svg>
