<svg width="184" height="167" viewBox="0 0 184 167" fill="none" xmlns="http://www.w3.org/2000/svg">
<g clip-path="url(#clip0_400_1247)">
<path d="M51.2392 18.3969C51.2392 18.3969 146.546 19.7427 148.93 20.5034C154.294 20.5034 170.373 26.5304 170.373 43.2889V105.946L89.369 107.116H13.1211V39.4387C13.1211 39.4387 18.4847 20.3162 51.2392 18.3969Z" fill="#052F45" stroke="#F7F7F7" stroke-width="3" stroke-miterlimit="10"/>
<path d="M13.1211 105.946V44.5528C17.4798 14.4647 78.0458 5.69929 90.561 44.5528L92.3138 103.723L13.1211 105.946Z" fill="#052F45" stroke="#F7F7F7" stroke-width="3" stroke-miterlimit="10"/>
<path d="M117.707 71.3524C125.348 71.3524 131.542 65.1488 131.542 57.4962C131.542 49.8436 125.348 43.64 117.707 43.64C110.066 43.64 103.871 49.8436 103.871 57.4962C103.871 65.1488 110.066 71.3524 117.707 71.3524Z" fill="#052F45" stroke="#F7F7F7" stroke-width="3" stroke-miterlimit="10"/>
<path d="M117.707 2.24695V43.64" stroke="#F7F7F7" stroke-width="3" stroke-miterlimit="10"/>
<path d="M144.503 1.75543H120.641C119.169 1.75543 117.977 2.95005 117.977 4.42369V24.9037C117.977 26.3774 119.169 27.572 120.641 27.572H144.503C145.974 27.572 147.167 26.3774 147.167 24.9037V4.42369C147.167 2.95005 145.974 1.75543 144.503 1.75543Z" fill="#052F45" stroke="#F7F7F7" stroke-width="3" stroke-miterlimit="10"/>
<path d="M148.02 117.883H36.6925C31.5876 117.883 27.4492 122.028 27.4492 127.14C27.4492 132.253 31.5876 136.397 36.6925 136.397H148.02C153.125 136.397 157.264 132.253 157.264 127.14C157.264 122.028 153.125 117.883 148.02 117.883Z" fill="#052F45" stroke="#F7F7F7" stroke-width="3" stroke-miterlimit="10"/>
<path d="M173.003 105.946H10.9952C5.89029 105.946 1.75195 110.091 1.75195 115.203C1.75195 120.316 5.89029 124.46 10.9952 124.46H173.003C178.108 124.46 182.246 120.316 182.246 115.203C182.246 110.091 178.108 105.946 173.003 105.946Z" fill="#052F45" stroke="#F7F7F7" stroke-width="3" stroke-miterlimit="10"/>
<path d="M82.6277 52.8151L38.6434 53.5407C36.3956 53.5247 34.2317 54.3943 32.6183 55.9619C31.005 57.5294 30.0716 59.6693 30.0195 61.9199V95.3316C30.0453 96.4598 30.2928 97.5718 30.7478 98.6041C31.2029 99.6364 31.8566 100.569 32.6715 101.348C33.4865 102.127 34.4468 102.738 35.4975 103.145C36.5483 103.553 37.6689 103.749 38.7953 103.723H82.7796C83.906 103.749 85.0266 103.553 86.0774 103.145C87.1281 102.738 88.0884 102.127 88.9034 101.348C89.7184 100.569 90.372 99.6364 90.8271 98.6041C91.2821 97.5718 91.5296 96.4598 91.5554 95.3316V61.1944C91.5269 60.0545 91.2723 58.9317 90.8066 57.8912C90.3408 56.8507 89.6732 55.9134 88.8424 55.1337C88.0117 54.354 87.0344 53.7475 85.9675 53.3494C84.9006 52.9514 83.7653 52.7697 82.6277 52.8151Z" fill="#052F45" stroke="#F7F7F7" stroke-width="3" stroke-miterlimit="10"/>
<path d="M89.9769 45.4306L54.2426 41.7793C46.4484 41.3463 42.7207 49.1638 42.7207 53.4822L89.9769 52.8151V45.4306Z" fill="#052F45" stroke="#F7F7F7" stroke-width="3" stroke-miterlimit="10"/>
<path d="M51.6484 76.4315L63.3924 86.1566" stroke="#F7F7F7" stroke-width="3" stroke-miterlimit="10"/>
<path d="M73.9685 76.4315L62.2246 86.1566" stroke="#F7F7F7" stroke-width="3" stroke-miterlimit="10"/>
<path d="M92 91.8676H170.375" stroke="#F7F7F7" stroke-width="3" stroke-miterlimit="10"/>
<path d="M81.541 136.397V167" stroke="#F7F7F7" stroke-width="3" stroke-miterlimit="10"/>
<path d="M102.025 136.397V167" stroke="#F7F7F7" stroke-width="3" stroke-miterlimit="10"/>
</g>
<defs>
<clipPath id="clip0_400_1247">
<rect width="184" height="167" fill="white"/>
</clipPath>
</defs>
</svg>
