<svg width="1040" height="400" viewBox="0 0 1040 400" fill="none" xmlns="http://www.w3.org/2000/svg">
<rect x="800" y="400" width="80" height="80" transform="rotate(180 800 400)" fill="#052F45"/>
<rect x="720" y="320" width="80" height="80" transform="rotate(180 720 320)" fill="#052F45"/>
<rect x="640" y="320" width="80" height="80" transform="rotate(180 640 320)" fill="#052F45"/>
<rect x="480" y="400" width="80" height="80" transform="rotate(180 480 400)" fill="#052F45"/>
<rect x="320" y="400" width="80" height="80" transform="rotate(180 320 400)" fill="#052F45"/>
<rect x="400" y="320" width="80" height="80" transform="rotate(180 400 320)" fill="#052F45"/>
<rect x="240" y="400" width="80" height="80" transform="rotate(180 240 400)" fill="#052F45"/>
<rect x="160" y="320" width="80" height="80" transform="rotate(180 160 320)" fill="#052F45"/>
<rect x="240" y="320" width="80" height="80" transform="rotate(180 240 320)" fill="#052F45"/>
<rect x="80" y="320" width="80" height="80" transform="rotate(180 80 320)" fill="#052F45"/>
<rect x="240" y="240" width="80" height="80" transform="rotate(180 240 240)" fill="#052F45"/>
<rect x="160" y="400" width="80" height="80" transform="rotate(180 160 400)" fill="#052F45"/>
<rect x="480" y="240" width="80" height="80" transform="rotate(180 480 240)" fill="#052F45"/>
<rect x="400" y="160" width="80" height="80" transform="rotate(180 400 160)" fill="#052F45"/>
<rect x="400" y="400" width="80" height="80" transform="rotate(180 400 400)" fill="#052F45"/>
<rect x="560" y="240" width="80" height="80" transform="rotate(180 560 240)" fill="#052F45"/>
<rect x="480" y="320" width="80" height="80" transform="rotate(180 480 320)" fill="#052F45"/>
<rect x="640" y="400" width="80" height="80" transform="rotate(180 640 400)" fill="#052F45"/>
<rect x="880" y="400" width="80" height="80" transform="rotate(180 880 400)" fill="#052F45"/>
<rect x="960" y="400" width="80" height="80" transform="rotate(180 960 400)" fill="#052F45"/>
<rect x="1040" y="320" width="80" height="80" transform="rotate(180 1040 320)" fill="#052F45"/>
<rect x="560" y="320" width="80" height="80" transform="rotate(180 560 320)" fill="#052F45"/>
<rect x="80" y="400" width="80" height="80" transform="rotate(180 80 400)" fill="#052F45"/>
<rect x="320" y="240" width="80" height="80" transform="rotate(180 320 240)" fill="#052F45"/>
<rect x="80" y="240" width="80" height="80" transform="rotate(180 80 240)" fill="#052F45"/>
<rect x="160" y="160" width="80" height="80" transform="rotate(180 160 160)" fill="#052F45"/>
<rect x="240" y="80" width="80" height="80" transform="rotate(180 240 80)" fill="#052F45"/>
<rect x="240" y="160" width="80" height="80" transform="rotate(180 240 160)" fill="#052F45"/>
</svg>
