<svg width="577" height="289" viewBox="0 0 577 289" fill="none" xmlns="http://www.w3.org/2000/svg">
<rect width="57.7" height="57.7" transform="matrix(1 0 0 -1 0 288.75)" fill="#052F45"/>
<rect width="57.7" height="57.7" transform="matrix(1 0 0 -1 57.7002 231.05)" fill="#052F45"/>
<rect width="57.7" height="57.7" transform="matrix(1 0 0 -1 115.4 231.05)" fill="#052F45"/>
<rect width="57.7" height="57.7" transform="matrix(1 0 0 -1 230.8 288.75)" fill="#052F45"/>
<rect width="57.7" height="57.7" transform="matrix(1 0 0 -1 346.2 288.75)" fill="#052F45"/>
<rect width="57.7" height="57.7" transform="matrix(1 0 0 -1 288.5 231.05)" fill="#052F45"/>
<rect width="57.7" height="57.7" transform="matrix(1 0 0 -1 403.9 288.75)" fill="#052F45"/>
<rect width="57.7" height="57.7" transform="matrix(1 0 0 -1 403.9 231.05)" fill="#052F45"/>
<rect width="57.7" height="57.7" transform="matrix(1 0 0 -1 519.3 288.75)" fill="#052F45"/>
<rect width="57.7" height="57.7" transform="matrix(1 0 0 -1 346.2 173.35)" fill="#052F45"/>
<rect width="57.7" height="57.7" transform="matrix(1 0 0 -1 519.3 173.35)" fill="#052F45"/>
<rect width="57.7" height="57.7" transform="matrix(1 0 0 -1 461.6 115.65)" fill="#052F45"/>
<rect width="57.7" height="57.7" transform="matrix(1 0 0 -1 403.9 57.9502)" fill="#052F45"/>
<rect width="57.7" height="57.7" transform="matrix(1 0 0 -1 403.9 115.65)" fill="#052F45"/>
</svg>
