<svg width="480" height="1040" viewBox="0 0 480 1040" fill="none" xmlns="http://www.w3.org/2000/svg">
<rect x="2.5" y="797.5" width="75" height="75" transform="rotate(-90 2.5 797.5)" fill="#052F45" stroke="#052F45" stroke-width="5"/>
<rect x="322.5" y="957.5" width="75" height="75" transform="rotate(-90 322.5 957.5)" fill="#052F45" stroke="#052F45" stroke-width="5"/>
<rect x="162.5" y="1037.5" width="75" height="75" transform="rotate(-90 162.5 1037.5)" fill="#052F45" stroke="#052F45" stroke-width="5"/>
<rect x="2.5" y="477.5" width="75" height="75" transform="rotate(-90 2.5 477.5)" fill="#052F45" stroke="#052F45" stroke-width="5"/>
<rect x="162.5" y="877.5" width="75" height="75" transform="rotate(-90 162.5 877.5)" fill="#052F45" stroke="#052F45" stroke-width="5"/>
<rect x="82.5" y="397.5" width="75" height="75" transform="rotate(-90 82.5 397.5)" fill="#052F45" stroke="#052F45" stroke-width="5"/>
<rect x="82.5" y="957.5" width="75" height="75" transform="rotate(-90 82.5 957.5)" fill="#052F45" stroke="#052F45" stroke-width="5"/>
<rect x="162.5" y="157.5" width="75" height="75" transform="matrix(0 -1 1 0 5 320)" fill="#052F45" stroke="#052F45" stroke-width="5"/>
<rect x="82.5" y="317.5" width="75" height="75" transform="rotate(-90 82.5 317.5)" fill="#052F45" stroke="#052F45" stroke-width="5"/>
<rect x="82.5" y="77.5" width="75" height="75" transform="rotate(-90 82.5 77.5)" fill="#052F45" stroke="#052F45" stroke-width="5"/>
<rect x="162.5" y="237.5" width="75" height="75" transform="rotate(-90 162.5 237.5)" fill="#052F45" stroke="#052F45" stroke-width="5"/>
<rect x="2.5" y="157.5" width="75" height="75" transform="rotate(-90 2.5 157.5)" fill="#052F45" stroke="#052F45" stroke-width="5"/>
<rect x="162.5" y="397.5" width="75" height="75" transform="rotate(-90 162.5 397.5)" fill="#052F45" stroke="#052F45" stroke-width="5"/>
<rect x="402.5" y="877.5" width="75" height="75" transform="rotate(-90 402.5 877.5)" fill="#052F45" stroke="#052F45" stroke-width="5"/>
<rect x="322.5" y="717.5" width="75" height="75" transform="rotate(-90 322.5 717.5)" fill="#052F45" stroke="#052F45" stroke-width="5"/>
<rect x="162.5" y="557.5" width="75" height="75" transform="rotate(-90 162.5 557.5)" fill="#052F45" stroke="#052F45" stroke-width="5"/>
<rect x="322.5" y="877.5" width="75" height="75" transform="rotate(-90 322.5 877.5)" fill="#052F45" stroke="#052F45" stroke-width="5"/>
<rect x="2.5" y="717.5" width="75" height="75" transform="rotate(-90 2.5 717.5)" fill="#052F45" stroke="#052F45" stroke-width="5"/>
<rect x="82.5" y="637.5" width="75" height="75" transform="rotate(-90 82.5 637.5)" fill="#052F45" stroke="#052F45" stroke-width="5"/>
<rect x="2.5" y="557.5" width="75" height="75" transform="rotate(-90 2.5 557.5)" fill="#052F45" stroke="#052F45" stroke-width="5"/>
<rect x="162.5" y="717.5" width="75" height="75" transform="rotate(-90 162.5 717.5)" fill="#052F45" stroke="#052F45" stroke-width="5"/>
<rect x="162.5" y="957.5" width="75" height="75" transform="rotate(-90 162.5 957.5)" fill="#052F45" stroke="#052F45" stroke-width="5"/>
<rect x="2.5" y="957.5" width="75" height="75" transform="rotate(-90 2.5 957.5)" fill="#052F45" stroke="#052F45" stroke-width="5"/>
<rect x="82.5" y="877.5" width="75" height="75" transform="rotate(-90 82.5 877.5)" fill="#052F45" stroke="#052F45" stroke-width="5"/>
<rect x="242.5" y="637.5" width="75" height="75" transform="rotate(-90 242.5 637.5)" fill="#052F45" stroke="#052F45" stroke-width="5"/>
<rect x="402.5" y="637.5" width="75" height="75" transform="rotate(-90 402.5 637.5)" fill="#052F45" stroke="#052F45" stroke-width="5"/>
<rect x="242.5" y="317.5" width="75" height="75" transform="rotate(-90 242.5 317.5)" fill="#052F45" stroke="#052F45" stroke-width="5"/>
<rect x="162.5" y="77.5004" width="75" height="75" transform="rotate(-90 162.5 77.5004)" fill="#052F45" stroke="#052F45" stroke-width="5"/>
<rect x="242.5" y="157.501" width="75" height="75" transform="rotate(-90 242.5 157.501)" fill="#052F45" stroke="#052F45" stroke-width="5"/>
<rect x="322.5" y="237.499" width="75" height="75" transform="rotate(-90 322.5 237.499)" fill="#052F45" stroke="#052F45" stroke-width="5"/>
<rect x="242.5" y="557.5" width="75" height="75" transform="rotate(-90 242.5 557.5)" fill="#052F45" stroke="#052F45" stroke-width="5"/>
</svg>
