<svg width="1040" height="400" viewBox="0 0 1040 400" fill="none" xmlns="http://www.w3.org/2000/svg">
<rect x="799.5" y="399.5" width="79" height="79" transform="rotate(180 799.5 399.5)" fill="#052F45" stroke="#052F45"/>
<rect x="719.5" y="319.5" width="79" height="79" transform="rotate(180 719.5 319.5)" fill="#052F45" stroke="#052F45"/>
<rect x="639.5" y="319.5" width="79" height="79" transform="rotate(180 639.5 319.5)" fill="#052F45" stroke="#052F45"/>
<rect x="479.5" y="399.5" width="79" height="79" transform="rotate(180 479.5 399.5)" fill="#052F45" stroke="#052F45"/>
<rect x="319.5" y="399.5" width="79" height="79" transform="rotate(180 319.5 399.5)" fill="#052F45" stroke="#052F45"/>
<rect x="399.5" y="319.5" width="79" height="79" transform="rotate(180 399.5 319.5)" fill="#052F45" stroke="#052F45"/>
<rect x="239.5" y="399.5" width="79" height="79" transform="rotate(180 239.5 399.5)" fill="#052F45" stroke="#052F45"/>
<rect x="159.5" y="319.5" width="79" height="79" transform="rotate(180 159.5 319.5)" fill="#052F45" stroke="#052F45"/>
<rect x="239.5" y="319.5" width="79" height="79" transform="rotate(180 239.5 319.5)" fill="#052F45" stroke="#052F45"/>
<rect x="79.5" y="319.5" width="79" height="79" transform="rotate(180 79.5 319.5)" fill="#052F45" stroke="#052F45"/>
<rect x="239.5" y="239.5" width="79" height="79" transform="rotate(180 239.5 239.5)" fill="#052F45" stroke="#052F45"/>
<rect x="159.5" y="399.5" width="79" height="79" transform="rotate(180 159.5 399.5)" fill="#052F45" stroke="#052F45"/>
<rect x="479.5" y="239.5" width="79" height="79" transform="rotate(180 479.5 239.5)" fill="#052F45" stroke="#052F45"/>
<rect x="399.5" y="159.5" width="79" height="79" transform="rotate(180 399.5 159.5)" fill="#052F45" stroke="#052F45"/>
<rect x="399.5" y="399.5" width="79" height="79" transform="rotate(180 399.5 399.5)" fill="#052F45" stroke="#052F45"/>
<rect x="559.5" y="239.5" width="79" height="79" transform="rotate(180 559.5 239.5)" fill="#052F45" stroke="#052F45"/>
<rect x="479.5" y="319.5" width="79" height="79" transform="rotate(180 479.5 319.5)" fill="#052F45" stroke="#052F45"/>
<rect x="639.5" y="399.5" width="79" height="79" transform="rotate(180 639.5 399.5)" fill="#052F45" stroke="#052F45"/>
<rect x="879.5" y="399.5" width="79" height="79" transform="rotate(180 879.5 399.5)" fill="#052F45" stroke="#052F45"/>
<rect x="959.5" y="399.5" width="79" height="79" transform="rotate(180 959.5 399.5)" fill="#052F45" stroke="#052F45"/>
<rect x="1039.5" y="319.5" width="79" height="79" transform="rotate(180 1039.5 319.5)" fill="#052F45" stroke="#052F45"/>
<rect x="559.5" y="319.5" width="79" height="79" transform="rotate(180 559.5 319.5)" fill="#052F45" stroke="#052F45"/>
<rect x="79.5" y="399.5" width="79" height="79" transform="rotate(180 79.5 399.5)" fill="#052F45" stroke="#052F45"/>
<rect x="319.5" y="239.5" width="79" height="79" transform="rotate(180 319.5 239.5)" fill="#052F45" stroke="#052F45"/>
<rect x="79.5" y="239.5" width="79" height="79" transform="rotate(180 79.5 239.5)" fill="#052F45" stroke="#052F45"/>
<rect x="159.5" y="159.5" width="79" height="79" transform="rotate(180 159.5 159.5)" fill="#052F45" stroke="#052F45"/>
<rect x="239.5" y="79.5" width="79" height="79" transform="rotate(180 239.5 79.5)" fill="#052F45" stroke="#052F45"/>
<rect x="239.5" y="159.5" width="79" height="79" transform="rotate(180 239.5 159.5)" fill="#052F45" stroke="#052F45"/>
</svg>
