<svg xmlns="http://www.w3.org/2000/svg" viewBox="0 0 102.52 175.48"><defs><style>.cls-1{fill:none;}.cls-1,.cls-2{stroke:#91c7ed;stroke-miterlimit:10;stroke-width:3px;}.cls-2{fill:#092f44;}.cls-3{fill:#91c7ed;}</style></defs><g id="Layer_10" data-name="Layer 10"><path class="cls-1" d="M30.58,102.55l40.9-6.77a2.47,2.47,0,0,0,2.07-2.53L72.1,56.81a2.47,2.47,0,0,0-2.87-2.34h0a2.47,2.47,0,0,1-2.87-2.39l-.22-12.45a2.49,2.49,0,0,0-2.39-2.43l-32.49-1a2.47,2.47,0,0,0-2.54,2.26l-.34,4.19a2.48,2.48,0,0,1-2.05,2.24l-2.13.35a2.48,2.48,0,0,0-2.07,2.42l-.08,14.09A2.47,2.47,0,0,1,20,64.18l-1.18.2a2.47,2.47,0,0,0-1.95,3.21l11,33.3A2.46,2.46,0,0,0,30.58,102.55Z"/></g><g id="Layer_11" data-name="Layer 11"><path class="cls-1" d="M24.9,45.24l28.82-.52a5.61,5.61,0,0,1,5.71,5.68l-.12,12L32.43,66.81l-6.84-3.55-4-.15V45.67l1.87-.3A9.21,9.21,0,0,1,24.9,45.24Z"/><line class="cls-1" x1="26.87" y1="52.1" x2="53.4" y2="51.88"/><line class="cls-1" x1="26.79" y1="57.95" x2="53.9" y2="58.05"/></g><g id="Layer_12" data-name="Layer 12"><polygon class="cls-1" points="28.23 44.58 27.65 34.78 66.35 35.67 65.64 69.14 62.35 61.86 59.31 62.37 58.1 46.71 53.72 44.72 28.23 44.58"/><line class="cls-1" x1="73.55" y1="93.25" x2="64.45" y2="66.52"/></g><g id="Layer_26" data-name="Layer 26"><path class="cls-2" d="M7.9,96.48l5.49,69.32A8.87,8.87,0,0,0,22.24,174h50.1a8.88,8.88,0,0,0,8.85-8.09l6.14-69.33a8.88,8.88,0,0,0-8.84-9.66H16.75A8.87,8.87,0,0,0,7.9,96.48Z"/><line class="cls-1" x1="22.37" y1="107.65" x2="26.97" y2="156.53"/><line class="cls-1" x1="72.03" y1="108.77" x2="68" y2="156.53"/><line class="cls-1" x1="47.62" y1="98.73" x2="47.66" y2="157.14"/><rect class="cls-2" x="1.5" y="77.41" width="91" height="15.52" rx="1.74"/><path class="cls-3" d="M66.41,24.31a3.45,3.45,0,0,1,3.46-3.55,2.48,2.48,0,0,1,2.51,2.64,3.45,3.45,0,0,1-3.46,3.54A2.48,2.48,0,0,1,66.41,24.31Zm5.69-11.7c1.43-1,2.23-1.69,2.23-2.77s-.7-1.58-1.76-1.58c-1.39,0-2.33.65-3.52,1.83L66.77,7.93a8,8,0,0,1,6.61-3.19c3,0,5.33,1.34,5.33,4.17s-1.93,4.22-4.14,5.8c-1.42,1.06-2.39,1.84-2.6,3.68H68.34C68.44,15.39,70.43,13.8,72.1,12.61Z"/><path class="cls-3" d="M75.3,40a3.46,3.46,0,0,1,3.46-3.55,2.48,2.48,0,0,1,2.51,2.64,3.45,3.45,0,0,1-3.46,3.54A2.48,2.48,0,0,1,75.3,40ZM81,28.26c1.43-1,2.23-1.69,2.23-2.77s-.69-1.58-1.76-1.58c-1.38,0-2.33.65-3.52,1.83l-2.28-2.16a8,8,0,0,1,6.61-3.19c3,0,5.33,1.34,5.33,4.17s-1.92,4.22-4.14,5.8C82,31.42,81.07,32.2,80.86,34H77.23C77.34,31,79.32,29.45,81,28.26Z"/><path class="cls-3" d="M83.59,55.29a3.46,3.46,0,0,1,3.46-3.56,2.49,2.49,0,0,1,2.52,2.64,3.46,3.46,0,0,1-3.47,3.55A2.48,2.48,0,0,1,83.59,55.29Zm5.69-11.71c1.44-1,2.24-1.69,2.24-2.77s-.7-1.58-1.77-1.58c-1.38,0-2.33.65-3.52,1.83L84,38.9a8,8,0,0,1,6.6-3.19c3,0,5.34,1.35,5.34,4.17S94,44.1,91.75,45.69c-1.42,1.05-2.38,1.83-2.6,3.67H85.53C85.63,46.36,87.61,44.77,89.28,43.58Z"/></g></svg>