<svg xmlns="http://www.w3.org/2000/svg" viewBox="0 0 384.41 277.93"><defs><style>.cls-1,.cls-3{fill:#092f44;}.cls-1,.cls-2,.cls-3{stroke:#91c7ed;stroke-miterlimit:10;stroke-width:5px;}.cls-2{fill:#91c7ed;}.cls-3{stroke-linecap:round;}</style></defs><g id="Layer_24" data-name="Layer 24"><rect class="cls-1" x="45.47" y="11.47" width="100.8" height="133.67" rx="50.4"/><path class="cls-1" d="M140.43,151H51.32A46.88,46.88,0,0,0,4.57,197.73h0c0,25.72-10.37,49.58,15.34,49.58H171.84c25.71,0,15.91-37.87,15.34-49.58h0A46.88,46.88,0,0,0,140.43,151Z"/><polygon class="cls-1" points="77.09 141.49 77.09 154.64 95.98 173.54 114.17 155.36 114.17 141.49 98.79 145.14 88.57 145.14 77.09 141.49"/><rect class="cls-2" x="71.16" y="78.31" width="11.45" height="11.45" rx="5.72"/><rect class="cls-2" x="111.09" y="78.31" width="11.45" height="11.45" rx="5.72"/><line class="cls-3" x1="37.11" y1="213.08" x2="37.11" y2="245.06"/><line class="cls-3" x1="152.36" y1="213.08" x2="152.36" y2="245.06"/><path class="cls-3" d="M86.46,108c4.62,7.51,16.75,8.09,20.22,0"/><line class="cls-3" x1="45.47" y1="65.86" x2="146.27" y2="65.86"/><line class="cls-3" x1="45.7" y1="57.16" x2="146.09" y2="57.62"/><rect class="cls-1" x="237.9" y="11.47" width="100.8" height="133.67" rx="50.4"/><path class="cls-1" d="M332.85,151H243.74A46.88,46.88,0,0,0,197,197.73h0c0,25.72-10.37,49.58,15.34,49.58H364.26c25.71,0,15.91-37.87,15.34-49.58h0A46.88,46.88,0,0,0,332.85,151Z"/><polygon class="cls-1" points="269.51 141.49 269.51 154.64 288.41 173.54 306.59 155.36 306.59 141.49 291.22 145.14 280.99 145.14 269.51 141.49"/><rect class="cls-2" x="263.59" y="78.31" width="11.45" height="11.45" rx="5.72"/><rect class="cls-2" x="303.52" y="78.31" width="11.45" height="11.45" rx="5.72"/><line class="cls-3" x1="229.54" y1="213.08" x2="229.54" y2="245.06"/><line class="cls-3" x1="344.79" y1="213.08" x2="344.79" y2="245.06"/><path class="cls-3" d="M278.88,108c4.63,7.51,16.76,8.09,20.23,0"/><path class="cls-3" d="M286.56,62.39c-1.54,9-6.14,6-9,3a1.93,1.93,0,0,0-3.19.72c-2,5.51-7.31,2.42-10.89-.5A1.92,1.92,0,0,0,260.31,67c-.23,8.5-6.39,6.41-10.51,4a1.93,1.93,0,0,0-2.89,1.83c.57,6.45-1.39,14.26-12.92,5.49-11.94-9.07-5.72-17.75-3.21-20.49a1.91,1.91,0,0,0,.34-2.05c-5.18-11.73,4.59-21,7.72-23.54a1.88,1.88,0,0,0,.68-1.81c-2.86-15.31,18.12-15.79,23-15.7a1.91,1.91,0,0,0,1.6-.81c2.55-3.62,12.95-17,20.07-6.38a1.93,1.93,0,0,0,2.87.4C291.42,4.24,303-3.4,310.87,13.64a1.93,1.93,0,0,0,1.77,1.14c5.31-.07,25.64.62,22.82,15.7a1.88,1.88,0,0,0,.68,1.81c3.13,2.57,12.9,11.81,7.72,23.54a1.91,1.91,0,0,0,.34,2.05c2.51,2.74,8.73,11.42-3.21,20.49-11.53,8.77-13.49,1-12.92-5.49a1.93,1.93,0,0,0-2.89-1.83c-4.12,2.38-10.28,4.47-10.51-4a1.92,1.92,0,0,0-3.13-1.41c-3.58,2.92-8.91,6-10.89.5a1.93,1.93,0,0,0-3.19-.72c-2.9,3-7.5,6-9-3"/><ellipse class="cls-3" cx="191.89" cy="177.76" rx="30.97" ry="51.42"/><rect class="cls-1" x="141.73" y="39.6" width="100.8" height="133.67" rx="50.4"/><path class="cls-1" d="M236.69,179.11H147.58a46.88,46.88,0,0,0-46.75,46.75h0c0,25.71-10.37,49.57,15.34,49.57H268.1c25.71,0,15.91-37.87,15.34-49.57h0A46.88,46.88,0,0,0,236.69,179.11Z"/><polygon class="cls-1" points="173.35 169.61 173.35 182.76 192.25 201.66 210.43 183.48 210.43 169.61 195.05 173.26 184.83 173.26 173.35 169.61"/><rect class="cls-2" x="167.42" y="106.43" width="11.45" height="11.45" rx="5.72"/><rect class="cls-2" x="207.35" y="106.43" width="11.45" height="11.45" rx="5.72"/><line class="cls-3" x1="133.37" y1="241.2" x2="133.37" y2="273.18"/><line class="cls-3" x1="248.62" y1="241.2" x2="248.62" y2="273.18"/><path class="cls-3" d="M182.72,136.16c4.62,7.51,16.75,8.09,20.22,0"/><path class="cls-3" d="M192.13,41.6s-20,48.61-48.86,63.05C143.27,104.65,130.63,47.87,192.13,41.6Z"/><path class="cls-3" d="M192.83,41.6s20,48.61,48.86,63.05C241.69,104.65,254.33,47.87,192.83,41.6Z"/></g></svg>