<svg xmlns="http://www.w3.org/2000/svg" viewBox="0 0 176.45 163.26"><defs><style>.cls-1{fill:#092f44;}.cls-1,.cls-2,.cls-3{stroke:#91c7ed;stroke-miterlimit:10;stroke-width:4px;}.cls-2{fill:#91c7ed;}.cls-3{fill:none;}</style></defs><g id="Layer_29" data-name="Layer 29"><polygon class="cls-1" points="1.5 160.46 1.5 60.11 59.32 39.13 116.57 60.11 174.95 39.13 174.95 138.5 118 161.65 57.31 138.5 1.5 160.46"/><path class="cls-1" d="M52.41,76s-22.57-28.34-26-48.75,40.81-45.91,51.58,0C78,30.07,75.54,47.07,52.41,76Z"/><rect class="cls-2" x="48.53" y="22.61" width="7.22" height="7.22" rx="3.61"/><line class="cls-3" x1="22.88" y1="100.5" x2="29.8" y2="111.57"/><line class="cls-3" x1="32.11" y1="102.81" x2="21.49" y2="109.27"/><line class="cls-3" x1="44.1" y1="110.19" x2="58.86" y2="112.04"/><line class="cls-3" x1="74.09" y1="111.11" x2="84.7" y2="100.5"/><line class="cls-3" x1="106.1" y1="80.2" x2="92.54" y2="88.51"/><line class="cls-3" x1="118" y1="83.43" x2="129.91" y2="90.81"/><rect class="cls-2" x="143.18" y="95.68" width="11.76" height="11.76" rx="5.43"/></g></svg>