<svg xmlns="http://www.w3.org/2000/svg" viewBox="0 0 143.21 102.33"><defs><style>.cls-1{fill:#092f44;}.cls-1,.cls-2{stroke:#91c7ed;stroke-miterlimit:10;stroke-width:3px;}.cls-2{fill:#ecf2f6;}</style></defs><g id="Layer_11" data-name="Layer 11"><path class="cls-1" d="M15.35,85.54l40.9-6.77a2.47,2.47,0,0,0,2.07-2.53L56.87,39.8A2.47,2.47,0,0,0,54,37.46h0a2.47,2.47,0,0,1-2.87-2.39l-.22-12.45a2.46,2.46,0,0,0-2.39-2.42L16,19.2a2.46,2.46,0,0,0-2.53,2.27l-.34,4.18a2.49,2.49,0,0,1-2.06,2.24L9,28.24A2.48,2.48,0,0,0,6.9,30.66L6.82,44.75a2.46,2.46,0,0,1-2.07,2.42l-1.18.2a2.46,2.46,0,0,0-1.94,3.21l11,33.3A2.46,2.46,0,0,0,15.35,85.54Z"/><path class="cls-1" d="M9.67,28.23l28.82-.51a5.61,5.61,0,0,1,5.71,5.67l-.12,12L17.2,49.81l-6.84-3.56-4-.15V28.67l1.87-.31A9.21,9.21,0,0,1,9.67,28.23Z"/><line class="cls-2" x1="11.64" y1="35.09" x2="38.17" y2="34.87"/><line class="cls-2" x1="11.56" y1="40.94" x2="38.67" y2="41.04"/><polygon class="cls-1" points="13 27.57 12.42 17.77 51.12 18.66 50.41 52.13 47.12 44.85 44.08 45.36 42.87 29.7 38.49 27.71 13 27.57"/><line class="cls-2" x1="58.32" y1="76.24" x2="49.22" y2="49.51"/><path class="cls-1" d="M33.88,90.35l45.85-7.59a2.76,2.76,0,0,0,2.32-2.83L80.43,39.08a2.76,2.76,0,0,0-3.22-2.62h0A2.78,2.78,0,0,1,74,33.78l-.25-14a2.75,2.75,0,0,0-2.68-2.71L34.64,16a2.76,2.76,0,0,0-2.84,2.54l-.38,4.7a2.75,2.75,0,0,1-2.31,2.5l-2.39.4a2.76,2.76,0,0,0-2.31,2.71l-.09,15.8A2.77,2.77,0,0,1,22,47.34l-1.33.22a2.77,2.77,0,0,0-2.18,3.6L30.8,88.49A2.78,2.78,0,0,0,33.88,90.35Z"/><path class="cls-1" d="M27.51,26.1l32.31-.57a6.29,6.29,0,0,1,6.41,6.36l-.15,13.42L36,50.29l-7.67-4-4.43-.16V26.59l2.1-.34A10.3,10.3,0,0,1,27.51,26.1Z"/><line class="cls-2" x1="29.72" y1="33.8" x2="59.47" y2="33.55"/><line class="cls-2" x1="29.63" y1="40.35" x2="60.03" y2="40.47"/><polygon class="cls-1" points="31.25 25.37 30.59 14.38 73.98 15.38 73.18 52.89 69.49 44.74 66.08 45.31 64.73 27.76 59.82 25.53 31.25 25.37"/><line class="cls-2" x1="82.05" y1="79.93" x2="71.85" y2="49.96"/><path class="cls-1" d="M53.78,92.6l51.1-8.45A3.09,3.09,0,0,0,107.46,81l-1.81-45.53a3.08,3.08,0,0,0-3.58-2.92h0a3.09,3.09,0,0,1-3.59-3L98.2,14a3.08,3.08,0,0,0-3-3L54.63,9.72a3.08,3.08,0,0,0-3.17,2.83L51,17.78a3.07,3.07,0,0,1-2.57,2.8L45.8,21a3.08,3.08,0,0,0-2.58,3l-.1,17.61a3.08,3.08,0,0,1-2.58,3l-1.49.25a3.08,3.08,0,0,0-2.42,4l13.72,41.6A3.07,3.07,0,0,0,53.78,92.6Z"/><path class="cls-1" d="M46.67,21l36-.64a7,7,0,0,1,7.14,7.09l-.16,15L56.08,48l-8.54-4.45-4.94-.18V21.55l2.34-.39A12.5,12.5,0,0,1,46.67,21Z"/><line class="cls-2" x1="49.14" y1="29.58" x2="82.29" y2="29.3"/><line class="cls-2" x1="49.04" y1="36.88" x2="82.92" y2="37.01"/><polygon class="cls-1" points="50.84 20.18 50.11 7.94 98.47 9.05 97.57 50.86 93.47 41.77 89.67 42.4 88.16 22.84 82.69 20.36 50.84 20.18"/><line class="cls-2" x1="107.46" y1="80.99" x2="96.1" y2="47.59"/><path class="cls-1" d="M78.79,100.78l59.9-9.91a3.63,3.63,0,0,0,3-3.71L139.59,33.8a3.61,3.61,0,0,0-4.2-3.43h0a3.61,3.61,0,0,1-4.2-3.5l-.33-18.23a3.61,3.61,0,0,0-3.5-3.55L79.79,3.62A3.63,3.63,0,0,0,76.07,7l-.5,6.13a3.6,3.6,0,0,1-3,3.27l-3.12.52a3.61,3.61,0,0,0-3,3.55L66.3,41.05a3.62,3.62,0,0,1-3,3.55l-1.74.28a3.61,3.61,0,0,0-2.84,4.7L74.77,98.34A3.62,3.62,0,0,0,78.79,100.78Z"/><path class="cls-1" d="M70.46,16.85l42.21-.75A8.22,8.22,0,0,1,121,24.41l-.19,17.52L81.49,48.45l-10-5.21L65.68,43V17.49L68.43,17A13.81,13.81,0,0,1,70.46,16.85Z"/><line class="cls-2" x1="73.35" y1="26.9" x2="112.21" y2="26.58"/><line class="cls-2" x1="73.24" y1="35.46" x2="112.94" y2="35.61"/><polygon class="cls-1" points="75.34 15.89 74.5 1.54 131.17 2.84 130.12 51.85 125.31 41.2 120.85 41.94 119.09 19.01 112.67 16.1 75.34 15.89"/><line class="cls-2" x1="141.71" y1="87.16" x2="128.39" y2="48.01"/></g></svg>