<svg xmlns="http://www.w3.org/2000/svg" viewBox="0 0 144.86 135.09"><defs><style>.cls-1{fill:#092f44;}.cls-1,.cls-2{stroke:#91c7ed;stroke-miterlimit:10;stroke-width:3px;}.cls-2{fill:none;}</style></defs><g id="Layer_17" data-name="Layer 17"><path class="cls-1" d="M33,89.63c-1.55-2.94-14.61-30.06,15-55,36.27-23.08,66,14,66.77,23.91s1.25,12.36,1.86,16.49,6.8,12.58,7.62,15.88-5.76,6.37-7.62,6.37c-.86,0-.48,4.67-.74,9.65-.65,12.54-4.94,11.79-11.39,11.79H94.94v14.84H45.47s3.28-27-12.18-43.5A1.81,1.81,0,0,1,33,89.63Z"/><path class="cls-1" d="M72.57,49.5s-14.94,14,0,27.2C72.57,76.7,89,61.86,72.57,49.5Z"/><path class="cls-1" d="M98.92,72.69S78.51,70.93,78.68,90.86C78.68,90.86,100.66,93.14,98.92,72.69Z"/><path class="cls-1" d="M45.17,71.26s.06,20.48,19.9,18.55C65.07,89.81,65.39,67.7,45.17,71.26Z"/><line class="cls-2" x1="65.07" y1="89.81" x2="65.07" y2="134.78"/><line class="cls-2" x1="78.67" y1="88.94" x2="78.67" y2="134.78"/><line class="cls-2" x1="10.64" y1="107.35" x2="23.12" y2="99.52"/><line class="cls-2" y1="70.87" x2="16.06" y2="70.87"/><line class="cls-2" x1="9.79" y1="34.87" x2="23.12" y2="42.71"/><line class="cls-2" x1="36.44" y1="8.62" x2="44.27" y2="22.33"/><line class="cls-2" x1="72.57" x2="72.57" y2="15.48"/><line class="cls-2" x1="108.53" y1="9.79" x2="101.08" y2="22.33"/><line class="cls-2" x1="134.39" y1="35.65" x2="121.85" y2="43.49"/><line class="cls-2" x1="128.9" y1="70.87" x2="144.86" y2="70.87"/></g></svg>