<?xml version="1.0" encoding="utf-8"?>
<!-- Generator: Adobe Illustrator 25.4.8, SVG Export Plug-In . SVG Version: 6.00 Build 0)  -->
<svg version="1.1" id="Layer_1" xmlns="http://www.w3.org/2000/svg" xmlns:xlink="http://www.w3.org/1999/xlink" x="0px" y="0px"
	 viewBox="0 0 165.3 216.1" style="enable-background:new 0 0 165.3 216.1;" xml:space="preserve">
<style type="text/css">
	.st0{fill:none;stroke:#1D1D1B;stroke-width:3;stroke-miterlimit:10;}
	.st1{fill:none;stroke:#1D1D1B;stroke-width:2;stroke-miterlimit:10;}
	.st2{fill:#1D1D1B;}
	.st3{fill:#F6F6F6;}
</style>
<g id="Layer_10">
	<path class="st0" d="M83.4,174.2l40.9-6.8c1.2-0.2,2.1-1.3,2.1-2.5l-1.4-36.4c-0.1-1.4-1.2-2.4-2.6-2.4c-0.1,0-0.2,0-0.3,0l0,0
		c-1.3,0.2-2.6-0.7-2.8-2c0-0.1,0-0.2,0-0.4l-0.2-12.5c0-1.3-1.1-2.4-2.4-2.4l-32.5-1c-1.3,0-2.5,1-2.5,2.3l-0.3,4.2
		c-0.1,1.1-0.9,2-2.1,2.2L77,117c-1.2,0.2-2.1,1.2-2.1,2.4l-0.1,14.1c0,1.2-0.9,2.2-2.1,2.4l-1.2,0.2c-1.3,0.2-2.3,1.5-2,2.8
		c0,0.1,0.1,0.2,0.1,0.4l11,33.3C81,173.7,82.2,174.4,83.4,174.2z"/>
</g>
<g id="Layer_11">
	<path class="st0" d="M77.7,116.9l28.8-0.5c3.1-0.1,5.7,2.4,5.7,5.5c0,0.1,0,0.1,0,0.2l-0.1,12l-26.9,4.4l-6.8-3.6l-4-0.1v-17.5
		l1.9-0.3C76.7,117,77.2,116.9,77.7,116.9z"/>
	<line class="st0" x1="79.6" y1="123.8" x2="106.2" y2="123.6"/>
	<line class="st0" x1="79.6" y1="129.6" x2="106.7" y2="129.7"/>
</g>
<g id="Layer_12">
	<polygon class="st0" points="81,116.3 80.4,106.5 119.1,107.4 118.4,140.8 115.1,133.5 112.1,134 110.9,118.4 106.5,116.4 	"/>
	<line class="st0" x1="126.3" y1="164.9" x2="117.2" y2="138.2"/>
</g>
<g id="Layer_13">
	<polygon class="st0" points="135.1,150.5 111,196.6 144.6,214.1 163.7,175.5 160.6,164.3 	"/>
	<line class="st0" x1="133.5" y1="167.2" x2="155" y2="178.5"/>
	<line class="st0" x1="130.4" y1="173.1" x2="151.9" y2="184.4"/>
	<line class="st0" x1="127.4" y1="178.9" x2="148.9" y2="190.1"/>
	<line class="st0" x1="124.4" y1="184.7" x2="145.9" y2="195.9"/>
</g>
<g id="Layer_14">
	<path class="st1" d="M159.9,165.6l-3.2,6.2l5.4,2.8c0.4,0.2,0.9,0,1.1-0.3c0.1-0.2,0.1-0.4,0.1-0.6l-2.2-8
		c-0.1-0.3-0.4-0.5-0.7-0.4C160.1,165.4,160,165.5,159.9,165.6z"/>
</g>
<g id="Layer_8">
	<path class="st2" d="M94.4,1.2l50.3,36.2c2.9,2.1,3.5,6.1,1.5,9L62,163.5c-2.1,2.9-6.1,3.5-9,1.5L2.7,128.8c-2.9-2.1-3.5-6.1-1.5-9
		L85.4,2.7C87.4-0.2,91.5-0.9,94.4,1.2z"/>
</g>
<g id="Layer_9">
	<path class="st3" d="M96,8.1L137.6,38c3.6,2.6,4.4,7.6,1.8,11.2l-69.8,97.1c-2.6,3.6-7.6,4.4-11.2,1.8l-41.6-29.9
		c-3.6-2.6-4.4-7.6-1.8-11.2L84.8,9.9C87.4,6.3,92.4,5.5,96,8.1z"/>
	<rect x="30" y="132.1" transform="matrix(0.5837 -0.812 0.812 0.5837 -99.4933 84.9769)" class="st3" width="6.2" height="14.9"/>
</g>
</svg>
