<svg xmlns="http://www.w3.org/2000/svg" viewBox="0 0 260.59 240.84"><defs><style>.cls-1{fill:#092f44;stroke-width:5px;}.cls-1,.cls-2,.cls-3,.cls-4,.cls-5{stroke:#91c7ed;stroke-miterlimit:10;}.cls-2,.cls-4,.cls-5{fill:none;}.cls-2,.cls-3,.cls-5{stroke-width:3px;}.cls-3{fill:#91c7ed;}.cls-4,.cls-5{stroke-linecap:round;}.cls-4{stroke-width:6px;}</style></defs><g id="Layer_24" data-name="Layer 24"><rect class="cls-1" x="80.52" y="2.5" width="100.8" height="133.67" rx="50.4"/><path class="cls-1" d="M175.48,142H86.37a46.89,46.89,0,0,0-46.75,46.75h0c0,25.71-10.37,49.58,15.34,49.58H206.89c25.71,0,15.91-37.88,15.34-49.58h0A46.89,46.89,0,0,0,175.48,142Z"/><polygon class="cls-1" points="112.14 132.52 112.14 145.66 131.04 164.56 149.22 146.38 149.22 132.52 133.85 136.17 123.62 136.17 112.14 132.52"/><line class="cls-2" x1="80.55" y1="51.41" x2="181.32" y2="51.41"/><line class="cls-2" x1="82.26" y1="39.83" x2="179.54" y2="39.83"/><path class="cls-1" d="M106.21,238.34c-3.08-6.79-14.9-29.34-6.9-59,0,0,19.33,6,34.85,3.88,0,0,2.31,36,23.27,55.08Z"/><path class="cls-1" d="M104.76,180.83l1.64-18.1S93,156.9,92.68,150.93c-.19-4.21,2-12.3,3.3-16.71a7.67,7.67,0,0,1,3.81-4.63c4.26-2.24,11.88-4.87,16-4.29,9.37,1.34,8.32-15.44,13.14-17.31s6.65.29,8.72,2.8S136.52,133,136.52,133A41.19,41.19,0,0,0,137,139c.47,3.13,6.88,3.84,7.18,12,.27,7.52-11,13.07-14.63,12.41s1.16,20.26,1.16,20.26S115.83,184.69,104.76,180.83Z"/><rect class="cls-3" x="106.21" y="69.33" width="11.45" height="11.45" rx="5.72"/><rect class="cls-3" x="146.14" y="69.33" width="11.45" height="11.45" rx="5.72"/><line class="cls-4" x1="122.26" y1="102.28" x2="140.65" y2="99.49"/><line class="cls-5" x1="72.17" y1="204.11" x2="72.17" y2="236.08"/><line class="cls-5" x1="187.42" y1="204.11" x2="187.42" y2="236.08"/><rect class="cls-3" x="207.72" y="69.24" width="11.45" height="11.45" rx="5.72"/><rect class="cls-3" x="247.64" y="69.24" width="11.45" height="11.45" rx="5.72"/><rect class="cls-3" x="1.5" y="69.33" width="11.45" height="11.45" rx="5.72"/><rect class="cls-3" x="41.43" y="69.33" width="11.45" height="11.45" rx="5.72"/></g></svg>