<svg width="720" height="402" viewBox="0 0 720 402" fill="none" xmlns="http://www.w3.org/2000/svg">
<rect x="153.5" y="397.5" width="76" height="77" transform="rotate(180 153.5 397.5)" fill="#F7F7F7" stroke="#F7F7F7" stroke-width="5"/>
<rect x="234.5" y="318.5" width="76" height="76" transform="rotate(180 234.5 318.5)" fill="#F7F7F7" stroke="#F7F7F7" stroke-width="5"/>
<rect x="155.5" y="238.5" width="76" height="76" transform="rotate(180 155.5 238.5)" fill="#F7F7F7" stroke="#F7F7F7" stroke-width="5"/>
<rect x="78.5" y="159.5" width="76" height="76" transform="rotate(180 78.5 159.5)" fill="#F7F7F7" stroke="#F7F7F7" stroke-width="5"/>
<rect x="155.5" y="159.5" width="76" height="76" transform="rotate(180 155.5 159.5)" fill="#F7F7F7" stroke="#F7F7F7" stroke-width="5"/>
<rect x="313.5" y="397.5" width="76" height="77" transform="rotate(180 313.5 397.5)" fill="#F7F7F7" stroke="#F7F7F7" stroke-width="5"/>
<rect x="395.5" y="397.5" width="77" height="77" transform="rotate(180 395.5 397.5)" fill="#F7F7F7" stroke="#F7F7F7" stroke-width="5"/>
<rect x="474.5" y="315.5" width="76" height="76" transform="rotate(180 474.5 315.5)" fill="#F7F7F7" stroke="#F7F7F7" stroke-width="5"/>
<rect x="235.5" y="78.5" width="76" height="76" transform="rotate(180 235.5 78.5)" fill="#F7F7F7" stroke="#F7F7F7" stroke-width="5"/>
<rect x="716.518" y="398.518" width="78.0176" height="78.0176" transform="rotate(180 716.518 398.518)" fill="#F7F7F7" stroke="#F7F7F7" stroke-width="5"/>
<rect x="633.5" y="237.5" width="76" height="77" transform="rotate(180 633.5 237.5)" fill="#F7F7F7" stroke="#F7F7F7" stroke-width="5"/>
<rect x="313.5" y="238.5" width="76" height="76" transform="rotate(180 313.5 238.5)" fill="#F7F7F7" stroke="#F7F7F7" stroke-width="5"/>
</svg>
