<svg width="801" height="401" viewBox="0 0 801 401" fill="none" xmlns="http://www.w3.org/2000/svg">
<rect x="240.359" y="400.36" width="80.36" height="80.36" transform="rotate(180 240.359 400.36)" fill="#F7F7F7"/>
<rect x="240.359" y="400.36" width="80.36" height="80.36" transform="rotate(180 240.359 400.36)" stroke="#F7F7F7"/>
<rect x="80.3594" y="400.36" width="80.36" height="80.36" transform="rotate(180 80.3594 400.36)" fill="#F7F7F7"/>
<rect x="80.3594" y="400.36" width="80.36" height="80.36" transform="rotate(180 80.3594 400.36)" stroke="#F7F7F7"/>
<rect x="320.359" y="320.36" width="80.36" height="80.36" transform="rotate(180 320.359 320.36)" fill="#F7F7F7"/>
<rect x="320.359" y="320.36" width="80.36" height="80.36" transform="rotate(180 320.359 320.36)" stroke="#F7F7F7"/>
<rect x="240.359" y="240.36" width="80.36" height="80.36" transform="rotate(180 240.359 240.36)" fill="#F7F7F7"/>
<rect x="240.359" y="240.36" width="80.36" height="80.36" transform="rotate(180 240.359 240.36)" stroke="#F7F7F7"/>
<rect x="160.359" y="160.36" width="80.36" height="80.36" transform="rotate(180 160.359 160.36)" fill="#F7F7F7"/>
<rect x="160.359" y="160.36" width="80.36" height="80.36" transform="rotate(180 160.359 160.36)" stroke="#F7F7F7"/>
<rect x="240.359" y="160.36" width="80.36" height="80.36" transform="rotate(180 240.359 160.36)" fill="#F7F7F7"/>
<rect x="240.359" y="160.36" width="80.36" height="80.36" transform="rotate(180 240.359 160.36)" stroke="#F7F7F7"/>
<rect x="400.359" y="400.36" width="80.36" height="80.36" transform="rotate(180 400.359 400.36)" fill="#F7F7F7"/>
<rect x="400.359" y="400.36" width="80.36" height="80.36" transform="rotate(180 400.359 400.36)" stroke="#F7F7F7"/>
<rect x="480.359" y="400.36" width="80.36" height="80.36" transform="rotate(180 480.359 400.36)" fill="#F7F7F7"/>
<rect x="480.359" y="400.36" width="80.36" height="80.36" transform="rotate(180 480.359 400.36)" stroke="#F7F7F7"/>
<rect x="560.359" y="319.36" width="80.36" height="80.36" transform="rotate(180 560.359 319.36)" fill="#F7F7F7"/>
<rect x="560.359" y="319.36" width="80.36" height="80.36" transform="rotate(180 560.359 319.36)" stroke="#F7F7F7"/>
<rect x="320.359" y="80.36" width="80.36" height="80.36" transform="rotate(180 320.359 80.36)" fill="#F7F7F7"/>
<rect x="320.359" y="80.36" width="80.36" height="80.36" transform="rotate(180 320.359 80.36)" stroke="#F7F7F7"/>
<rect x="800.145" y="400.36" width="80.3601" height="80.3601" transform="rotate(180 800.145 400.36)" fill="#F7F7F7"/>
<rect x="800.145" y="400.36" width="80.3601" height="80.3601" transform="rotate(180 800.145 400.36)" stroke="#F7F7F7"/>
<rect x="720.359" y="240.36" width="80.36" height="80.36" transform="rotate(180 720.359 240.36)" fill="#F7F7F7"/>
<rect x="720.359" y="240.36" width="80.36" height="80.36" transform="rotate(180 720.359 240.36)" stroke="#F7F7F7"/>
<rect x="400.359" y="240.36" width="80.36" height="80.36" transform="rotate(180 400.359 240.36)" fill="#F7F7F7"/>
<rect x="400.359" y="240.36" width="80.36" height="80.36" transform="rotate(180 400.359 240.36)" stroke="#F7F7F7"/>
</svg>
