<svg width="800" height="400" viewBox="0 0 800 400" fill="none" xmlns="http://www.w3.org/2000/svg">
<rect width="80" height="80" fill="#052F45"/>
<rect x="80" y="80" width="80" height="80" fill="#052F45"/>
<rect x="80" y="80" width="160" height="80" fill="#052F45"/>
<rect x="320" width="80" height="80" fill="#052F45"/>
<rect x="480" width="80" height="80" fill="#052F45"/>
<rect x="400" y="80" width="80" height="80" fill="#052F45"/>
<rect x="560" width="80" height="80" fill="#052F45"/>
<rect x="560" y="80" width="80" height="80" fill="#052F45"/>
<rect x="720" width="80" height="80" fill="#052F45"/>
<rect x="480" y="160" width="80" height="80" fill="#052F45"/>
<rect x="720" y="160" width="80" height="80" fill="#052F45"/>
<rect x="640" y="240" width="80" height="80" fill="#052F45"/>
<rect x="560" y="320" width="80" height="80" fill="#052F45"/>
<rect x="560" y="240" width="80" height="80" fill="#052F45"/>
<path d="M560 400V240H720V320H639.981V400H560Z" fill="#052F45"/>
<path d="M640 160V0H480V80H560.019V160H640Z" fill="#052F45"/>
</svg>
