<svg width="140" height="143" viewBox="0 0 140 143" fill="none" xmlns="http://www.w3.org/2000/svg">
<rect x="59.6094" y="8.53058" width="113.427" height="58.5899" transform="rotate(52.8359 59.6094 8.53058)" fill="#052F45"/>
<path d="M10.3641 43.7809L59.2425 6.45589C60.1204 5.78551 61.3755 5.95373 62.0459 6.83161L97.5501 53.3256L93.5763 56.3602L63.5342 17.0191L73.122 70.7839C73.2392 71.4415 73.6771 71.9972 74.2892 72.265L121.494 92.9196L94.1832 57.155L98.1571 54.1204L130.93 97.038C131.601 97.9159 131.432 99.171 130.555 99.8414L81.6762 137.166C80.7983 137.837 79.5432 137.669 78.8728 136.791L46.0996 93.8731L50.4709 90.5351L79.906 129.081C80.5764 129.959 81.8315 130.128 82.7094 129.457L122.448 99.1116L69.5266 75.91C68.9113 75.6402 68.4725 75.0795 68.3586 74.4173L58.1153 14.866L18.3768 45.2115C17.499 45.8819 17.3307 47.137 18.0011 48.0149L49.8639 89.7403L45.4927 93.0783L9.98842 46.5843C9.31805 45.7064 9.48626 44.4513 10.3641 43.7809Z" fill="#E7639B" stroke="#E7639B"/>
</svg>
