<svg width="529" height="298" viewBox="0 0 529 298" fill="none" xmlns="http://www.w3.org/2000/svg">
<path d="M73.5 24L11 11L43.5 290.5L241 286V240.5L273.5 12.5L198 24L145 29L73.5 24Z" fill="#052F45"/>
<path d="M364.248 221.229L358.978 221.125L363.643 213.721L329.028 211.962L289.038 215.316L286.52 216.138C281.252 217.858 276.644 221.164 273.327 225.603C272.204 227.105 272.242 229.176 273.417 230.637L275.473 233.191C278.39 236.815 282.142 239.678 286.408 241.535L332.715 261.695C343.261 266.286 354.44 269.254 365.874 270.5L425.293 276.972L489.836 275.039L514.12 266.243C515.492 265.746 516.936 266.78 516.907 268.239C516.891 269.085 516.363 269.837 515.572 270.14L491.153 279.489L440.96 281.461C430.463 281.874 419.95 281.487 409.512 280.303L366.193 275.391C354.489 274.064 343.061 270.931 332.316 266.104L278.35 241.858L270.46 235.558L274.622 241.418L278.939 250.25C280.341 253.118 282.681 255.421 285.572 256.777L319.995 272.923C337.212 280.998 355.761 285.858 374.727 287.261L420.263 290.631C425.179 290.995 430.117 290.972 435.029 290.561L504.143 284.785C507.148 284.534 509.99 283.309 512.236 281.297L516.673 277.324C519.982 274.36 521.912 270.153 521.999 265.711C522.08 261.636 519.833 257.871 516.208 256.007L490.439 242.755L491.622 240.052L519.29 253.651C523.192 255.569 525.823 259.369 526.246 263.696C526.806 269.433 524.707 275.11 520.551 279.103L516.954 282.559C513.815 285.575 509.754 287.448 505.422 287.878L435.664 294.801C430.272 295.336 424.845 295.404 419.442 295.004L375.834 291.777C356.093 290.316 336.81 285.111 319.015 276.441L282.927 258.857C280.48 257.664 278.433 255.784 277.038 253.446L269.729 241.198L267.796 232.738L270.522 223.396C273.869 217.14 280.178 213.026 287.252 212.485L329.08 209.291L365.586 210.693C371.642 202.494 381.346 197.802 391.534 198.146L399.867 198.427C414.294 198.914 426.93 208.237 431.653 221.877L491.245 240.045L490.069 242.407L431.599 224.602L432.103 237.219L425.617 239.679C423.205 240.594 420.532 240.541 418.158 239.532L411.773 236.817L413.481 226.63L410.63 218.396L397.5 215.752L398.3 213.383L409.548 215.99L401.366 210.718L393.473 209.881L389.311 210.821L387.026 212.138L397.547 213.368L396.747 215.737L384.35 214.13L379.745 218.468L375.738 230.655L372.115 230.372C366.98 229.97 362.211 227.48 358.93 223.509L358.971 221.465L363.865 221.562L363.475 222.236L364.498 223.753C365.496 225.233 366.951 226.346 368.641 226.923C370.701 227.625 372.935 226.495 373.59 224.419L374.382 221.903C377.234 212.856 385.847 206.886 395.32 207.39L399.544 207.615C410.645 210.162 418.059 220.646 416.761 231.962L416.547 233.826C416.41 235.023 417.136 236.151 418.283 236.522L419.297 236.85C421.017 237.406 422.855 237.485 424.616 237.079L425.582 236.857C427.402 236.437 428.653 234.764 428.542 232.899L428.482 231.908C427.49 215.351 414.46 202.051 397.927 200.719C384.814 199.662 372.308 206.427 366.017 217.98L364.248 221.229Z" fill="#F6F6F6"/>
<path d="M267.796 232.738L270.46 235.558M267.796 232.738L269.729 241.198M267.796 232.738L270.522 223.396V223.396C273.869 217.14 280.178 213.026 287.252 212.485L329.08 209.291L365.586 210.693V210.693C371.642 202.494 381.346 197.802 391.534 198.146L399.867 198.427C414.294 198.914 426.93 208.237 431.653 221.877V221.877L491.245 240.045L490.069 242.407L431.599 224.602L432.103 237.219L425.617 239.679C423.205 240.594 420.532 240.541 418.158 239.532L411.773 236.817L413.481 226.63L410.63 218.396L397.5 215.752L398.3 213.383L409.548 215.99L401.366 210.718L393.473 209.881L389.311 210.821L387.026 212.138L397.547 213.368L396.747 215.737L384.35 214.13L379.745 218.468L375.738 230.655L372.115 230.372C366.98 229.97 362.211 227.48 358.93 223.509V223.509L358.971 221.465L363.865 221.562L363.475 222.236L364.498 223.753C365.496 225.233 366.951 226.346 368.641 226.923V226.923C370.701 227.625 372.935 226.495 373.59 224.419L374.382 221.903C377.234 212.856 385.847 206.886 395.32 207.39L399.544 207.615V207.615C410.645 210.162 418.059 220.646 416.761 231.962L416.547 233.826C416.41 235.023 417.136 236.151 418.283 236.522L419.297 236.85C421.017 237.406 422.855 237.485 424.616 237.079L425.582 236.857C427.402 236.437 428.653 234.764 428.542 232.9L428.482 231.908C427.49 215.351 414.46 202.051 397.927 200.719V200.719C384.814 199.662 372.308 206.427 366.017 217.98L364.248 221.229L358.978 221.125L363.643 213.721L329.028 211.962L289.038 215.316L286.52 216.138C281.252 217.858 276.644 221.164 273.327 225.603V225.603C272.204 227.105 272.242 229.176 273.417 230.637L275.473 233.191C278.39 236.815 282.142 239.678 286.408 241.535L332.715 261.695C343.261 266.286 354.44 269.254 365.874 270.5L425.293 276.972L489.836 275.039L514.12 266.243C515.492 265.746 516.936 266.78 516.907 268.239V268.239C516.891 269.085 516.363 269.837 515.572 270.14L491.153 279.489L440.96 281.461C430.463 281.874 419.95 281.487 409.512 280.303L366.193 275.391C354.489 274.064 343.061 270.931 332.316 266.104L278.35 241.858L270.46 235.558M274.622 241.418L278.939 250.25C280.341 253.118 282.681 255.421 285.572 256.777L319.995 272.923C337.212 280.998 355.761 285.858 374.727 287.261L420.263 290.631C425.179 290.995 430.117 290.972 435.029 290.561L504.143 284.785C507.148 284.534 509.99 283.309 512.236 281.297L516.673 277.324C519.982 274.36 521.912 270.153 521.999 265.711V265.711C522.08 261.636 519.833 257.871 516.208 256.007L490.438 242.755L491.622 240.052L519.29 253.651C523.192 255.569 525.823 259.369 526.246 263.696V263.696C526.806 269.433 524.707 275.11 520.551 279.103L516.954 282.559C513.815 285.575 509.754 287.448 505.422 287.878L435.664 294.801C430.272 295.336 424.845 295.404 419.442 295.004L375.834 291.777C356.093 290.316 336.81 285.111 319.015 276.441L282.927 258.857C280.48 257.664 278.433 255.784 277.038 253.446L269.729 241.198M274.622 241.418L269.729 241.198M274.622 241.418L270.46 235.558" stroke="#F6F6F6"/>
<path d="M16.525 32.7865L9.42027 31.3965C4.21628 30.3783 0.684463 25.5108 1.33081 20.2477C2.05174 14.3772 7.63796 10.3782 13.4274 11.5879L74.0752 24.2606L73.7199 28.8788L13.2441 16.3892C10.47 15.8163 7.71399 17.4426 6.87438 20.148C5.94053 23.1571 7.71844 26.3345 10.7715 27.1127L23.2747 30.2998L51.6946 239.896C62.1111 262.502 83.2372 278.321 107.861 281.952L132.788 285.628C141.204 286.869 149.756 286.869 158.172 285.628L183.801 281.848C207.84 278.303 228.237 262.365 237.489 239.896L266.975 33.497L278.835 29.0166C281.318 28.0786 282.961 25.7013 282.961 23.0469C282.961 19.0584 279.343 16.0473 275.421 16.7714L259.87 19.6424L196.991 31.0103L144.414 34.5628L74.0752 28.8788L74.4304 24.2606L144.414 28.5236L195.925 24.6158L259.87 15.3794L273.592 12.9357C279.959 11.8019 285.803 16.6975 285.803 23.1643C285.803 27.4632 283.155 31.3181 279.143 32.8613L271.948 35.6285L243.173 239.896C233.721 264.297 211.968 281.8 186.11 285.813L158.908 290.034C150.01 291.415 140.952 291.406 132.056 290.007L107.759 286.188C80.3674 281.882 56.7238 264.652 44.2343 239.896L16.525 32.7865Z" fill="#F6F6F6"/>
<path d="M44.2343 15.3794L32.8664 11.1164L111.145 3.88682C133.258 1.84456 155.528 2.23139 177.556 5.04039L250.278 14.3136L234.647 17.1556L172.267 10.5247C153.738 8.55502 135.067 8.29318 116.489 9.74248L44.2343 15.3794Z" fill="#F6F6F6"/>
<path d="M64.5124 235.655L36.7741 43.7992L39.5073 44.785C51.082 48.9594 59.238 59.4008 60.4859 71.6418L65.9045 124.796L64.1282 132.256L55.893 67.2894C55.0669 60.7719 50.5088 55.3382 44.2343 53.3909L67.4046 239.434C68.0292 244.449 70.868 248.921 75.1409 251.619L65.9045 154.281L68.3912 156.058L78.6934 259.79L78.122 259.336C70.7314 253.467 65.8628 244.996 64.5124 235.655Z" fill="#F6F6F6"/>
<path d="M86.2617 253.152L65.9045 51.6147L72.7108 53.1352C88.2492 56.6066 99.2978 70.3958 99.2978 86.3173V100.994L93.9691 111.296V90.9734C93.9691 77.6106 86.1415 65.4868 73.963 59.9868L71.9437 59.0749L88.8756 250.406C89.3989 256.319 92.6552 261.647 97.6782 264.809L99.2978 265.829L96.4558 188.385L99.2978 193.359L101.429 271.158L95.3901 267.534C90.2481 264.449 86.8644 259.118 86.2617 253.152Z" fill="#F6F6F6"/>
<path d="M110.582 59.1839L109.6 59.0749L107.661 254.256C107.549 265.567 115.349 275.421 126.384 277.907L132.691 279.329L137.309 209.345L132.691 213.608L129.139 273.645C119.39 272.223 112.215 263.779 112.387 253.928L115.639 67.2456C126.783 68.2406 135.189 77.7999 134.75 88.9795L132.691 141.492V205.792L135.888 195.845L137.309 141.492L139.889 93.7633C140.834 76.2893 127.974 61.1164 110.582 59.1839Z" fill="#F6F6F6"/>
<path d="M141.572 279.329L151.224 89.4051C151.999 74.1548 164.106 61.9199 179.347 60.9841L193.083 60.1406L181.005 146.111L176.031 146.821L185.623 67.2456C170.949 68.2646 159.26 79.9235 158.202 94.595L145.48 271.158C154.79 272.516 163.362 265.865 164.361 256.51L176.031 147.176L181.005 146.466L169.821 251.709C168.266 266.341 156.64 277.864 141.994 279.288L141.572 279.329Z" fill="#F6F6F6"/>
<path d="M224.528 54.2117L227.898 53.3909L234.292 50.5489L207.109 201.643C207 202.25 206.643 202.785 206.124 203.118C204.512 204.155 202.431 202.8 202.727 200.907L224.7 60.1406C213.36 62.9222 204.909 72.4084 203.451 83.9933L180.294 267.961L181.481 267.64C188.749 265.676 194.171 259.606 195.306 252.163L196.617 243.569C196.63 243.489 196.652 243.411 196.683 243.336L198.939 237.921C199.391 236.837 201.018 237.284 200.852 238.447L198.412 255.526C197.335 263.066 191.859 269.235 184.499 271.197L175.321 273.645L197.29 85.0241C199.032 70.0676 209.898 57.7753 224.528 54.2117Z" fill="#F6F6F6"/>
<path d="M206.938 257.659L236.958 67.4216C238.587 57.1012 245.967 48.6175 255.962 45.5755L241.397 134.032L236.068 146.821L250.278 51.9699C245.638 53.9586 242.351 58.1992 241.582 63.1889L212.977 248.777C217.969 245.374 221.354 240.078 222.348 234.118L225.766 213.608L231.095 200.108L225.824 234.633C224.658 242.272 220.273 249.046 213.781 253.239L206.938 257.659Z" fill="#F6F6F6"/>
<path d="M16.525 32.7865L9.42027 31.3965C4.21628 30.3783 0.684463 25.5108 1.33081 20.2477C2.05174 14.3772 7.63796 10.3782 13.4274 11.5879L74.0752 24.2606L73.7199 28.8788L13.2441 16.3892C10.47 15.8163 7.71399 17.4426 6.87438 20.148C5.94053 23.1571 7.71844 26.3345 10.7715 27.1127L23.2747 30.2998L51.6946 239.896C62.1111 262.502 83.2372 278.321 107.861 281.952L132.788 285.628C141.204 286.869 149.756 286.869 158.172 285.628L183.801 281.848C207.84 278.303 228.237 262.365 237.489 239.896L266.975 33.497L278.835 29.0166C281.318 28.0786 282.961 25.7013 282.961 23.0469C282.961 19.0584 279.343 16.0473 275.421 16.7714L259.87 19.6424L196.991 31.0103L144.414 34.5628L74.0752 28.8788L74.4304 24.2606L144.414 28.5236L195.925 24.6158L259.87 15.3794L273.592 12.9357C279.959 11.8019 285.803 16.6975 285.803 23.1643C285.803 27.4632 283.155 31.3181 279.143 32.8613L271.948 35.6285L243.173 239.896C233.721 264.297 211.968 281.8 186.11 285.813L158.908 290.034C150.01 291.415 140.952 291.406 132.056 290.007L107.759 286.188C80.3674 281.882 56.7238 264.652 44.2343 239.896L16.525 32.7865Z" stroke="#F6F6F6"/>
<path d="M44.2343 15.3794L32.8664 11.1164L111.145 3.88682C133.258 1.84456 155.528 2.23139 177.556 5.04039L250.278 14.3136L234.647 17.1556L172.267 10.5247C153.738 8.55502 135.067 8.29318 116.489 9.74248L44.2343 15.3794Z" stroke="#F6F6F6"/>
<path d="M64.5124 235.655L36.7741 43.7992L39.5073 44.785C51.082 48.9594 59.238 59.4008 60.4859 71.6418L65.9045 124.796L64.1282 132.256L55.893 67.2894C55.0669 60.7719 50.5088 55.3382 44.2343 53.3909L67.4046 239.434C68.0292 244.449 70.868 248.921 75.1409 251.619L65.9045 154.281L68.3912 156.058L78.6934 259.79L78.122 259.336C70.7314 253.467 65.8628 244.996 64.5124 235.655Z" stroke="#F6F6F6"/>
<path d="M86.2617 253.152L65.9045 51.6147L72.7108 53.1352C88.2492 56.6066 99.2978 70.3958 99.2978 86.3173V100.994L93.9691 111.296V90.9734C93.9691 77.6106 86.1415 65.4868 73.963 59.9868L71.9437 59.0749L88.8756 250.406C89.3989 256.319 92.6552 261.647 97.6782 264.809L99.2978 265.829L96.4558 188.385L99.2978 193.359L101.429 271.158L95.3901 267.534C90.2481 264.449 86.8644 259.118 86.2617 253.152Z" stroke="#F6F6F6"/>
<path d="M110.582 59.1839L109.6 59.0749L107.661 254.256C107.549 265.567 115.349 275.421 126.384 277.907L132.691 279.329L137.309 209.345L132.691 213.608L129.139 273.645C119.39 272.223 112.215 263.779 112.387 253.928L115.639 67.2456C126.783 68.2406 135.189 77.7999 134.75 88.9795L132.691 141.492V205.792L135.888 195.845L137.309 141.492L139.889 93.7633C140.834 76.2893 127.974 61.1164 110.582 59.1839Z" stroke="#F6F6F6"/>
<path d="M141.572 279.329L151.224 89.4051C151.999 74.1548 164.106 61.9199 179.347 60.9841L193.083 60.1406L181.005 146.111L176.031 146.821L185.623 67.2456C170.949 68.2646 159.26 79.9235 158.202 94.595L145.48 271.158C154.79 272.516 163.362 265.865 164.361 256.51L176.031 147.176L181.005 146.466L169.821 251.709C168.266 266.341 156.64 277.864 141.994 279.288L141.572 279.329Z" stroke="#F6F6F6"/>
<path d="M224.528 54.2117L227.898 53.3909L234.292 50.5489L207.109 201.643C207 202.25 206.643 202.785 206.124 203.118C204.512 204.155 202.431 202.8 202.727 200.907L224.7 60.1406C213.36 62.9222 204.909 72.4084 203.451 83.9933L180.294 267.961L181.481 267.64C188.749 265.676 194.171 259.606 195.306 252.163L196.617 243.569C196.63 243.489 196.652 243.411 196.683 243.336L198.939 237.921C199.391 236.837 201.018 237.284 200.852 238.447L198.412 255.526C197.335 263.066 191.859 269.235 184.499 271.197L175.321 273.645L197.29 85.0241C199.032 70.0676 209.898 57.7753 224.528 54.2117Z" stroke="#F6F6F6"/>
<path d="M206.938 257.659L236.958 67.4216C238.587 57.1012 245.967 48.6175 255.962 45.5755L241.397 134.032L236.068 146.821L250.278 51.9699C245.638 53.9586 242.351 58.1992 241.582 63.1889L212.977 248.777C217.969 245.374 221.354 240.078 222.348 234.118L225.766 213.608L231.095 200.108L225.824 234.633C224.658 242.272 220.273 249.046 213.781 253.239L206.938 257.659Z" stroke="#F6F6F6"/>
</svg>
