<svg width="144" height="146" viewBox="0 0 144 146" fill="none" xmlns="http://www.w3.org/2000/svg">
<path d="M117.5 14.5L120 9L122 14.5H126.5V10H126.184C125.772 10 125.402 9.74682 125.252 9.36245L122.496 2.27511C122.197 1.50636 121.457 1 120.632 1H119.368C118.543 1 117.803 1.50636 117.504 2.27511L114.748 9.36245C114.598 9.74682 114.228 10 113.816 10H106.854C106.036 10 105.301 10.4979 104.997 11.2572L104.076 13.561C103.737 14.408 104.014 15.377 104.75 15.9166L110.443 20.0915C110.778 20.3374 110.926 20.765 110.815 21.1656L108.875 28.151C108.65 28.961 108.955 29.8252 109.639 30.3138L110.912 31.2226C111.57 31.6931 112.448 31.7202 113.134 31.2912L119.486 27.3214C119.802 27.1239 120.201 27.1185 120.523 27.3075L127.42 31.3644C128.08 31.7531 128.905 31.7299 129.543 31.3047L130.312 30.7921C131.023 30.3182 131.354 29.4452 131.137 28.619L129.168 21.1402C129.066 20.7521 129.206 20.3405 129.524 20.0949L135.653 15.3518C136.315 14.8398 136.588 13.9702 136.337 13.1719L135.913 11.8173C135.664 11.0244 134.951 10.4677 134.122 10.4189L127 10V14.5H128.5L124 19L125 25L120 21.5L115 25L116 19L111.5 14.5H117.5Z" fill="#052F45"/>
<path d="M1.5 127V98C1.5 96.8954 2.39543 96 3.5 96H19C20.1046 96 21 96.8954 21 98V127C21 128.105 20.1046 129 19 129H12V124H14C15.1046 124 16 123.105 16 122V103C16 101.895 15.1046 101 14 101H8.5C7.39543 101 6.5 101.895 6.5 103V122C6.5 123.105 7.39543 124 8.5 124H11.5V129H3.5C2.39543 129 1.5 128.105 1.5 127Z" fill="#052F45"/>
<path d="M29 127V84C29 82.8954 29.8954 82 31 82H46C47.1046 82 48 82.8954 48 84V127C48 128.105 47.1046 129 46 129H40V124H41.5C42.6046 124 43.5 123.105 43.5 122V88C43.5 86.8954 42.6046 86 41.5 86H36C34.8954 86 34 86.8954 34 88V122C34 123.105 34.8954 124 36 124H39V129H31C29.8954 129 29 128.105 29 127Z" fill="#052F45"/>
<path d="M56 127V68.5C56 67.3954 56.8954 66.5 58 66.5H73.5C74.6046 66.5 75.5 67.3954 75.5 68.5V127C75.5 128.105 74.6046 129 73.5 129H66.5V124H68.5C69.6046 124 70.5 123.105 70.5 122V73C70.5 71.8954 69.6046 71 68.5 71H63C61.8954 71 61 71.8954 61 73V122C61 123.105 61.8954 124 63 124H66V129H58C56.8954 129 56 128.105 56 127Z" fill="#052F45"/>
<path d="M0.793552 85.6161L0.698071 85.3615C0.311865 84.3316 0.829765 83.1832 1.85733 82.7908L15.1606 77.7114C23.3758 74.5747 31.3501 70.8402 39.0195 66.5378L48 61.5L72 47L94 30L88.367 29.6245C87.3164 29.5544 86.5 28.6818 86.5 27.6289V27.3038C86.5 26.2789 87.2747 25.4199 88.2942 25.3144L100.053 24.098C100.652 24.036 101.247 24.2473 101.673 24.6731L102.305 25.3048C102.743 25.7432 102.954 26.3601 102.874 26.975L101.249 39.5725C101.11 40.6458 100.143 41.4143 99.0661 41.3066L97.9253 41.1925C96.8518 41.0852 96.0569 40.1458 96.1287 39.0694L96.5 33.5L75.5 50.5L51 65.5L29 77L3.37961 86.7823C2.34335 87.178 1.18303 86.6547 0.793552 85.6161Z" fill="#052F45"/>
<path d="M83.5 54.5V103.5L78.8359 106.609C78.0013 107.166 77.5 108.102 77.5 109.106V112.5H82V112.079C82 110.828 82.7757 109.709 83.9466 109.27L84.8623 108.927C85.592 108.653 86.1865 108.106 86.5201 107.402L89.84 100.393C90.2542 99.5188 90.2212 98.4981 89.7512 97.6522L89.177 96.6187C88.4904 95.3827 88.7599 93.8351 89.824 92.904L90.7064 92.1319C91.5077 91.4307 92.6206 91.2069 93.6306 91.5435L95.4411 92.147C96.1242 92.3747 96.8663 92.3492 97.5321 92.075L103.961 89.4277C104.631 89.1519 105.178 88.6431 105.502 87.9953L106.575 85.8492C107.132 84.7358 108.319 84.0819 109.557 84.2057L110.855 84.3355C111.879 84.4379 112.779 85.0583 113.239 85.9789L114.019 87.5373C114.33 88.1597 114.848 88.6545 115.484 88.9371L122.343 91.9858C123.083 92.3146 123.924 92.3304 124.676 92.0298L126.794 91.1826C127.841 90.7637 129.034 90.9676 129.883 91.7103L130.676 92.404C131.74 93.3351 132.01 94.8827 131.323 96.1187L130.673 97.2879C130.246 98.0569 130.178 98.9746 130.487 99.7982L132.586 105.397C132.852 106.106 133.376 106.688 134.054 107.027L137.342 108.671C138.358 109.179 139 110.218 139 111.354V112.838C139 114.129 138.174 115.275 136.949 115.684L135.679 116.107C134.924 116.359 134.3 116.9 133.944 117.611L130.671 124.158C130.249 125.003 130.249 125.997 130.671 126.842L131.533 128.566C132.11 129.721 131.884 131.116 130.971 132.029L130.029 132.971C129.116 133.884 127.721 134.11 126.566 133.533L125.705 133.102C124.939 132.719 124.045 132.682 123.249 133L115.73 136.008C114.946 136.321 114.331 136.95 114.035 137.74L113.73 138.553C113.291 139.724 112.172 140.5 110.921 140.5H109.842C108.466 140.5 107.266 139.563 106.932 138.228L106.872 137.988C106.638 137.054 105.97 136.288 105.076 135.93L97.6756 132.97C96.924 132.67 96.0827 132.685 95.343 133.014L93.8828 133.663C92.7485 134.167 91.4208 133.921 90.5431 133.043L89.529 132.029C88.6159 131.116 88.3895 129.721 88.967 128.566L89.3975 127.705C89.7807 126.939 89.8179 126.045 89.4997 125.249L86.5465 117.866C86.2018 117.004 85.4776 116.351 84.5852 116.096L84.2588 116.003C83.1787 115.694 82.3616 114.808 82.1413 113.706L82 113H77.5V115.146C77.5 116.282 78.142 117.321 79.1584 117.829L81.4463 118.973C82.1236 119.312 82.6478 119.894 82.9137 120.603L85.111 126.463C85.362 127.132 85.3657 127.869 85.1214 128.541L84.1799 131.13C83.7678 132.263 84.0743 133.533 84.958 134.354L88.9047 138.019C89.8562 138.902 91.268 139.073 92.403 138.443L93.7879 137.673C94.5569 137.246 95.4746 137.178 96.2982 137.487L101.607 139.478C102.485 139.807 103.158 140.527 103.427 141.425L103.859 142.862C104.239 144.131 105.407 145 106.732 145H113.969C115.196 145 116.299 144.253 116.754 143.114L117.467 141.331C117.804 140.489 118.504 139.845 119.371 139.578L123.629 138.268C124.197 138.093 124.804 138.091 125.373 138.262L127.846 139.004C128.87 139.311 129.98 139.05 130.76 138.319L136.056 133.354C136.932 132.533 137.234 131.268 136.824 130.14L135.857 127.482C135.626 126.846 135.616 126.151 135.831 125.508L137.026 121.923C137.324 121.027 138.027 120.324 138.923 120.026L141.449 119.184C142.674 118.775 143.5 117.629 143.5 116.338V109.601C143.5 108.34 142.711 107.213 141.525 106.782L139.168 105.925C138.42 105.653 137.811 105.095 137.475 104.374L135.214 99.5289C134.77 98.5796 134.855 97.4678 135.436 96.5962L136.177 95.4839C136.952 94.3224 136.823 92.7803 135.866 91.7637L129.5 85L129.978 41.0217C129.99 39.9087 129.091 39 127.978 39H112.5C111.395 39 110.5 39.8954 110.5 41V49.5H115.5V45C115.5 43.8954 116.395 43 117.5 43H123C124.105 43 125 43.8954 125 45V87.5L119.135 85.4054C118.407 85.1452 117.807 84.6137 117.461 83.9218L115.5 80V50.5H110.5V79.5H106.88C106.004 79.5 105.172 79.8827 104.602 80.5476L102.5 83V66.5H98V86.5L97.7629 86.6581C96.9689 87.1874 95.9704 87.3074 95.0736 86.9813L92.7956 86.1529C91.7002 85.7546 90.4732 86.0268 89.649 86.851L88 88.5V59C88 57.8954 88.8954 57 90 57H96C97.1046 57 98 57.8954 98 59V65.5H102.5V54.5C102.5 53.3954 101.605 52.5 100.5 52.5H85.5C84.3954 52.5 83.5 53.3954 83.5 54.5Z" fill="#052F45"/>
<path d="M110.824 129H109.75C100.775 129 93.5 121.725 93.5 112.75C93.5 103.775 100.775 96.5 109.75 96.5H111.084C119.874 96.5 127 103.626 127 112.416C127 112.462 126.962 112.5 126.916 112.5H122.06C122.027 112.5 122 112.473 122 112.44C122 106.122 116.878 101 110.56 101H109.5C103.149 101 98 106.149 98 112.5C98 118.851 103.149 124 109.5 124H110.642C116.915 124 122 118.915 122 112.642C122 112.609 122.027 112.582 122.061 112.582L126.832 112.654C126.925 112.655 127 112.731 127 112.824C127 121.758 119.758 129 110.824 129Z" fill="#052F45"/>
<path d="M117.5 14.5L120 9L122 14.5H126.5V10H126.184C125.772 10 125.402 9.74682 125.252 9.36245L122.496 2.27511C122.197 1.50636 121.457 1 120.632 1H119.368C118.543 1 117.803 1.50636 117.504 2.27511L114.748 9.36245C114.598 9.74682 114.228 10 113.816 10H106.854C106.036 10 105.301 10.4979 104.997 11.2572L104.076 13.561C103.737 14.408 104.014 15.377 104.75 15.9166L110.443 20.0915C110.778 20.3374 110.926 20.765 110.815 21.1656L108.875 28.151C108.65 28.961 108.955 29.8252 109.639 30.3138L110.912 31.2226C111.57 31.6931 112.448 31.7202 113.134 31.2912L119.486 27.3214C119.802 27.1239 120.201 27.1185 120.523 27.3075L127.42 31.3644C128.08 31.7531 128.905 31.7299 129.543 31.3047L130.312 30.7921C131.023 30.3182 131.354 29.4452 131.137 28.619L129.168 21.1402C129.066 20.7521 129.206 20.3405 129.524 20.0949L135.653 15.3518C136.315 14.8398 136.588 13.9702 136.337 13.1719L135.913 11.8173C135.664 11.0244 134.951 10.4677 134.122 10.4189L127 10V14.5H128.5L124 19L125 25L120 21.5L115 25L116 19L111.5 14.5H117.5Z" stroke="black"/>
<path d="M1.5 127V98C1.5 96.8954 2.39543 96 3.5 96H19C20.1046 96 21 96.8954 21 98V127C21 128.105 20.1046 129 19 129H12V124H14C15.1046 124 16 123.105 16 122V103C16 101.895 15.1046 101 14 101H8.5C7.39543 101 6.5 101.895 6.5 103V122C6.5 123.105 7.39543 124 8.5 124H11.5V129H3.5C2.39543 129 1.5 128.105 1.5 127Z" stroke="black"/>
<path d="M29 127V84C29 82.8954 29.8954 82 31 82H46C47.1046 82 48 82.8954 48 84V127C48 128.105 47.1046 129 46 129H40V124H41.5C42.6046 124 43.5 123.105 43.5 122V88C43.5 86.8954 42.6046 86 41.5 86H36C34.8954 86 34 86.8954 34 88V122C34 123.105 34.8954 124 36 124H39V129H31C29.8954 129 29 128.105 29 127Z" stroke="black"/>
<path d="M56 127V68.5C56 67.3954 56.8954 66.5 58 66.5H73.5C74.6046 66.5 75.5 67.3954 75.5 68.5V127C75.5 128.105 74.6046 129 73.5 129H66.5V124H68.5C69.6046 124 70.5 123.105 70.5 122V73C70.5 71.8954 69.6046 71 68.5 71H63C61.8954 71 61 71.8954 61 73V122C61 123.105 61.8954 124 63 124H66V129H58C56.8954 129 56 128.105 56 127Z" stroke="black"/>
<path d="M0.793552 85.6161L0.698071 85.3615C0.311865 84.3316 0.829765 83.1832 1.85733 82.7908L15.1606 77.7114C23.3758 74.5747 31.3501 70.8402 39.0195 66.5378L48 61.5L72 47L94 30L88.367 29.6245C87.3164 29.5544 86.5 28.6818 86.5 27.6289V27.3038C86.5 26.2789 87.2747 25.4199 88.2942 25.3144L100.053 24.098C100.652 24.036 101.247 24.2473 101.673 24.6731L102.305 25.3048C102.743 25.7432 102.954 26.3601 102.874 26.975L101.249 39.5725C101.11 40.6458 100.143 41.4143 99.0661 41.3066L97.9253 41.1925C96.8518 41.0852 96.0569 40.1458 96.1287 39.0694L96.5 33.5L75.5 50.5L51 65.5L29 77L3.37961 86.7823C2.34335 87.178 1.18303 86.6547 0.793552 85.6161Z" stroke="black"/>
<path d="M83.5 54.5V103.5L78.8359 106.609C78.0013 107.166 77.5 108.102 77.5 109.106V112.5H82V112.079C82 110.828 82.7757 109.709 83.9466 109.27L84.8623 108.927C85.592 108.653 86.1865 108.106 86.5201 107.402L89.84 100.393C90.2542 99.5188 90.2212 98.4981 89.7512 97.6522L89.177 96.6187C88.4904 95.3827 88.7599 93.8351 89.824 92.904L90.7064 92.1319C91.5077 91.4307 92.6206 91.2069 93.6306 91.5435L95.4411 92.147C96.1242 92.3747 96.8663 92.3492 97.5321 92.075L103.961 89.4277C104.631 89.1519 105.178 88.6431 105.502 87.9953L106.575 85.8492C107.132 84.7358 108.319 84.0819 109.557 84.2057L110.855 84.3355C111.879 84.4379 112.779 85.0583 113.239 85.9789L114.019 87.5373C114.33 88.1597 114.848 88.6545 115.484 88.9371L122.343 91.9858C123.083 92.3146 123.924 92.3304 124.676 92.0298L126.794 91.1826C127.841 90.7637 129.034 90.9676 129.883 91.7103L130.676 92.404C131.74 93.3351 132.01 94.8827 131.323 96.1187L130.673 97.2879C130.246 98.0569 130.178 98.9746 130.487 99.7982L132.586 105.397C132.852 106.106 133.376 106.688 134.054 107.027L137.342 108.671C138.358 109.179 139 110.218 139 111.354V112.838C139 114.129 138.174 115.275 136.949 115.684L135.679 116.107C134.924 116.359 134.3 116.9 133.944 117.611L130.671 124.158C130.249 125.003 130.249 125.997 130.671 126.842L131.533 128.566C132.11 129.721 131.884 131.116 130.971 132.029L130.029 132.971C129.116 133.884 127.721 134.11 126.566 133.533L125.705 133.102C124.939 132.719 124.045 132.682 123.249 133L115.73 136.008C114.946 136.321 114.331 136.95 114.035 137.74L113.73 138.553C113.291 139.724 112.172 140.5 110.921 140.5H109.842C108.466 140.5 107.266 139.563 106.932 138.228L106.872 137.988C106.638 137.054 105.97 136.288 105.076 135.93L97.6756 132.97C96.924 132.67 96.0827 132.685 95.343 133.014L93.8828 133.663C92.7485 134.167 91.4208 133.921 90.5431 133.043L89.529 132.029C88.6159 131.116 88.3895 129.721 88.967 128.566L89.3975 127.705C89.7807 126.939 89.8179 126.045 89.4997 125.249L86.5465 117.866C86.2018 117.004 85.4776 116.351 84.5852 116.096L84.2588 116.003C83.1787 115.694 82.3616 114.808 82.1413 113.706L82 113H77.5V115.146C77.5 116.282 78.142 117.321 79.1584 117.829L81.4463 118.973C82.1236 119.312 82.6478 119.894 82.9137 120.603L85.111 126.463C85.362 127.132 85.3657 127.869 85.1214 128.541L84.1799 131.13C83.7678 132.263 84.0743 133.533 84.958 134.354L88.9047 138.019C89.8562 138.902 91.268 139.073 92.403 138.443L93.7879 137.673C94.5569 137.246 95.4746 137.178 96.2982 137.487L101.607 139.478C102.485 139.807 103.158 140.527 103.427 141.425L103.859 142.862C104.239 144.131 105.407 145 106.732 145H113.969C115.196 145 116.299 144.253 116.754 143.114L117.467 141.331C117.804 140.489 118.504 139.845 119.371 139.578L123.629 138.268C124.197 138.093 124.804 138.091 125.373 138.262L127.846 139.004C128.87 139.311 129.98 139.05 130.76 138.319L136.056 133.354C136.932 132.533 137.234 131.268 136.824 130.14L135.857 127.482C135.626 126.846 135.616 126.151 135.831 125.508L137.026 121.923C137.324 121.027 138.027 120.324 138.923 120.026L141.449 119.184C142.674 118.775 143.5 117.629 143.5 116.338V109.601C143.5 108.34 142.711 107.213 141.525 106.782L139.168 105.925C138.42 105.653 137.811 105.095 137.475 104.374L135.214 99.5289C134.77 98.5796 134.855 97.4678 135.436 96.5962L136.177 95.4839C136.952 94.3224 136.823 92.7803 135.866 91.7637L129.5 85L129.978 41.0217C129.99 39.9087 129.091 39 127.978 39H112.5C111.395 39 110.5 39.8954 110.5 41V49.5H115.5V45C115.5 43.8954 116.395 43 117.5 43H123C124.105 43 125 43.8954 125 45V87.5L119.135 85.4054C118.407 85.1452 117.807 84.6137 117.461 83.9218L115.5 80V50.5H110.5V79.5H106.88C106.004 79.5 105.172 79.8827 104.602 80.5476L102.5 83V66.5H98V86.5L97.7629 86.6581C96.9689 87.1874 95.9704 87.3074 95.0736 86.9813L92.7956 86.1529C91.7002 85.7546 90.4732 86.0268 89.649 86.851L88 88.5V59C88 57.8954 88.8954 57 90 57H96C97.1046 57 98 57.8954 98 59V65.5H102.5V54.5C102.5 53.3954 101.605 52.5 100.5 52.5H85.5C84.3954 52.5 83.5 53.3954 83.5 54.5Z" stroke="black"/>
<path d="M110.824 129H109.75C100.775 129 93.5 121.725 93.5 112.75C93.5 103.775 100.775 96.5 109.75 96.5H111.084C119.874 96.5 127 103.626 127 112.416C127 112.462 126.962 112.5 126.916 112.5H122.06C122.027 112.5 122 112.473 122 112.44C122 106.122 116.878 101 110.56 101H109.5C103.149 101 98 106.149 98 112.5C98 118.851 103.149 124 109.5 124H110.642C116.915 124 122 118.915 122 112.642C122 112.609 122.027 112.582 122.061 112.582L126.832 112.654C126.925 112.655 127 112.731 127 112.824C127 121.758 119.758 129 110.824 129Z" stroke="black"/>
</svg>
