<svg width="112" height="91" viewBox="0 0 112 91" fill="none" xmlns="http://www.w3.org/2000/svg">
<path d="M14 76.5H18.5M21.5 76.5H35M9 26.5H26.6046C26.8586 26.5 27.1031 26.5967 27.2885 26.7705L34.7115 33.7295C34.8969 33.9033 35.1414 34 35.3954 34H40.5M9 26.5H3C2.44772 26.5 2 26.9477 2 27.5V81C2 85.4183 5.58172 89 10 89H71C73.7614 89 76 86.7614 76 84V81.5M9 26.5V20.5C9 19.9477 9.44772 19.5 10 19.5H31.1024C31.3578 19.5 31.6034 19.5977 31.789 19.773L40.5 28M40.5 28V34M40.5 28V15.5C40.5 14.9477 40.9477 14.5 41.5 14.5H57M40.5 34H68C72.4183 34 76 37.5817 76 42V81.5M76 81.5H91.5C92.0523 81.5 92.5 81.0523 92.5 80.5V70M45.5 28H87.5M45.5 21H49M52.5 21H66M57 14.5H91.5C92.0523 14.5 92.5 14.9477 92.5 15.5V70M57 14.5V3.5C57 2.94772 57.4477 2.5 58 2.5H108.5C109.052 2.5 109.5 2.94772 109.5 3.5V69C109.5 69.5523 109.052 70 108.5 70H92.5M40.5 72.5V80.5C40.5 81.0523 40.0523 81.5 39.5 81.5H10C9.44772 81.5 9 81.0523 9 80.5V72.5C9 71.9477 9.44772 71.5 10 71.5H39.5C40.0523 71.5 40.5 71.9477 40.5 72.5Z" stroke="#052F45" stroke-width="4"/>
</svg>
