<svg width="111" height="110" viewBox="0 0 111 110" fill="none" xmlns="http://www.w3.org/2000/svg">
<path d="M88 109H64C62.8954 109 62 108.105 62 107C62 105.895 62.8954 105 64 105H74.5V93.5H79V105H86.5V94.9384C86.5 93.9866 86.3364 93.0418 86.0162 92.1454L85.2701 90.0564C84.4365 87.7221 83.0354 85.6319 81.1931 83.9738C79.745 82.6705 78.0561 81.6629 76.2214 81.0077L72 79.5L73.5 75.5L79 77.5L78 75L82.5 74.5L84 78L87.5 70V67.5H80.5V69.5L82 74L78 74.5L77 72.5L74.5 73L72 69.5L76.5 68.5V66L72 62L70.1109 64.4288C69.0426 65.8024 67.7808 67.0137 66.3649 68.0251L65 69V71.5L71.5 69.5L74 73L69.5 74.5L73 75.5L71.5 79.5L64 78L61 85L57.5 82L60.5 75.5V70.7232L58 71.5H55.5V67.5L60.5 66.5L62.6381 65.1394C64.8575 63.727 66.7766 61.8906 68.2852 59.7354L69.5 58L70 47.5L61.5 42.5C58.9086 45.0914 55.5221 46.7374 51.8834 47.174L45 48V43.5L50.6208 43.219C53.3952 43.0802 55.9641 41.7145 57.6308 39.4922L58.5747 38.2337C59.1572 37.4571 60.0713 37 61.0421 37C61.666 37 62.2752 37.1892 62.7894 37.5427L70 42.5L69.9557 41.8351C69.4179 33.7683 62.7178 27.5 54.6331 27.5C47.3145 27.5 41.3184 33.3116 41.0898 40.6267L41 43.5H44.5V48H41.5V52H37V48L33.0591 49.4075C31.0298 50.1322 28.9087 50.5682 26.758 50.7026L22 51V46.5L26.7117 46.252C29.8699 46.0858 32.96 45.27 35.7887 43.8556L36.5 43.5C35.3236 39.3825 31.5034 36.5881 27.223 36.714L26 36.75C21.2657 36.8892 17.5 40.7673 17.5 45.5037V46.5H21.5V51H18V53.9011C18 55.9096 18.6695 57.8607 19.9025 59.4461C20.9463 60.7881 22.3476 61.8082 23.9453 62.3892L24.0412 62.4241C25.9612 63.1222 28.0565 63.1749 30.0091 62.5741L30.4289 62.445C32.4152 61.8338 34.1296 60.5556 35.2824 58.8265C36.0825 57.6263 36.5831 56.2519 36.7424 54.8183L37 52.5H41.5V58L42.976 60.1086C44.315 62.0214 45.9786 63.685 47.8914 65.024L50 66.5L55 67.5V71.5L50 70.7232V72.5L46 70V68.5L41.5 65L39 61.5L37 63.5L34.5 65.5V68.5L40 69.5L38 73.5L34 72.5L32.5 77L41.5 74.5L38.5 73.5L40.5 69.5L46 72V70.5L50 73V75L55.5 86.5L57.5 82.5L61 85.5L58.1447 92.8423C57.756 93.8417 56.7937 94.5 55.7213 94.5C54.6778 94.5 53.7353 93.8761 53.3277 92.9154L47 78L36.5355 80.8868C33.8806 81.6191 31.4295 82.9515 29.3712 84.7812C28.4624 85.589 27.6817 86.5305 27.0561 87.5732L26.9323 87.7795C25.6679 89.8868 25 92.2982 25 94.7557V105H32V95.75C32 94.5074 33.0074 93.5 34.25 93.5C35.4926 93.5 36.5 94.5074 36.5 95.75V105H46C47.1046 105 48 105.895 48 107C48 108.105 47.1046 109 46 109H23.5C21.8431 109 20.5 107.657 20.5 106V101H16V96.5H20L21.5955 89.7989C22.1904 87.3002 23.3557 84.9732 25 83L21 73L17.2478 73.3631C10.5842 74.008 5.5 79.608 5.5 86.3027V96.5H9.5V86.75C9.5 85.5074 10.5074 84.5 11.75 84.5C12.9926 84.5 14 85.5074 14 86.75V96.5H15.5V101H4.44872C2.81203 101 1.47738 99.6882 1.44917 98.0517L1.23549 85.6584C1.09985 77.7914 6.70413 70.9934 14.4525 69.626L18 69L20 68L24 69V70L27 78L31 67.5H24V68.5L20 67.5V66.5C16.2341 63.9894 13.9105 59.8164 13.7598 55.2929L13.4659 46.4762C13.2085 38.7548 19.2545 32.2843 26.9756 32.0181L27.5 32L29.5127 32.1438C32.6805 32.37 35.5945 33.9593 37.5 36.5L38.9981 32.9046C41.15 27.74 45.9974 24.2023 51.5722 23.7279L55.0623 23.4309C61.7387 22.8627 68.1428 26.2012 71.5 32L73 37C75.1936 33.8663 78.7781 32 82.6033 32H84V36H83.6485C79.2012 36 75.3722 39.1391 74.5 43.5L79.5 45.5V50L74.5 47.5V55C74.5 59.4183 78.0817 63 82.5 63H85.5C89.9183 63 93.5 59.4183 93.5 55V51H85.5L80 50V46L84 46.5H93.5V45C93.5 40.0294 89.4706 36 84.5 36V32C91.6797 32 97.5 37.8203 97.5 45V55.7918C97.5 59.903 95.1772 63.6614 91.5 65.5V68.5L94.7444 68.8605C103.197 69.7996 109.655 76.8402 109.862 85.342L110 91H105L105.172 85.6602C105.361 79.7972 101.284 74.6568 95.5319 73.5064L90.5 72.5L86.5 83C88.4529 85.2784 89.6601 88.1009 89.9587 91.0869L90.5 96.5H96.5V87.25C96.5 86.0074 97.5074 85 98.75 85C99.9926 85 101 86.0074 101 87.25V96.5H105V91.5H110V97C110 99.2091 108.209 101 106 101H91V106C91 107.657 89.6569 109 88 109Z" fill="#052F45"/>
<path d="M63 54H62.5C61.3954 54 60.5 53.1046 60.5 52C60.5 50.8954 61.3954 50 62.5 50H63C64.1046 50 65 50.8954 65 52C65 53.1046 64.1046 54 63 54Z" fill="#052F45"/>
<path d="M51.7541 57.7459L51.6648 57.8352C50.9802 58.5198 50.8494 59.5824 51.3475 60.4125L51.4962 60.6604C51.8199 61.1999 52.3366 61.5962 52.9415 61.769L53.9624 62.0607C54.964 62.3469 56.0288 62.3237 57.0171 61.9943L57.8594 61.7135C58.2807 61.5731 58.6635 61.3365 58.9775 61.0225L59.6262 60.3738C60.3849 59.6151 60.3849 58.3849 59.6262 57.6262C58.9714 56.9714 57.9453 56.8698 57.1748 57.3835L56.6978 57.7015C55.9844 58.177 55.0454 58.1363 54.3759 57.6007C53.5926 56.9741 52.4634 57.0366 51.7541 57.7459Z" fill="#052F45"/>
<path d="M53.5 16.75V11.25C53.5 10.0074 54.5074 9 55.75 9C56.9926 9 58 10.0074 58 11.25V16.75C58 17.9926 56.9926 19 55.75 19C54.5074 19 53.5 17.9926 53.5 16.75Z" fill="#052F45"/>
<path d="M45.2742 12.2742L42.2772 9.27716C41.5718 8.57181 41.5718 7.4282 42.2772 6.72284C42.9609 6.03906 44.062 6.01513 44.7748 6.66857L47.8992 9.5326C48.7464 10.3092 48.7146 11.6545 47.8317 12.3902C47.0775 13.0187 45.9684 12.9684 45.2742 12.2742Z" fill="#052F45"/>
<path d="M69.0242 8.97579L65.7772 12.2228C65.0718 12.9282 63.9282 12.9282 63.2228 12.2228C62.5391 11.5391 62.5151 10.438 63.1686 9.7252L66.2715 6.34018C66.9592 5.59 68.1149 5.51239 68.8967 6.16388C69.7577 6.88138 69.8167 8.18329 69.0242 8.97579Z" fill="#052F45"/>
<path d="M91 10V8.5C91 7.39543 91.8954 6.5 93 6.5C94.1046 6.5 95 7.39543 95 8.5V10C95 11.1046 94.1046 12 93 12C91.8954 12 91 11.1046 91 10Z" fill="#052F45"/>
<path d="M89 16.5H87.5C86.3954 16.5 85.5 15.6046 85.5 14.5C85.5 13.3954 86.3954 12.5 87.5 12.5H89C90.1046 12.5 91 13.3954 91 14.5C91 15.6046 90.1046 16.5 89 16.5Z" fill="#052F45"/>
<path d="M91 20.5V19C91 17.8954 91.8954 17 93 17C94.1046 17 95 17.8954 95 19V20.5C95 21.6046 94.1046 22.5 93 22.5C91.8954 22.5 91 21.6046 91 20.5Z" fill="#052F45"/>
<path d="M99.5 16.5H97.5C96.3954 16.5 95.5 15.6046 95.5 14.5C95.5 13.3954 96.3954 12.5 97.5 12.5H99.5C100.605 12.5 101.5 13.3954 101.5 14.5C101.5 15.6046 100.605 16.5 99.5 16.5Z" fill="#052F45"/>
<path d="M15.5 10.25V8.75C15.5 7.50736 16.5074 6.5 17.75 6.5C18.9926 6.5 20 7.50736 20 8.75V10.25C20 11.4926 18.9926 12.5 17.75 12.5C16.5074 12.5 15.5 11.4926 15.5 10.25Z" fill="#052F45"/>
<path d="M16 20.5V19C16 17.8954 16.8954 17 18 17C19.1046 17 20 17.8954 20 19V20.5C20 21.6046 19.1046 22.5 18 22.5C16.8954 22.5 16 21.6046 16 20.5Z" fill="#052F45"/>
<path d="M24.25 16.5H21.75C20.7835 16.5 20 15.7165 20 14.75C20 13.7835 20.7835 13 21.75 13H24.25C25.2165 13 26 13.7835 26 14.75C26 15.7165 25.2165 16.5 24.25 16.5Z" fill="#052F45"/>
<path d="M11.25 16.5H13.75C14.7165 16.5 15.5 15.7165 15.5 14.75C15.5 13.7835 14.7165 13 13.75 13H11.25C10.2835 13 9.5 13.7835 9.5 14.75C9.5 15.7165 10.2835 16.5 11.25 16.5Z" fill="#052F45"/>
<path d="M55.75 5.5C54.5074 5.5 53.5 4.49264 53.5 3.25C53.5 2.00736 54.5074 1 55.75 1C56.9926 1 58 2.00736 58 3.25C58 4.49264 56.9926 5.5 55.75 5.5Z" fill="#052F45"/>
<path d="M48.5 50C49.6046 50 50.5 50.8954 50.5 52C50.5 53.1046 49.6046 54 48.5 54C47.3954 54 46.5 53.1046 46.5 52C46.5 50.8954 47.3954 50 48.5 50Z" fill="#052F45"/>
<path d="M57.5 107C57.5 108.105 56.6046 109 55.5 109C54.3954 109 53.5 108.105 53.5 107C53.5 105.895 54.3954 105 55.5 105C56.6046 105 57.5 105.895 57.5 107Z" fill="#052F45"/>
<path d="M88 109H64C62.8954 109 62 108.105 62 107C62 105.895 62.8954 105 64 105H74.5V93.5H79V105H86.5V94.9384C86.5 93.9866 86.3364 93.0418 86.0162 92.1454L85.2701 90.0564C84.4365 87.7221 83.0354 85.6319 81.1931 83.9738C79.745 82.6705 78.0561 81.6629 76.2214 81.0077L72 79.5L73.5 75.5L79 77.5L78 75L82.5 74.5L84 78L87.5 70V67.5H80.5V69.5L82 74L78 74.5L77 72.5L74.5 73L72 69.5L76.5 68.5V66L72 62L70.1109 64.4288C69.0426 65.8024 67.7808 67.0137 66.3649 68.0251L65 69V71.5L71.5 69.5L74 73L69.5 74.5L73 75.5L71.5 79.5L64 78L61 85L57.5 82L60.5 75.5V70.7232L58 71.5H55.5V67.5L60.5 66.5L62.6381 65.1394C64.8575 63.727 66.7766 61.8906 68.2852 59.7354L69.5 58L70 47.5L61.5 42.5C58.9086 45.0914 55.5221 46.7374 51.8834 47.174L45 48V43.5L50.6208 43.219C53.3952 43.0802 55.9641 41.7145 57.6308 39.4922L58.5747 38.2337C59.1572 37.4571 60.0713 37 61.0421 37C61.666 37 62.2752 37.1892 62.7894 37.5427L70 42.5L69.9557 41.8351C69.4179 33.7683 62.7178 27.5 54.6331 27.5C47.3145 27.5 41.3184 33.3116 41.0898 40.6267L41 43.5H44.5V48H41.5V52H37V48L33.0591 49.4075C31.0298 50.1322 28.9087 50.5682 26.758 50.7026L22 51V46.5L26.7117 46.252C29.8699 46.0858 32.96 45.27 35.7887 43.8556L36.5 43.5C35.3236 39.3825 31.5034 36.5881 27.223 36.714L26 36.75C21.2657 36.8892 17.5 40.7673 17.5 45.5037V46.5H21.5V51H18V53.9011C18 55.9096 18.6695 57.8607 19.9025 59.4461C20.9463 60.7881 22.3476 61.8082 23.9453 62.3892L24.0412 62.4241C25.9612 63.1222 28.0565 63.1749 30.0091 62.5741L30.4289 62.445C32.4152 61.8338 34.1296 60.5556 35.2824 58.8265C36.0825 57.6263 36.5831 56.2519 36.7424 54.8183L37 52.5H41.5V58L42.976 60.1086C44.315 62.0214 45.9786 63.685 47.8914 65.024L50 66.5L55 67.5V71.5L50 70.7232V72.5L46 70V68.5L41.5 65L39 61.5L37 63.5L34.5 65.5V68.5L40 69.5L38 73.5L34 72.5L32.5 77L41.5 74.5L38.5 73.5L40.5 69.5L46 72V70.5L50 73V75L55.5 86.5L57.5 82.5L61 85.5L58.1447 92.8423C57.756 93.8417 56.7937 94.5 55.7213 94.5C54.6778 94.5 53.7353 93.8761 53.3277 92.9154L47 78L36.5355 80.8868C33.8806 81.6191 31.4295 82.9515 29.3712 84.7812C28.4624 85.589 27.6817 86.5305 27.0561 87.5732L26.9323 87.7795C25.6679 89.8868 25 92.2982 25 94.7557V105H32V95.75C32 94.5074 33.0074 93.5 34.25 93.5C35.4926 93.5 36.5 94.5074 36.5 95.75V105H46C47.1046 105 48 105.895 48 107C48 108.105 47.1046 109 46 109H23.5C21.8431 109 20.5 107.657 20.5 106V101H16V96.5H20L21.5955 89.7989C22.1904 87.3002 23.3557 84.9732 25 83L21 73L17.2478 73.3631C10.5842 74.008 5.5 79.608 5.5 86.3027V96.5H9.5V86.75C9.5 85.5074 10.5074 84.5 11.75 84.5C12.9926 84.5 14 85.5074 14 86.75V96.5H15.5V101H4.44872C2.81203 101 1.47738 99.6882 1.44917 98.0517L1.23549 85.6584C1.09985 77.7914 6.70413 70.9934 14.4525 69.626L18 69L20 68L24 69V70L27 78L31 67.5H24V68.5L20 67.5V66.5C16.2341 63.9894 13.9105 59.8164 13.7598 55.2929L13.4659 46.4762C13.2085 38.7548 19.2545 32.2843 26.9756 32.0181L27.5 32L29.5127 32.1438C32.6805 32.37 35.5945 33.9593 37.5 36.5L38.9981 32.9046C41.15 27.74 45.9974 24.2023 51.5722 23.7279L55.0623 23.4309C61.7387 22.8627 68.1428 26.2012 71.5 32L73 37C75.1936 33.8663 78.7781 32 82.6033 32H84V36H83.6485C79.2012 36 75.3722 39.1391 74.5 43.5L79.5 45.5V50L74.5 47.5V55C74.5 59.4183 78.0817 63 82.5 63H85.5C89.9183 63 93.5 59.4183 93.5 55V51H85.5L80 50V46L84 46.5H93.5V45C93.5 40.0294 89.4706 36 84.5 36V32C91.6797 32 97.5 37.8203 97.5 45V55.7918C97.5 59.903 95.1772 63.6614 91.5 65.5V68.5L94.7444 68.8605C103.197 69.7996 109.655 76.8402 109.862 85.342L110 91H105L105.172 85.6602C105.361 79.7972 101.284 74.6568 95.5319 73.5064L90.5 72.5L86.5 83C88.4529 85.2784 89.6601 88.1009 89.9587 91.0869L90.5 96.5H96.5V87.25C96.5 86.0074 97.5074 85 98.75 85C99.9926 85 101 86.0074 101 87.25V96.5H105V91.5H110V97C110 99.2091 108.209 101 106 101H91V106C91 107.657 89.6569 109 88 109Z" stroke="#052F45" stroke-width="0.5"/>
<path d="M63 54H62.5C61.3954 54 60.5 53.1046 60.5 52C60.5 50.8954 61.3954 50 62.5 50H63C64.1046 50 65 50.8954 65 52C65 53.1046 64.1046 54 63 54Z" stroke="#052F45" stroke-width="0.5"/>
<path d="M51.7541 57.7459L51.6648 57.8352C50.9802 58.5198 50.8494 59.5824 51.3475 60.4125L51.4962 60.6604C51.8199 61.1999 52.3366 61.5962 52.9415 61.769L53.9624 62.0607C54.964 62.3469 56.0288 62.3237 57.0171 61.9943L57.8594 61.7135C58.2807 61.5731 58.6635 61.3365 58.9775 61.0225L59.6262 60.3738C60.3849 59.6151 60.3849 58.3849 59.6262 57.6262C58.9714 56.9714 57.9453 56.8698 57.1748 57.3835L56.6978 57.7015C55.9844 58.177 55.0454 58.1363 54.3759 57.6007C53.5926 56.9741 52.4634 57.0366 51.7541 57.7459Z" stroke="#052F45" stroke-width="0.5"/>
<path d="M53.5 16.75V11.25C53.5 10.0074 54.5074 9 55.75 9C56.9926 9 58 10.0074 58 11.25V16.75C58 17.9926 56.9926 19 55.75 19C54.5074 19 53.5 17.9926 53.5 16.75Z" stroke="#052F45" stroke-width="0.5"/>
<path d="M45.2742 12.2742L42.2772 9.27716C41.5718 8.57181 41.5718 7.4282 42.2772 6.72284C42.9609 6.03906 44.062 6.01513 44.7748 6.66857L47.8992 9.5326C48.7464 10.3092 48.7146 11.6545 47.8317 12.3902C47.0775 13.0187 45.9684 12.9684 45.2742 12.2742Z" stroke="#052F45" stroke-width="0.5"/>
<path d="M69.0242 8.97579L65.7772 12.2228C65.0718 12.9282 63.9282 12.9282 63.2228 12.2228C62.5391 11.5391 62.5151 10.438 63.1686 9.7252L66.2715 6.34018C66.9592 5.59 68.1149 5.51239 68.8967 6.16388C69.7577 6.88138 69.8167 8.18329 69.0242 8.97579Z" stroke="#052F45" stroke-width="0.5"/>
<path d="M91 10V8.5C91 7.39543 91.8954 6.5 93 6.5C94.1046 6.5 95 7.39543 95 8.5V10C95 11.1046 94.1046 12 93 12C91.8954 12 91 11.1046 91 10Z" stroke="#052F45" stroke-width="0.5"/>
<path d="M89 16.5H87.5C86.3954 16.5 85.5 15.6046 85.5 14.5C85.5 13.3954 86.3954 12.5 87.5 12.5H89C90.1046 12.5 91 13.3954 91 14.5C91 15.6046 90.1046 16.5 89 16.5Z" stroke="#052F45" stroke-width="0.5"/>
<path d="M91 20.5V19C91 17.8954 91.8954 17 93 17C94.1046 17 95 17.8954 95 19V20.5C95 21.6046 94.1046 22.5 93 22.5C91.8954 22.5 91 21.6046 91 20.5Z" stroke="#052F45" stroke-width="0.5"/>
<path d="M99.5 16.5H97.5C96.3954 16.5 95.5 15.6046 95.5 14.5C95.5 13.3954 96.3954 12.5 97.5 12.5H99.5C100.605 12.5 101.5 13.3954 101.5 14.5C101.5 15.6046 100.605 16.5 99.5 16.5Z" stroke="#052F45" stroke-width="0.5"/>
<path d="M15.5 10.25V8.75C15.5 7.50736 16.5074 6.5 17.75 6.5C18.9926 6.5 20 7.50736 20 8.75V10.25C20 11.4926 18.9926 12.5 17.75 12.5C16.5074 12.5 15.5 11.4926 15.5 10.25Z" stroke="#052F45" stroke-width="0.5"/>
<path d="M16 20.5V19C16 17.8954 16.8954 17 18 17C19.1046 17 20 17.8954 20 19V20.5C20 21.6046 19.1046 22.5 18 22.5C16.8954 22.5 16 21.6046 16 20.5Z" stroke="#052F45" stroke-width="0.5"/>
<path d="M24.25 16.5H21.75C20.7835 16.5 20 15.7165 20 14.75C20 13.7835 20.7835 13 21.75 13H24.25C25.2165 13 26 13.7835 26 14.75C26 15.7165 25.2165 16.5 24.25 16.5Z" stroke="#052F45" stroke-width="0.5"/>
<path d="M11.25 16.5H13.75C14.7165 16.5 15.5 15.7165 15.5 14.75C15.5 13.7835 14.7165 13 13.75 13H11.25C10.2835 13 9.5 13.7835 9.5 14.75C9.5 15.7165 10.2835 16.5 11.25 16.5Z" stroke="#052F45" stroke-width="0.5"/>
<path d="M55.75 5.5C54.5074 5.5 53.5 4.49264 53.5 3.25C53.5 2.00736 54.5074 1 55.75 1C56.9926 1 58 2.00736 58 3.25C58 4.49264 56.9926 5.5 55.75 5.5Z" stroke="#052F45" stroke-width="0.5"/>
<path d="M48.5 50C49.6046 50 50.5 50.8954 50.5 52C50.5 53.1046 49.6046 54 48.5 54C47.3954 54 46.5 53.1046 46.5 52C46.5 50.8954 47.3954 50 48.5 50Z" stroke="#052F45" stroke-width="0.5"/>
<path d="M57.5 107C57.5 108.105 56.6046 109 55.5 109C54.3954 109 53.5 108.105 53.5 107C53.5 105.895 54.3954 105 55.5 105C56.6046 105 57.5 105.895 57.5 107Z" stroke="#052F45" stroke-width="0.5"/>
</svg>
