<svg width="74" height="74" viewBox="0 0 74 74" fill="none" xmlns="http://www.w3.org/2000/svg">
<path d="M1 68.6425V8.82093C1 6.6118 2.79086 4.82093 5 4.82093H12.52V1H19.24V4.82093H34.2012V12.4628H19.24V18.1942H12.52V12.4628H9.72C8.61543 12.4628 7.72 13.3582 7.72 14.4628V21.0599H66.28V14.4628C66.28 13.3582 65.3846 12.4628 64.28 12.4628H61.48V18.1942H54.76V12.4628H34.3884V4.82093H54.76V1H61.48V4.82093H68C70.7614 4.82093 73 7.05952 73 9.82094V67.9529C73 70.7327 70.7328 72.9788 67.9532 72.9527L34.8378 72.6425V65.9559H64.28C65.3846 65.9559 66.28 65.0605 66.28 63.9559V26.7913H7.72V63.9559C7.72 65.0605 8.61543 65.9559 9.72 65.9559H34.6V72.6425H5C2.79086 72.6425 1 70.8517 1 68.6425Z" fill="#052F45"/>
<path d="M11.56 39.2093V32.5227H17.32V39.2093H11.56Z" fill="#052F45"/>
<path d="M22.12 39.2093V32.5227H28.84V39.2093H22.12Z" fill="#052F45"/>
<path d="M32.68 39.2093V32.5227H40.36V39.2093H32.68Z" fill="#052F45"/>
<path d="M44.2 39.2093V32.5227H50.92V39.2093H44.2Z" fill="#052F45"/>
<path d="M55.72 39.2093V32.5227H62.44V39.2093H55.72Z" fill="#052F45"/>
<path d="M44.2 60.2245V42.075H62.44V60.2245H54.0977V54.4931H56.68V49.7169H49.96V54.4931H53.8V60.2245H44.2Z" fill="#052F45"/>
<path d="M32.68 49.7169V42.075H40.36V49.7169H32.68Z" fill="#052F45"/>
<path d="M22.12 49.7169V42.075H28.84V49.7169H22.12Z" fill="#052F45"/>
<path d="M11.56 49.7169V42.075H17.32V49.7169H11.56Z" fill="#052F45"/>
<path d="M11.56 60.2245V54.4931H17.32V60.2245H11.56Z" fill="#052F45"/>
<path d="M22.12 60.2245V54.4931H28.84V60.2245H22.12Z" fill="#052F45"/>
<path d="M32.68 60.2245V54.4931H40.36V60.2245H32.68Z" fill="#052F45"/>
<path d="M1 68.6425V8.82093C1 6.6118 2.79086 4.82093 5 4.82093H12.52V1H19.24V4.82093H34.2012V12.4628H19.24V18.1942H12.52V12.4628H9.72C8.61543 12.4628 7.72 13.3582 7.72 14.4628V21.0599H66.28V14.4628C66.28 13.3582 65.3846 12.4628 64.28 12.4628H61.48V18.1942H54.76V12.4628H34.3884V4.82093H54.76V1H61.48V4.82093H68C70.7614 4.82093 73 7.05952 73 9.82094V67.9529C73 70.7327 70.7328 72.9788 67.9532 72.9527L34.8378 72.6425V65.9559H64.28C65.3846 65.9559 66.28 65.0605 66.28 63.9559V26.7913H7.72V63.9559C7.72 65.0605 8.61543 65.9559 9.72 65.9559H34.6V72.6425H5C2.79086 72.6425 1 70.8517 1 68.6425Z" stroke="#052F45" stroke-width="0.5"/>
<path d="M11.56 39.2093V32.5227H17.32V39.2093H11.56Z" stroke="#052F45" stroke-width="0.5"/>
<path d="M22.12 39.2093V32.5227H28.84V39.2093H22.12Z" stroke="#052F45" stroke-width="0.5"/>
<path d="M32.68 39.2093V32.5227H40.36V39.2093H32.68Z" stroke="#052F45" stroke-width="0.5"/>
<path d="M44.2 39.2093V32.5227H50.92V39.2093H44.2Z" stroke="#052F45" stroke-width="0.5"/>
<path d="M55.72 39.2093V32.5227H62.44V39.2093H55.72Z" stroke="#052F45" stroke-width="0.5"/>
<path d="M44.2 60.2245V42.075H62.44V60.2245H54.0977V54.4931H56.68V49.7169H49.96V54.4931H53.8V60.2245H44.2Z" stroke="#052F45" stroke-width="0.5"/>
<path d="M32.68 49.7169V42.075H40.36V49.7169H32.68Z" stroke="#052F45" stroke-width="0.5"/>
<path d="M22.12 49.7169V42.075H28.84V49.7169H22.12Z" stroke="#052F45" stroke-width="0.5"/>
<path d="M11.56 49.7169V42.075H17.32V49.7169H11.56Z" stroke="#052F45" stroke-width="0.5"/>
<path d="M11.56 60.2245V54.4931H17.32V60.2245H11.56Z" stroke="#052F45" stroke-width="0.5"/>
<path d="M22.12 60.2245V54.4931H28.84V60.2245H22.12Z" stroke="#052F45" stroke-width="0.5"/>
<path d="M32.68 60.2245V54.4931H40.36V60.2245H32.68Z" stroke="#052F45" stroke-width="0.5"/>
</svg>
