<svg width="75" height="75" viewBox="0 0 75 75" fill="none" xmlns="http://www.w3.org/2000/svg">
<path d="M3 46V28.5086C3 27.6156 3.59195 26.8309 4.45056 26.5856L10.5 24.8571M20.5 22V42.5M20.5 22V11.5M20.5 22L10.5 24.8571M54 42.5V20.5M54 20.5V11.75M54 20.5L63 23.75M72 46V27.7021C72 27.2808 71.7359 26.9046 71.3396 26.7615L63 23.75M54 11.75V5C54 3.89543 53.1046 3 52 3H22.5C21.3954 3 20.5 3.89543 20.5 5V11.5M54 11.75L62.3396 14.7615C62.7359 14.9046 63 15.2808 63 15.7021V23.75M20.5 11.5L11.1696 14.7656C10.7686 14.906 10.5 15.2845 10.5 15.7095V24.8571M46 48.7499V48.7499C46 53.345 42.343 57.1076 37.7499 57.2427V57.2427C32.9617 57.3835 29 53.5404 29 48.7501V48.7501C29 44.155 32.657 40.3924 37.2501 40.2573V40.2573C42.0383 40.1165 46 43.9596 46 48.7499ZM51.5 71.8554V71.8554C51.5 71.9347 51.4357 72 51.3564 72H23.1436C23.0643 72 23 71.9347 23 71.8554V71.8554C23 63.9853 29.3799 57.5 37.25 57.5V57.5C45.1201 57.5 51.5 63.9853 51.5 71.8554Z" stroke="#052F45" stroke-width="5"/>
<path d="M22.9013 70H3.0987C3.04419 70 3 69.9558 3 69.9013C3 64.4502 7.41897 60.0312 12.8701 60.0312H13.13C18.581 60.0312 23 64.4502 23 69.9013C23 69.9558 22.9558 70 22.9013 70Z" stroke="#052F45" stroke-width="5"/>
<path d="M13.4673 59.851L13.2201 59.8581C9.92948 59.9529 7.21053 57.3112 7.21053 54.0192C7.21053 50.8586 9.72436 48.2713 12.8836 48.1803L13.1308 48.1732C16.4214 48.0783 19.1404 50.7201 19.1404 54.0121C19.1404 57.1726 16.6265 59.7599 13.4673 59.851Z" stroke="#052F45" stroke-width="5"/>
<path d="M70.9013 70H51.0987C51.0442 70 51 69.9558 51 69.9013C51 64.4502 55.419 60.0312 60.8701 60.0312H61.13C66.581 60.0312 71 64.4502 71 69.9013C71 69.9558 70.9558 70 70.9013 70Z" stroke="#052F45" stroke-width="5"/>
<path d="M61.4673 59.851L61.2201 59.8581C57.9295 59.9529 55.2105 57.3112 55.2105 54.0192C55.2105 50.8586 57.7244 48.2713 60.8836 48.1803L61.1308 48.1732C64.4214 48.0783 67.1404 50.7201 67.1404 54.0121C67.1404 57.1726 64.6265 59.7599 61.4673 59.851Z" stroke="#052F45" stroke-width="5"/>
<path d="M26 9C26 7.89543 26.8954 7 28 7C29.1046 7 30 7.89543 30 9V13C30 14.1046 29.1046 15 28 15C26.8954 15 26 14.1046 26 13V9Z" fill="#052F45"/>
<path d="M26 9C26 7.89543 26.8954 7 28 7C29.1046 7 30 7.89543 30 9V13C30 14.1046 29.1046 15 28 15C26.8954 15 26 14.1046 26 13V9Z" fill="#052F45"/>
<path d="M35 9C35 7.89543 35.8954 7 37 7C38.1046 7 39 7.89543 39 9V13C39 14.1046 38.1046 15 37 15C35.8954 15 35 14.1046 35 13V9Z" fill="#052F45"/>
<path d="M35 9C35 7.89543 35.8954 7 37 7C38.1046 7 39 7.89543 39 9V13C39 14.1046 38.1046 15 37 15C35.8954 15 35 14.1046 35 13V9Z" fill="#052F45"/>
<path d="M44 9C44 7.89543 44.8954 7 46 7C47.1046 7 48 7.89543 48 9V13C48 14.1046 47.1046 15 46 15C44.8954 15 44 14.1046 44 13V9Z" fill="#052F45"/>
<path d="M44 9C44 7.89543 44.8954 7 46 7C47.1046 7 48 7.89543 48 9V13C48 14.1046 47.1046 15 46 15C44.8954 15 44 14.1046 44 13V9Z" fill="#052F45"/>
<path d="M44 20C44 18.8954 44.8954 18 46 18C47.1046 18 48 18.8954 48 20V24C48 25.1046 47.1046 26 46 26C44.8954 26 44 25.1046 44 24V20Z" fill="#052F45"/>
<path d="M44 20C44 18.8954 44.8954 18 46 18C47.1046 18 48 18.8954 48 20V24C48 25.1046 47.1046 26 46 26C44.8954 26 44 25.1046 44 24V20Z" fill="#052F45"/>
<path d="M35 20C35 18.8954 35.8954 18 37 18C38.1046 18 39 18.8954 39 20V24C39 25.1046 38.1046 26 37 26C35.8954 26 35 25.1046 35 24V20Z" fill="#052F45"/>
<path d="M35 20C35 18.8954 35.8954 18 37 18C38.1046 18 39 18.8954 39 20V24C39 25.1046 38.1046 26 37 26C35.8954 26 35 25.1046 35 24V20Z" fill="#052F45"/>
<path d="M26 20C26 18.8954 26.8954 18 28 18C29.1046 18 30 18.8954 30 20V24C30 25.1046 29.1046 26 28 26C26.8954 26 26 25.1046 26 24V20Z" fill="#052F45"/>
<path d="M26 20C26 18.8954 26.8954 18 28 18C29.1046 18 30 18.8954 30 20V24C30 25.1046 29.1046 26 28 26C26.8954 26 26 25.1046 26 24V20Z" fill="#052F45"/>
<path d="M26 30C26 28.8954 26.8954 28 28 28C29.1046 28 30 28.8954 30 30V34C30 35.1046 29.1046 36 28 36C26.8954 36 26 35.1046 26 34V30Z" fill="#052F45"/>
<path d="M26 30C26 28.8954 26.8954 28 28 28C29.1046 28 30 28.8954 30 30V34C30 35.1046 29.1046 36 28 36C26.8954 36 26 35.1046 26 34V30Z" fill="#052F45"/>
<path d="M35 30C35 28.8954 35.8954 28 37 28C38.1046 28 39 28.8954 39 30V34C39 35.1046 38.1046 36 37 36C35.8954 36 35 35.1046 35 34V30Z" fill="#052F45"/>
<path d="M35 30C35 28.8954 35.8954 28 37 28C38.1046 28 39 28.8954 39 30V34C39 35.1046 38.1046 36 37 36C35.8954 36 35 35.1046 35 34V30Z" fill="#052F45"/>
<path d="M44 30C44 28.8954 44.8954 28 46 28C47.1046 28 48 28.8954 48 30V34C48 35.1046 47.1046 36 46 36C44.8954 36 44 35.1046 44 34V30Z" fill="#052F45"/>
<path d="M44 30C44 28.8954 44.8954 28 46 28C47.1046 28 48 28.8954 48 30V34C48 35.1046 47.1046 36 46 36C44.8954 36 44 35.1046 44 34V30Z" fill="#052F45"/>
<path d="M10 32C10 30.8954 10.8954 30 12 30C13.1046 30 14 30.8954 14 32V36C14 37.1046 13.1046 38 12 38C10.8954 38 10 37.1046 10 36V32Z" fill="#052F45"/>
<path d="M10 32C10 30.8954 10.8954 30 12 30C13.1046 30 14 30.8954 14 32V36C14 37.1046 13.1046 38 12 38C10.8954 38 10 37.1046 10 36V32Z" fill="#052F45"/>
<path d="M61 32C61 30.8954 61.8954 30 63 30C64.1046 30 65 30.8954 65 32V36C65 37.1046 64.1046 38 63 38C61.8954 38 61 37.1046 61 36V32Z" fill="#052F45"/>
<path d="M61 32C61 30.8954 61.8954 30 63 30C64.1046 30 65 30.8954 65 32V36C65 37.1046 64.1046 38 63 38C61.8954 38 61 37.1046 61 36V32Z" fill="#052F45"/>
</svg>
