<svg width="110" height="99" viewBox="0 0 110 99" fill="none" xmlns="http://www.w3.org/2000/svg">
<path d="M26.9761 20.9602L26.8637 20.7728C26.0044 19.3406 24.5257 18.3917 22.8657 18.2073C21.658 18.0731 20.5319 17.5319 19.6726 16.6726L18.8239 15.8239C17.9677 14.9677 16.8418 14.4342 15.6371 14.3137L15.3736 14.2874C13.6053 14.1105 11.8838 14.9243 10.8981 16.4029C10.6342 16.7988 10.4305 17.2316 10.2938 17.6874L9.50491 20.317C9.1827 21.391 8.43132 22.2843 7.42838 22.7858L7.36072 22.8196C6.48608 23.257 5.80918 24.0089 5.46583 24.9245L5.40811 25.0784C4.86427 26.5286 5.29699 28.1642 6.48686 29.1557C7.14149 29.7012 7.96667 30 8.81881 30H9.29701C10.4008 30 11.473 29.6321 12.3443 28.9545L15.5 26.5L18.8999 24.4077C20.957 23.1419 23.1776 22.1635 25.5 21.5C29.1504 20.5044 32.9172 20 36.7009 20H38H42.0411C43.6328 20 45.1772 19.4583 46.4201 18.4639C46.8056 18.1555 47.2226 17.8887 47.6642 17.6679L48.0572 17.4714C49.9468 16.5266 51.4024 14.8934 52.1244 12.9079C52.6947 11.3395 53.7269 9.98077 55.0849 9.01075L55.2488 8.89374C56.0768 8.30229 57.0001 7.85712 57.9785 7.57757L58.6637 7.3818C59.5502 7.1285 60.4678 7 61.3898 7H63.1426C64.652 7 66.0996 6.40039 67.1669 5.33306C67.3886 5.1114 67.6282 4.90843 67.8833 4.72622L69.5388 3.5437C70.5088 2.85088 71.5652 2.28803 72.6813 1.8695L72.8428 1.80893C74.2693 1.27401 75.7804 1 77.3038 1C79.0815 1 80.8393 1.37304 82.4638 2.09502L83.7005 2.64465C84.2325 2.88112 84.7435 3.16236 85.228 3.48534C86.7169 4.47791 87.9209 5.84184 88.7212 7.44232L90.2727 10.5454C90.4238 10.8476 90.5413 11.1653 90.6233 11.4931L90.9901 12.9604C91.2898 14.1591 92.3668 15 93.6024 15H93.8486C94.2714 15 94.6829 15.1371 95.0211 15.3908L95.497 15.7477C96.0597 16.1698 96.1947 16.9579 95.8045 17.5432C95.6095 17.8357 95.3064 18.0387 94.9617 18.1077L93.7669 18.3466C93.2598 18.448 92.7386 18.4564 92.2286 18.3714L92.0084 18.3347C90.7127 18.1188 89.5375 17.445 88.6965 16.4358L88.6309 16.3571C87.8939 15.4727 87.4388 14.3878 87.3242 13.2422L87.1785 11.7849C87.0617 10.6172 86.6278 9.50375 85.9237 8.56497C85.6421 8.18945 85.3202 7.84588 84.9638 7.5404L84.3536 7.01735C82.8139 5.69759 80.9427 4.82378 78.9423 4.49039L78.3308 4.38847C76.8039 4.13399 75.2369 4.28617 73.7875 4.8297C72.6095 5.27145 71.5397 5.96027 70.6501 6.84987L69.2678 8.23223C68.1359 9.36411 66.6007 10 65 10L62.3561 9.73561C60.8287 9.58287 59.2938 9.94139 57.9921 10.755C56.7001 11.5624 55.7101 12.773 55.1752 14.1996L54.5 16C53.8509 17.2982 52.7982 18.3509 51.5 19L50.8097 19.3451C49.9422 19.7789 49.1504 20.3496 48.4646 21.0354L47.9662 21.5338C47.3262 22.1738 46.7937 22.9127 46.3889 23.7221C45.8043 24.8913 45.5 26.1805 45.5 27.4877V28.4454C45.5 30.1069 46.0191 31.7268 46.9848 33.0787C47.6537 34.0151 48.5173 34.7956 49.5165 35.3666L50.1356 35.7203C51.0393 36.2367 52.0203 36.6041 53.041 36.8082L53.2411 36.8482C55.346 37.2692 57.2351 38.4189 58.5762 40.0952L59.1603 40.8253C60.0293 41.9117 61.2309 42.6827 62.5806 43.0202C63.8306 43.3326 65.1461 43.2577 66.3525 42.8053L67.7362 42.2864C68.2422 42.0967 68.715 41.828 69.1369 41.4904C70.318 40.5456 71.8564 40.1713 73.3395 40.4679L73.5 40.5L77.1557 41.5967C78.0401 41.862 78.9736 41.9211 79.8844 41.7693C80.9424 41.5929 81.9343 41.1381 82.7583 40.4514L84.198 39.2517C84.399 39.0841 84.6127 38.9324 84.8371 38.7977C86.1998 37.9801 87.8664 37.8466 89.3419 38.4368L89.5 38.5L92.6243 39.3521C94.1846 39.7776 95.8251 39.8167 97.4038 39.4658C98.7854 39.1588 100.086 38.5608 101.218 37.7116L101.816 37.2633C102.926 36.4305 103.848 35.3728 104.523 34.1594C105.485 32.4267 105.904 30.4443 105.725 28.4702L105.69 28.0889C105.564 26.7085 105.182 25.3637 104.562 24.1239L104.008 23.0154C103.673 22.3452 103.207 21.7488 102.638 21.2612L100.636 19.5455C100.246 19.2112 100.079 18.6852 100.203 18.1868C100.372 17.5125 101.023 17.0747 101.711 17.173L102.98 17.3543C103.638 17.4483 104.241 17.775 104.678 18.2751L106.366 20.2042C107.116 21.0613 107.709 22.044 108.118 23.1071L108.34 23.6842C109.415 26.4778 109.506 29.5541 108.598 32.4064L108.096 33.983C107.073 37.1997 104.833 39.8891 101.855 41.4776C99.9804 42.4771 97.8889 43 95.7648 43H93.8922C92.9725 43 92.0613 42.8245 91.2074 42.483C88.9001 41.56 86.2805 41.8869 84.2707 43.3486L83.7339 43.7389C82.5966 44.5661 81.268 45.0915 79.8725 45.2659L79.5689 45.3039C78.5361 45.433 77.4875 45.3292 76.5 45L73.1904 43.5816C73.0648 43.5278 72.9295 43.5 72.7928 43.5C72.1361 43.5 71.6543 44.1171 71.8136 44.7542L72.8936 49.0743C72.9644 49.3574 73.0073 49.6468 73.0219 49.9383L73.25 54.4996C73.4157 57.815 73.0908 61.1367 72.2857 64.3571C71.7631 66.4476 71.0412 68.4831 70.13 70.4357L69.9679 70.783C68.6609 73.5837 67.0144 76.213 65.0655 78.6117L63.8467 80.1118C62.2881 82.03 60.5002 83.7499 58.5229 85.2328C56.5154 86.7384 54.3283 87.9882 52.012 88.9533L51.6622 89.0991C50.2227 89.6989 48.7404 90.1899 47.2276 90.5681L45.1626 91.0844C44.0584 91.3604 42.9245 91.5 41.7863 91.5H40.7361C39.2656 91.5 37.8153 91.8424 36.5 92.5L34.5 90L34.677 89.7345C35.1922 88.9617 35.2939 87.9848 34.949 87.1224C34.6623 86.4057 34.0943 85.8377 33.3776 85.551L32.3808 85.1523C32.1273 85.0509 31.8664 84.9692 31.6004 84.9078L28.654 84.2278C26.6681 83.7696 25.0131 82.4045 24.1854 80.5421C23.7359 79.5309 23.0353 78.6514 22.15 77.9875L21.5439 77.5329C20.2466 76.56 18.5889 76.2025 17.006 76.5542C15.7115 76.8419 14.5627 77.5831 13.7671 78.6439L12.9748 79.7003C12.3322 80.5571 11.5161 81.2688 10.5798 81.789L9.67154 82.2936C8.29393 83.0589 7.32188 84.3906 7.01282 85.9359L6.99935 86.0032C6.68413 87.5793 7.11103 89.2129 8.15706 90.4332C9.01999 91.44 10.2331 92.0815 11.5509 92.2279L12.2834 92.3093C13.4113 92.4346 14.4928 92.8285 15.4371 93.4581L15.7524 93.6683C16.578 94.2187 17.492 94.623 18.4546 94.8637L18.7691 94.9423C20.2306 95.3077 21.7625 95.2821 23.2111 94.8683C24.0652 94.6242 24.8763 94.2492 25.6154 93.7564L27.5 92.5L27.5974 92.4351C28.512 91.8254 29.5865 91.5 30.6857 91.5C31.55 91.5 32.4025 91.2988 33.1755 90.9122L34 90.5L36 93L34.9279 93.6433C33.9855 94.2087 32.9395 94.5801 31.8516 94.7355C30.6327 94.9096 29.4682 95.3545 28.4438 96.0375L27.909 96.394C26.3295 97.447 24.506 98.0765 22.6132 98.2221L22.2432 98.2505C20.1165 98.4141 17.9833 98.0307 16.0466 97.1369L13.8904 96.1417C12.9661 95.7151 11.9989 95.3886 11.0052 95.1678L9.7611 94.8914C8.60038 94.6334 7.50798 94.131 6.55675 93.4176L6.29419 93.2206C4.81681 92.1126 3.79976 90.4988 3.43759 88.688C3.15204 87.2602 3.28792 85.7802 3.82868 84.4283L4.09518 83.762C4.68956 82.2761 5.63465 80.956 6.84977 79.9145L8.38324 78.6001C8.44988 78.543 8.46338 78.4451 8.4147 78.372L5.8875 74.5812C5.63483 74.2022 5.5 73.7569 5.5 73.3014V72.596C5.5 71.9519 5.93838 71.3904 6.56327 71.2342C7.12747 71.0931 7.72021 71.3146 8.05371 71.791L10.9551 75.9358C10.9807 75.9724 11.0296 75.9838 11.0688 75.9625L14.5975 74.0377C15.8459 73.3568 17.2451 73 18.6671 73C20.506 73 22.2952 73.5964 23.7663 74.6997L24.0835 74.9376C25.015 75.6363 25.7711 76.5422 26.2919 77.5837L26.6399 78.2797C27.4944 79.9888 29.1152 81.1859 31 81.5L33.0918 82.0229C34.3404 82.3351 35.4807 82.9807 36.3908 83.8908C37.4374 84.9374 38.1308 86.2848 38.3741 87.7447L38.4859 88.4156C38.4939 88.4632 38.5372 88.4966 38.5853 88.4922L41.0701 88.2664C43.0168 88.0894 44.9366 87.6878 46.791 87.0697C47.9289 86.6904 49.0384 86.2308 50.1113 85.6944L52.4965 84.5018C55.8042 82.8479 58.7812 80.6024 61.2801 77.8763C62.4247 76.6276 63.4625 75.2852 64.3827 73.8631L64.5218 73.6481C67.1427 69.5977 68.8533 65.0266 69.5356 60.2506L69.7213 58.9511C69.9069 57.652 70 56.3414 70 55.029V54.0962C70 51.3875 69.5128 48.7009 68.5617 46.1646C68.5254 46.0678 68.428 46.008 68.3253 46.0194L65.0169 46.387C64.341 46.4621 63.659 46.4621 62.9831 46.387C60.7395 46.1377 58.6657 45.073 57.1556 43.3951L56.3791 42.5323C55.4802 41.5336 54.3036 40.8259 53 40.5L50.501 39.5913C48.5323 38.8754 46.7766 37.6733 45.3972 36.0968C44.4724 35.0399 43.7336 33.8339 43.212 32.53L42.5165 30.7913C42.1768 29.9421 42.0395 29.0255 42.1155 28.1141L42.4403 24.2163C42.4753 23.7959 42.2183 23.4061 41.8181 23.2727C41.3587 23.1196 40.8596 23.3511 40.6797 23.8007L40.2136 24.9661C40.0735 25.3164 39.8473 25.6257 39.5561 25.8656L33.2859 31.0292C32.1533 31.962 30.6673 32.3486 29.2237 32.0861L28.1281 31.8869C26.8363 31.6521 25.5285 32.2073 24.8002 33.2998C23.8018 34.7973 24.1912 36.8189 25.6743 37.8386L28.6697 39.8979C30.1075 40.8864 31.9688 41.0156 33.5293 40.2353C33.8422 40.0789 34.1712 39.9572 34.5105 39.8724L34.8907 39.7773C36.8926 39.2769 39.0088 39.5341 40.8325 40.4996L46.5 43.5L54.5 49L60.0457 51.9862C60.6723 52.3236 61.2064 52.8097 61.6012 53.4018C62.4662 54.6993 62.5696 56.3608 61.8722 57.7555L61.7641 57.9719C61.2701 58.9598 60.4481 59.7453 59.4387 60.1939L58.2122 60.739C57.0842 61.2403 56.079 61.9812 55.2662 62.9101L54.9469 63.275C53.6728 64.7311 52.8172 66.5053 52.4711 68.4089L51.8594 71.7731C51.3012 74.8434 49.7739 77.654 47.5015 79.7927L43.7547 83.3191C42.96 84.0671 41.8732 84.4216 40.7903 84.2863C39.3908 84.1114 38.2161 83.1483 37.7701 81.8103L37.3072 80.4214C37.1037 79.8111 37 79.172 37 78.5287V76.9721C37 74.3657 36.346 71.801 35.0979 69.5129L34.6951 68.7744C34.2324 67.926 33.7052 67.1145 33.1182 66.3469L29.5531 61.6848C28.2215 59.9435 27.5 57.8123 27.5 55.6201V54.9833C27.5 54.332 27.395 53.685 27.1891 53.0672C26.7437 51.731 25.8466 50.5916 24.6522 49.8451L19.7683 46.7927C18.9395 46.2747 17.9817 46 17.0043 46H16.6549C16.2223 46 15.7936 45.9174 15.3919 45.7568C14.2272 45.2909 13.4135 44.2216 13.275 42.9748L13.0448 40.9028C13.015 40.635 12.957 40.3711 12.8719 40.1156L12.4256 38.7768C12.1714 38.0143 11.4579 37.5 10.6541 37.5C9.94679 37.5 9.30019 37.8996 8.98388 38.5322L7.28828 41.9234C7.0964 42.3072 6.9357 42.7058 6.80773 43.1153L5.58412 47.0308C4.86399 49.3352 4.42388 51.7179 4.27328 54.1275L4.16788 55.814C4.05655 57.5953 4.20384 59.3833 4.60516 61.1223L5.38074 64.4832C5.45935 64.8238 5.46454 65.1773 5.39599 65.5201L5.23731 66.3134C5.09932 67.0034 4.49354 67.5 3.78995 67.5C3.29643 67.5 2.83557 67.2534 2.56182 66.8427L2.27886 66.4183C2.0949 66.1424 1.96939 65.8317 1.91007 65.5054L1.30347 62.1691C1.10157 61.0586 1 59.9322 1 58.8035V54.3919C1 52.4679 1.17314 50.5477 1.51733 48.6548C2.16771 45.0778 3.42157 41.6374 5.22532 38.4807L5.5 38L7.91644 34.3753C8.2263 33.9105 8.05868 33.2793 7.55903 33.0295C7.51973 33.0099 7.47908 32.993 7.43739 32.9791L5.53552 32.3452C3.93175 31.8106 2.65514 30.5804 2.06156 28.9975C1.69452 28.0187 1.60865 26.9568 1.81365 25.9317L2.02136 24.8932C2.32959 23.3521 3.19515 21.9786 4.45249 21.0356L4.87516 20.7186C5.91809 19.9364 6.61958 18.7825 6.8339 17.4966C6.94356 16.8387 7.18197 16.2089 7.53547 15.6432L7.86484 15.1163C8.91877 13.43 10.5504 12.1849 12.4551 11.6135L12.9082 11.4775C13.9578 11.1626 15.0617 11.0702 16.1491 11.2061L16.4488 11.2436C17.7867 11.4108 19.0458 11.9678 20.0695 12.8453L20.981 13.6266C21.6386 14.1902 22.476 14.5 23.3421 14.5C23.7772 14.5 24.2087 14.5782 24.616 14.731L25.2636 14.9739C27.0225 15.6334 28.4669 16.9338 29.307 18.6139L29.943 19.8859C29.9731 19.9461 29.9429 20.019 29.879 20.0403L27.0441 20.9853C27.0183 20.9939 26.9901 20.9834 26.9761 20.9602Z" fill="#052F45"/>
<path d="M70.5 24.5V23.9289C70.5 20.1022 73.6022 17 77.4289 17V20.5H77.25C75.1789 20.5 73.5 22.1789 73.5 24.25C73.5 26.3211 75.1789 28 77.25 28H77.75C79.8211 28 81.5 26.3211 81.5 24.25C81.5 22.1789 79.8211 20.5 77.75 20.5H77.6962V17.0419C81.4471 17.0188 84.5 20.053 84.5 23.8039V24.5C84.5 28.366 81.366 31.5 77.5 31.5C73.634 31.5 70.5 28.366 70.5 24.5Z" fill="#052F45"/>
<path d="M56 25.5V23C56 19.6863 58.6863 17 62 17H65.7538C66.9943 17 68 18.0057 68 19.2462V19.684C68 20.4574 67.4736 21.1316 66.7233 21.3192C66.2626 21.4343 65.7747 21.3498 65.3796 21.0864L65.1095 20.9063C64.7121 20.6414 64.2451 20.5 63.7675 20.5H63.338C61.2183 20.5 59.5 22.2183 59.5 24.338V24.9042C59.5 26.6616 60.8317 28.1332 62.5804 28.308L63.1815 28.3681C63.9999 28.45 64.8016 28.0979 65.2951 27.4399L65.6 27.0333C65.8518 26.6976 66.247 26.5 66.6667 26.5C67.403 26.5 68 27.097 68 27.8333V29C68 30.3807 66.8807 31.5 65.5 31.5H62C58.6863 31.5 56 28.8137 56 25.5Z" fill="#052F45"/>
<path d="M87 25V25.3715C87 26.2709 87.7291 27 88.6285 27C89.173 27 89.6814 26.7279 89.9834 26.2748L90.3066 25.7901C90.4274 25.6088 90.6308 25.5 90.8486 25.5C91.2084 25.5 91.5 25.7916 91.5 26.1514V26.25C91.5 26.4123 91.4474 26.5702 91.35 26.7L87.375 32C87.1316 32.3246 87 32.7193 87 33.125C87 34.1605 87.8395 35 88.875 35H93.75C94.7165 35 95.5 34.2165 95.5 33.25C95.5 32.2835 94.7165 31.5 93.75 31.5H92.555C92.5315 31.5 92.5175 31.4738 92.5305 31.4542L94.8554 27.9669C95.2757 27.3364 95.5 26.5957 95.5 25.838V25.4C95.5 23.5222 93.9778 22 92.1 22H90C88.3431 22 87 23.3431 87 25Z" fill="#052F45"/>
<path d="M81 61.8566V51C81 50.1716 81.6716 49.5 82.5 49.5C83.3284 49.5 84 50.1716 84 51V61.8952C84 61.94 84.0499 61.9667 84.0872 61.9419L85.035 61.31C85.3382 61.1079 85.6945 61 86.0589 61H86.3761C87.0366 61 87.6124 61.4495 87.7726 62.0903C87.9108 62.6433 87.7098 63.2257 87.2598 63.5757L84.1551 65.9904C83.7305 66.3207 83.2079 66.5 82.67 66.5C82.2316 66.5 81.8014 66.3808 81.4255 66.1553L77.775 63.965C77.2942 63.6765 77 63.1569 77 62.5962C77 61.7147 77.7147 61 78.5962 61H78.618C78.8692 61 79.117 61.0585 79.3416 61.1708L80.8717 61.9359C80.9306 61.9653 81 61.9225 81 61.8566Z" fill="#052F45"/>
<path d="M93.5 69.4393V58.75C93.5 57.7835 94.2835 57 95.25 57C96.2165 57 97 57.7835 97 58.75V69.4393C97 69.4672 97.0293 69.4853 97.0543 69.4729L98.1611 68.9194C98.6799 68.6601 99.2978 68.6985 99.7803 69.0202C100.23 69.32 100.5 69.8246 100.5 70.3649V70.5C100.5 71.1247 100.188 71.7082 99.6679 72.0547L96.624 74.084C96.2171 74.3552 95.739 74.5 95.25 74.5C94.761 74.5 94.2829 74.3552 93.876 74.084L90.832 72.0547C90.3122 71.7082 90 71.1247 90 70.5V70.3649C90 69.8246 90.2701 69.32 90.7197 69.0202C91.2022 68.6985 91.8201 68.6601 92.3389 68.9194L93.4457 69.4729C93.4707 69.4853 93.5 69.4672 93.5 69.4393Z" fill="#052F45"/>
<path d="M26.9761 20.9602L26.8637 20.7728C26.0044 19.3406 24.5257 18.3917 22.8657 18.2073C21.658 18.0731 20.5319 17.5319 19.6726 16.6726L18.8239 15.8239C17.9677 14.9677 16.8418 14.4342 15.6371 14.3137L15.3736 14.2874C13.6053 14.1105 11.8838 14.9243 10.8981 16.4029C10.6342 16.7988 10.4305 17.2316 10.2938 17.6874L9.50491 20.317C9.1827 21.391 8.43132 22.2843 7.42838 22.7858L7.36072 22.8196C6.48608 23.257 5.80918 24.0089 5.46583 24.9245L5.40811 25.0784C4.86427 26.5286 5.29699 28.1642 6.48686 29.1557C7.14149 29.7012 7.96667 30 8.81881 30H9.29701C10.4008 30 11.473 29.6321 12.3443 28.9545L15.5 26.5L18.8999 24.4077C20.957 23.1419 23.1776 22.1635 25.5 21.5C29.1504 20.5044 32.9172 20 36.7009 20H38H42.0411C43.6328 20 45.1772 19.4583 46.4201 18.4639C46.8056 18.1555 47.2226 17.8887 47.6642 17.6679L48.0572 17.4714C49.9468 16.5266 51.4024 14.8934 52.1244 12.9079C52.6947 11.3395 53.7269 9.98077 55.0849 9.01075L55.2488 8.89374C56.0768 8.30229 57.0001 7.85712 57.9785 7.57757L58.6637 7.3818C59.5502 7.1285 60.4678 7 61.3898 7H63.1426C64.652 7 66.0996 6.40039 67.1669 5.33306C67.3886 5.1114 67.6282 4.90843 67.8833 4.72622L69.5388 3.5437C70.5088 2.85088 71.5652 2.28803 72.6813 1.8695L72.8428 1.80893C74.2693 1.27401 75.7804 1 77.3038 1C79.0815 1 80.8393 1.37304 82.4638 2.09502L83.7005 2.64465C84.2325 2.88112 84.7435 3.16236 85.228 3.48534C86.7169 4.47791 87.9209 5.84184 88.7212 7.44232L90.2727 10.5454C90.4238 10.8476 90.5413 11.1653 90.6233 11.4931L90.9901 12.9604C91.2898 14.1591 92.3668 15 93.6024 15H93.8486C94.2714 15 94.6829 15.1371 95.0211 15.3908L95.497 15.7477C96.0597 16.1698 96.1947 16.9579 95.8045 17.5432C95.6095 17.8357 95.3064 18.0387 94.9617 18.1077L93.7669 18.3466C93.2598 18.448 92.7386 18.4564 92.2286 18.3714L92.0084 18.3347C90.7127 18.1188 89.5375 17.445 88.6965 16.4358L88.6309 16.3571C87.8939 15.4727 87.4388 14.3878 87.3242 13.2422L87.1785 11.7849C87.0617 10.6172 86.6278 9.50375 85.9237 8.56497C85.6421 8.18945 85.3202 7.84588 84.9638 7.5404L84.3536 7.01735C82.8139 5.69759 80.9427 4.82378 78.9423 4.49039L78.3308 4.38847C76.8039 4.13399 75.2369 4.28617 73.7875 4.8297C72.6095 5.27145 71.5397 5.96027 70.6501 6.84987L69.2678 8.23223C68.1359 9.36411 66.6007 10 65 10L62.3561 9.73561C60.8287 9.58287 59.2938 9.94139 57.9921 10.755C56.7001 11.5624 55.7101 12.773 55.1752 14.1996L54.5 16C53.8509 17.2982 52.7982 18.3509 51.5 19L50.8097 19.3451C49.9422 19.7789 49.1504 20.3496 48.4646 21.0354L47.9662 21.5338C47.3262 22.1738 46.7937 22.9127 46.3889 23.7221C45.8043 24.8913 45.5 26.1805 45.5 27.4877V28.4454C45.5 30.1069 46.0191 31.7268 46.9848 33.0787C47.6537 34.0151 48.5173 34.7956 49.5165 35.3666L50.1356 35.7203C51.0393 36.2367 52.0203 36.6041 53.041 36.8082L53.2411 36.8482C55.346 37.2692 57.2351 38.4189 58.5762 40.0952L59.1603 40.8253C60.0293 41.9117 61.2309 42.6827 62.5806 43.0202C63.8306 43.3326 65.1461 43.2577 66.3525 42.8053L67.7362 42.2864C68.2422 42.0967 68.715 41.828 69.1369 41.4904C70.318 40.5456 71.8564 40.1713 73.3395 40.4679L73.5 40.5L77.1557 41.5967C78.0401 41.862 78.9736 41.9211 79.8844 41.7693C80.9424 41.5929 81.9343 41.1381 82.7583 40.4514L84.198 39.2517C84.399 39.0841 84.6127 38.9324 84.8371 38.7977C86.1998 37.9801 87.8664 37.8466 89.3419 38.4368L89.5 38.5L92.6243 39.3521C94.1846 39.7776 95.8251 39.8167 97.4038 39.4658C98.7854 39.1588 100.086 38.5608 101.218 37.7116L101.816 37.2633C102.926 36.4305 103.848 35.3728 104.523 34.1594C105.485 32.4267 105.904 30.4443 105.725 28.4702L105.69 28.0889C105.564 26.7085 105.182 25.3637 104.562 24.1239L104.008 23.0154C103.673 22.3452 103.207 21.7488 102.638 21.2612L100.636 19.5455C100.246 19.2112 100.079 18.6852 100.203 18.1868C100.372 17.5125 101.023 17.0747 101.711 17.173L102.98 17.3543C103.638 17.4483 104.241 17.775 104.678 18.2751L106.366 20.2042C107.116 21.0613 107.709 22.044 108.118 23.1071L108.34 23.6842C109.415 26.4778 109.506 29.5541 108.598 32.4064L108.096 33.983C107.073 37.1997 104.833 39.8891 101.855 41.4776C99.9804 42.4771 97.8889 43 95.7648 43H93.8922C92.9725 43 92.0613 42.8245 91.2074 42.483C88.9001 41.56 86.2805 41.8869 84.2707 43.3486L83.7339 43.7389C82.5966 44.5661 81.268 45.0915 79.8725 45.2659L79.5689 45.3039C78.5361 45.433 77.4875 45.3292 76.5 45L73.1904 43.5816C73.0648 43.5278 72.9295 43.5 72.7928 43.5C72.1361 43.5 71.6543 44.1171 71.8136 44.7542L72.8936 49.0743C72.9644 49.3574 73.0073 49.6468 73.0219 49.9383L73.25 54.4996C73.4157 57.815 73.0908 61.1367 72.2857 64.3571C71.7631 66.4476 71.0412 68.4831 70.13 70.4357L69.9679 70.783C68.6609 73.5837 67.0144 76.213 65.0655 78.6117L63.8467 80.1118C62.2881 82.03 60.5002 83.7499 58.5229 85.2328C56.5154 86.7384 54.3283 87.9882 52.012 88.9533L51.6622 89.0991C50.2227 89.6989 48.7404 90.1899 47.2276 90.5681L45.1626 91.0844C44.0584 91.3604 42.9245 91.5 41.7863 91.5H40.7361C39.2656 91.5 37.8153 91.8424 36.5 92.5L34.5 90L34.677 89.7345C35.1922 88.9617 35.2939 87.9848 34.949 87.1224C34.6623 86.4057 34.0943 85.8377 33.3776 85.551L32.3808 85.1523C32.1273 85.0509 31.8664 84.9692 31.6004 84.9078L28.654 84.2278C26.6681 83.7696 25.0131 82.4045 24.1854 80.5421C23.7359 79.5309 23.0353 78.6514 22.15 77.9875L21.5439 77.5329C20.2466 76.56 18.5889 76.2025 17.006 76.5542C15.7115 76.8419 14.5627 77.5831 13.7671 78.6439L12.9748 79.7003C12.3322 80.5571 11.5161 81.2688 10.5798 81.789L9.67154 82.2936C8.29393 83.0589 7.32188 84.3906 7.01282 85.9359L6.99935 86.0032C6.68413 87.5793 7.11103 89.2129 8.15706 90.4332C9.01999 91.44 10.2331 92.0815 11.5509 92.2279L12.2834 92.3093C13.4113 92.4346 14.4928 92.8285 15.4371 93.4581L15.7524 93.6683C16.578 94.2187 17.492 94.623 18.4546 94.8637L18.7691 94.9423C20.2306 95.3077 21.7625 95.2821 23.2111 94.8683C24.0652 94.6242 24.8763 94.2492 25.6154 93.7564L27.5 92.5L27.5974 92.4351C28.512 91.8254 29.5865 91.5 30.6857 91.5C31.55 91.5 32.4025 91.2988 33.1755 90.9122L34 90.5L36 93L34.9279 93.6433C33.9855 94.2087 32.9395 94.5801 31.8516 94.7355C30.6327 94.9096 29.4682 95.3545 28.4438 96.0375L27.909 96.394C26.3295 97.447 24.506 98.0765 22.6132 98.2221L22.2432 98.2505C20.1165 98.4141 17.9833 98.0307 16.0466 97.1369L13.8904 96.1417C12.9661 95.7151 11.9989 95.3886 11.0052 95.1678L9.7611 94.8914C8.60038 94.6334 7.50798 94.131 6.55675 93.4176L6.29419 93.2206C4.81681 92.1126 3.79976 90.4988 3.43759 88.688C3.15204 87.2602 3.28792 85.7802 3.82868 84.4283L4.09518 83.762C4.68956 82.2761 5.63465 80.956 6.84977 79.9145L8.38324 78.6001C8.44988 78.543 8.46338 78.4451 8.4147 78.372L5.8875 74.5812C5.63483 74.2022 5.5 73.7569 5.5 73.3014V72.596C5.5 71.9519 5.93838 71.3904 6.56327 71.2342C7.12747 71.0931 7.72021 71.3146 8.05371 71.791L10.9551 75.9358C10.9807 75.9724 11.0296 75.9838 11.0688 75.9625L14.5975 74.0377C15.8459 73.3568 17.2451 73 18.6671 73C20.506 73 22.2952 73.5964 23.7663 74.6997L24.0835 74.9376C25.015 75.6363 25.7711 76.5422 26.2919 77.5837L26.6399 78.2797C27.4944 79.9888 29.1152 81.1859 31 81.5L33.0918 82.0229C34.3404 82.3351 35.4807 82.9807 36.3908 83.8908C37.4374 84.9374 38.1308 86.2848 38.3741 87.7447L38.4859 88.4156C38.4939 88.4632 38.5372 88.4966 38.5853 88.4922L41.0701 88.2664C43.0168 88.0894 44.9366 87.6878 46.791 87.0697C47.9289 86.6904 49.0384 86.2308 50.1113 85.6944L52.4965 84.5018C55.8042 82.8479 58.7812 80.6024 61.2801 77.8763C62.4247 76.6276 63.4625 75.2852 64.3827 73.8631L64.5218 73.6481C67.1427 69.5977 68.8533 65.0266 69.5356 60.2506L69.7213 58.9511C69.9069 57.652 70 56.3414 70 55.029V54.0962C70 51.3875 69.5128 48.7009 68.5617 46.1646C68.5254 46.0678 68.428 46.008 68.3253 46.0194L65.0169 46.387C64.341 46.4621 63.659 46.4621 62.9831 46.387C60.7395 46.1377 58.6657 45.073 57.1556 43.3951L56.3791 42.5323C55.4802 41.5336 54.3036 40.8259 53 40.5L50.501 39.5913C48.5323 38.8754 46.7766 37.6733 45.3972 36.0968C44.4724 35.0399 43.7336 33.8339 43.212 32.53L42.5165 30.7913C42.1768 29.9421 42.0395 29.0255 42.1155 28.1141L42.4403 24.2163C42.4753 23.7959 42.2183 23.4061 41.8181 23.2727C41.3587 23.1196 40.8596 23.3511 40.6797 23.8007L40.2136 24.9661C40.0735 25.3164 39.8473 25.6257 39.5561 25.8656L33.2859 31.0292C32.1533 31.962 30.6673 32.3486 29.2237 32.0861L28.1281 31.8869C26.8363 31.6521 25.5285 32.2073 24.8002 33.2998C23.8018 34.7973 24.1912 36.8189 25.6743 37.8386L28.6697 39.8979C30.1075 40.8864 31.9688 41.0156 33.5293 40.2353C33.8422 40.0789 34.1712 39.9572 34.5105 39.8724L34.8907 39.7773C36.8926 39.2769 39.0088 39.5341 40.8325 40.4996L46.5 43.5L54.5 49L60.0457 51.9862C60.6723 52.3236 61.2064 52.8097 61.6012 53.4018C62.4662 54.6993 62.5696 56.3608 61.8722 57.7555L61.7641 57.9719C61.2701 58.9598 60.4481 59.7453 59.4387 60.1939L58.2122 60.739C57.0842 61.2403 56.079 61.9812 55.2662 62.9101L54.9469 63.275C53.6728 64.7311 52.8172 66.5053 52.4711 68.4089L51.8594 71.7731C51.3012 74.8434 49.7739 77.654 47.5015 79.7927L43.7547 83.3191C42.96 84.0671 41.8732 84.4216 40.7903 84.2863C39.3908 84.1114 38.2161 83.1483 37.7701 81.8103L37.3072 80.4214C37.1037 79.8111 37 79.172 37 78.5287V76.9721C37 74.3657 36.346 71.801 35.0979 69.5129L34.6951 68.7744C34.2324 67.926 33.7052 67.1145 33.1182 66.3469L29.5531 61.6848C28.2215 59.9435 27.5 57.8123 27.5 55.6201V54.9833C27.5 54.332 27.395 53.685 27.1891 53.0672C26.7437 51.731 25.8466 50.5916 24.6522 49.8451L19.7683 46.7927C18.9395 46.2747 17.9817 46 17.0043 46H16.6549C16.2223 46 15.7936 45.9174 15.3919 45.7568C14.2272 45.2909 13.4135 44.2216 13.275 42.9748L13.0448 40.9028C13.015 40.635 12.957 40.3711 12.8719 40.1156L12.4256 38.7768C12.1714 38.0143 11.4579 37.5 10.6541 37.5C9.94679 37.5 9.30019 37.8996 8.98388 38.5322L7.28828 41.9234C7.0964 42.3072 6.9357 42.7058 6.80773 43.1153L5.58412 47.0308C4.86399 49.3352 4.42388 51.7179 4.27328 54.1275L4.16788 55.814C4.05655 57.5953 4.20384 59.3833 4.60516 61.1223L5.38074 64.4832C5.45935 64.8238 5.46454 65.1773 5.39599 65.5201L5.23731 66.3134C5.09932 67.0034 4.49354 67.5 3.78995 67.5C3.29643 67.5 2.83557 67.2534 2.56182 66.8427L2.27886 66.4183C2.0949 66.1424 1.96939 65.8317 1.91007 65.5054L1.30347 62.1691C1.10157 61.0586 1 59.9322 1 58.8035V54.3919C1 52.4679 1.17314 50.5477 1.51733 48.6548C2.16771 45.0778 3.42157 41.6374 5.22532 38.4807L5.5 38L7.91644 34.3753C8.2263 33.9105 8.05868 33.2793 7.55903 33.0295C7.51973 33.0099 7.47908 32.993 7.43739 32.9791L5.53552 32.3452C3.93175 31.8106 2.65514 30.5804 2.06156 28.9975C1.69452 28.0187 1.60865 26.9568 1.81365 25.9317L2.02136 24.8932C2.32959 23.3521 3.19515 21.9786 4.45249 21.0356L4.87516 20.7186C5.91809 19.9364 6.61958 18.7825 6.8339 17.4966C6.94356 16.8387 7.18197 16.2089 7.53547 15.6432L7.86484 15.1163C8.91877 13.43 10.5504 12.1849 12.4551 11.6135L12.9082 11.4775C13.9578 11.1626 15.0617 11.0702 16.1491 11.2061L16.4488 11.2436C17.7867 11.4108 19.0458 11.9678 20.0695 12.8453L20.981 13.6266C21.6386 14.1902 22.476 14.5 23.3421 14.5C23.7772 14.5 24.2087 14.5782 24.616 14.731L25.2636 14.9739C27.0225 15.6334 28.4669 16.9338 29.307 18.6139L29.943 19.8859C29.9731 19.9461 29.9429 20.019 29.879 20.0403L27.0441 20.9853C27.0183 20.9939 26.9901 20.9834 26.9761 20.9602Z" stroke="#052F45"/>
<path d="M70.5 24.5V23.9289C70.5 20.1022 73.6022 17 77.4289 17V20.5H77.25C75.1789 20.5 73.5 22.1789 73.5 24.25C73.5 26.3211 75.1789 28 77.25 28H77.75C79.8211 28 81.5 26.3211 81.5 24.25C81.5 22.1789 79.8211 20.5 77.75 20.5H77.6962V17.0419C81.4471 17.0188 84.5 20.053 84.5 23.8039V24.5C84.5 28.366 81.366 31.5 77.5 31.5C73.634 31.5 70.5 28.366 70.5 24.5Z" stroke="#052F45"/>
<path d="M56 25.5V23C56 19.6863 58.6863 17 62 17H65.7538C66.9943 17 68 18.0057 68 19.2462V19.684C68 20.4574 67.4736 21.1316 66.7233 21.3192C66.2626 21.4343 65.7747 21.3498 65.3796 21.0864L65.1095 20.9063C64.7121 20.6414 64.2451 20.5 63.7675 20.5H63.338C61.2183 20.5 59.5 22.2183 59.5 24.338V24.9042C59.5 26.6616 60.8317 28.1332 62.5804 28.308L63.1815 28.3681C63.9999 28.45 64.8016 28.0979 65.2951 27.4399L65.6 27.0333C65.8518 26.6976 66.247 26.5 66.6667 26.5C67.403 26.5 68 27.097 68 27.8333V29C68 30.3807 66.8807 31.5 65.5 31.5H62C58.6863 31.5 56 28.8137 56 25.5Z" stroke="#052F45"/>
<path d="M87 25V25.3715C87 26.2709 87.7291 27 88.6285 27C89.173 27 89.6814 26.7279 89.9834 26.2748L90.3066 25.7901C90.4274 25.6088 90.6308 25.5 90.8486 25.5C91.2084 25.5 91.5 25.7916 91.5 26.1514V26.25C91.5 26.4123 91.4474 26.5702 91.35 26.7L87.375 32C87.1316 32.3246 87 32.7193 87 33.125C87 34.1605 87.8395 35 88.875 35H93.75C94.7165 35 95.5 34.2165 95.5 33.25C95.5 32.2835 94.7165 31.5 93.75 31.5H92.555C92.5315 31.5 92.5175 31.4738 92.5305 31.4542L94.8554 27.9669C95.2757 27.3364 95.5 26.5957 95.5 25.838V25.4C95.5 23.5222 93.9778 22 92.1 22H90C88.3431 22 87 23.3431 87 25Z" stroke="#052F45"/>
<path d="M81 61.8566V51C81 50.1716 81.6716 49.5 82.5 49.5C83.3284 49.5 84 50.1716 84 51V61.8952C84 61.94 84.0499 61.9667 84.0872 61.9419L85.035 61.31C85.3382 61.1079 85.6945 61 86.0589 61H86.3761C87.0366 61 87.6124 61.4495 87.7726 62.0903C87.9108 62.6433 87.7098 63.2257 87.2598 63.5757L84.1551 65.9904C83.7305 66.3207 83.2079 66.5 82.67 66.5C82.2316 66.5 81.8014 66.3808 81.4255 66.1553L77.775 63.965C77.2942 63.6765 77 63.1569 77 62.5962C77 61.7147 77.7147 61 78.5962 61H78.618C78.8692 61 79.117 61.0585 79.3416 61.1708L80.8717 61.9359C80.9306 61.9653 81 61.9225 81 61.8566Z" stroke="#052F45"/>
<path d="M93.5 69.4393V58.75C93.5 57.7835 94.2835 57 95.25 57C96.2165 57 97 57.7835 97 58.75V69.4393C97 69.4672 97.0293 69.4853 97.0543 69.4729L98.1611 68.9194C98.6799 68.6601 99.2978 68.6985 99.7803 69.0202C100.23 69.32 100.5 69.8246 100.5 70.3649V70.5C100.5 71.1247 100.188 71.7082 99.6679 72.0547L96.624 74.084C96.2171 74.3552 95.739 74.5 95.25 74.5C94.761 74.5 94.2829 74.3552 93.876 74.084L90.832 72.0547C90.3122 71.7082 90 71.1247 90 70.5V70.3649C90 69.8246 90.2701 69.32 90.7197 69.0202C91.2022 68.6985 91.8201 68.6601 92.3389 68.9194L93.4457 69.4729C93.4707 69.4853 93.5 69.4672 93.5 69.4393Z" stroke="#052F45"/>
</svg>
