<svg width="139" height="141" viewBox="0 0 139 141" fill="none" xmlns="http://www.w3.org/2000/svg">
<path d="M29.1691 76.4499L22.5313 52.3608C22.2379 51.2959 22.8665 50.2068 23.9354 49.9283L48.5446 43.5163L49.1325 45.6495L27.4141 51.3083L51.1036 56.3121C51.7469 56.448 52.4128 56.2638 52.8866 55.8188L69.3152 40.3908L49.5712 45.5352L48.9834 43.4019L71.6183 37.5043C72.6872 37.2258 73.7915 37.8633 74.085 38.9282L80.7228 63.0173C81.0162 64.0822 80.3876 65.1712 79.3187 65.4497L56.6838 71.3474L56.0372 69.0008L76.259 63.7319C77.3278 63.4534 77.9565 62.3644 77.663 61.2995L72.081 41.042L53.5974 58.3746C53.1205 58.8218 52.4498 59.005 51.8035 58.8644L25.573 53.1599L31.1551 73.4174C31.4485 74.4823 32.5529 75.1198 33.6217 74.8413L55.5985 69.1151L56.2451 71.4617L31.6358 77.8738C30.5669 78.1523 29.4626 77.5148 29.1691 76.4499Z" fill="#052F45" stroke="#052F45"/>
<path d="M0.877716 110.553L15.5247 80.562C16.0094 79.5695 17.2153 79.1403 18.2181 79.6034L48.3038 93.4971L47.0518 96.0608L20.9505 84.0072L40.0234 108.317C40.4258 108.83 41.0617 109.112 41.7241 109.071L71.3074 107.262L47.579 96.3043L48.8311 93.7406L76.5441 106.538C77.5469 107.002 77.9668 108.182 77.4821 109.174L62.8352 139.165C62.3504 140.157 61.1445 140.587 60.1417 140.123L32.4288 127.326L33.8061 124.505L58.6189 135.964C59.6217 136.427 60.8276 135.998 61.3123 135.005L73.4563 110.14L40.2285 112.148C39.5623 112.188 38.9234 111.902 38.5219 111.384L17.5628 84.3279L5.41879 109.194C4.93406 110.186 5.35404 111.366 6.35684 111.829L33.2788 124.262L31.9015 127.082L1.81577 113.188C0.812962 112.725 0.392983 111.545 0.877716 110.553Z" fill="#052F45" stroke="#052F45"/>
<path d="M85.9357 99.6537L77.0241 75.3349C76.644 74.2978 77.182 73.1639 78.2257 72.8022L103.003 64.2166L103.789 66.3597L81.9699 73.9201L106.749 77.1532C107.403 77.2386 108.054 77.002 108.491 76.52L124.065 59.3339L104.229 66.207L103.444 64.0639L126.238 56.1656C127.282 55.8039 128.436 56.3515 128.816 57.3887L137.728 81.7075C138.108 82.7446 137.57 83.8785 136.526 84.2402L113.732 92.1385L112.868 89.781L133.238 82.7228C134.282 82.3611 134.82 81.2272 134.439 80.1901L126.96 59.7798L109.439 79.0872C108.999 79.5717 108.343 79.8075 107.685 79.7177L80.2372 75.9696L87.7166 96.3799C88.0966 97.417 89.2508 97.9646 90.2945 97.603L112.427 89.9338L113.291 92.2912L88.5137 100.877C87.47 101.238 86.3158 100.691 85.9357 99.6537Z" fill="#052F45" stroke="#052F45"/>
<path d="M75.4718 23.6866L89.643 9.84305C90.1428 9.35487 90.8676 9.15499 91.5555 9.31569L114.315 14.6327L113.038 15.9508L92.4365 11.9068L106.381 22.5639C106.476 22.6368 106.564 22.7178 106.645 22.806L118.328 35.6283L113.309 16.1992L114.586 14.881L120.964 37.1814C121.153 37.8433 120.975 38.5539 120.492 39.0568L107.247 52.8604C106.48 53.6601 105.191 53.7015 104.374 52.9527L90.6735 40.4004L92.0784 38.9504L104.295 50.1432C105.109 50.8893 106.393 50.8512 107.161 50.0579L119.053 37.7854L104.991 24.2552L90.3146 11.4558L78.4234 23.7283C77.6548 24.5215 77.6919 25.7695 78.5063 26.5157L91.8073 38.702L90.4024 40.152L75.5158 26.513C74.6855 25.7523 74.6656 24.4741 75.4718 23.6866Z" fill="#052F45" stroke="#052F45"/>
</svg>
