<svg width="136" height="135" viewBox="0 0 136 135" fill="none" xmlns="http://www.w3.org/2000/svg">
<path d="M72.0075 91.4236L79.2969 93.9731C80.2097 94.2923 81.2249 94.0191 81.8541 93.2847C82.8476 92.1251 82.4868 90.3407 81.1209 89.6581L79.8095 89.0028L82.3425 87.4822C88.525 83.7708 92.3068 77.0879 92.3053 69.877L92.3044 66.0607C92.3024 57.0016 86.6812 48.8939 78.1981 45.715L74.3457 44.2713C73.2156 43.8478 71.9561 44.4206 71.5326 45.5507C71.1228 46.6442 71.6451 47.8666 72.7185 48.3263L74.3006 49.004L79.1308 51.6035C80.2406 52.2007 81.2749 52.9285 82.2118 53.7714C84.5522 55.8767 86.2106 58.6328 86.9748 61.6866L87.2292 62.7034C87.6111 64.2294 87.8044 65.7964 87.8047 67.3695L87.8051 69.0213C87.8054 70.6671 87.5864 72.3056 87.1537 73.8935L87.0548 74.2565C86.5599 76.0727 85.7551 77.7899 84.6759 79.3323C83.4427 81.0948 81.8739 82.5968 80.0593 83.7521L77.3087 85.5033L78.5128 82.7925C78.9642 81.7762 78.5729 80.5832 77.6073 80.0317C76.6006 79.4567 75.3196 79.7761 74.7007 80.7565L70.5694 87.3009C70.092 88.0572 70.0061 88.9965 70.3385 89.8269C70.638 90.5752 71.2466 91.1575 72.0075 91.4236Z" fill="#052F45"/>
<path d="M54.2553 42.2176C54.8846 41.4834 55.8999 41.2103 56.8126 41.5298L64.1015 44.0809C64.8623 44.3472 65.4708 44.9295 65.7702 45.678V45.678C66.1023 46.5084 66.0162 47.4477 65.5387 48.2039L61.4059 54.7474C60.7868 55.7276 59.5058 56.0468 58.4992 55.4716V55.4716C57.5337 54.9198 57.1426 53.7267 57.5943 52.7105L58.7989 50L56.0479 51.7506C54.2331 52.9055 52.664 54.4071 51.4304 56.1694V56.1694C50.3509 57.7115 49.5457 59.4285 49.0504 61.2446L48.9514 61.6077C48.5184 63.1955 48.2989 64.8339 48.2989 66.4797V68.1315C48.2989 69.7046 48.4919 71.2717 48.8734 72.7978L49.1276 73.8146C49.8911 76.8685 51.5489 79.625 53.8888 81.7309V81.7309C54.8255 82.5739 55.8597 83.302 56.9693 83.8994L61.7989 86.5L63.3809 87.178C64.4543 87.638 64.9763 88.8605 64.5663 89.9539V89.9539C64.1425 91.0839 62.8829 91.6565 61.7528 91.2327L57.9008 89.7882C49.4184 86.6073 43.7989 78.4984 43.7989 69.4392V65.623C43.7989 58.4121 47.5823 51.73 53.7656 48.02L56.2989 46.5L54.9876 45.8443C53.6219 45.1615 53.2616 43.377 54.2553 42.2176V42.2176Z" fill="#052F45"/>
<path d="M84.7782 22.6355L85.799 19L84.7167 18.4589C82.7749 17.488 80.7561 16.6791 78.6811 16.0406C76.4309 15.3483 74.1232 14.8589 71.7856 14.5784L69.8336 14.3442C65.1594 13.7833 60.4361 13.7625 55.7571 14.2824L53.7989 14.5L52.2989 10.5L53.0223 10.3967C59.5005 9.47121 66.0834 9.56075 72.534 10.6621L74.784 11.0462C80.4186 12.0082 85.8457 13.9325 90.8278 16.735C91.0989 16.8875 91.2184 17.2149 91.1092 17.5062L90.2193 19.8791C90.0004 20.463 90.3633 21.1026 90.9767 21.2141L100.799 23L99.9453 20.439C99.1824 18.1504 98.2283 15.93 97.0931 13.8015L95.3664 10.5639C95.0716 10.0112 94.347 9.86246 93.8584 10.2544L92.3053 11.5L88.3973 9.66232C85.342 8.22559 82.1308 7.14707 78.8277 6.44823C75.8478 5.8178 72.8104 5.5 69.7646 5.5H68.5584C64.7291 5.5 60.9102 5.89763 57.163 6.68651L53.2989 7.5L46.2989 11.5L51.7989 10.5L53.2989 14.5L41.315 17.7264C40.639 17.9085 39.9803 18.1499 39.3469 18.448L32.8712 21.4954C32.2279 21.7982 31.4638 21.6648 30.961 21.1621C30.3145 20.5155 30.3011 19.4714 30.9309 18.8085L37.7645 11.6152C38.7786 10.5477 39.9825 9.67832 41.3148 9.05139L51.4441 4.28466C54.6534 2.77437 58.1126 1.86565 61.6499 1.60363L65.745 1.3003C68.444 1.10037 71.154 1.10037 73.853 1.3003L74.1453 1.32195C80.1738 1.76851 86.0302 3.53633 91.299 6.5L93.1684 4.6306C94.029 3.76998 95.4523 3.87114 96.1826 4.84482L97.718 6.89203C100.735 10.9145 102.827 15.5529 103.846 20.4766L105.116 26.615C105.232 27.1777 105.102 27.7633 104.757 28.223C104.196 28.9702 103.194 29.2311 102.34 28.8517L96.1975 26.1216C95.2701 25.7094 94.2876 25.4346 93.2809 25.306L89.3221 24.8C87.7773 24.6026 86.2973 24.0579 84.993 23.2069C84.8043 23.0838 84.7173 22.8524 84.7782 22.6355Z" fill="#052F45"/>
<path d="M113.388 85.3972L117.021 86.4259L117.564 85.3449C118.539 83.4051 119.353 81.3882 119.996 79.3145C120.693 77.0658 121.188 74.7592 121.473 72.4223L121.712 70.4708C122.283 65.7978 122.314 61.0746 121.804 56.3945L121.591 54.4359L125.594 52.9446L125.696 53.6682C126.607 60.1485 126.503 66.7311 125.388 73.1793L124.999 75.4284C124.024 81.0609 122.088 86.4838 119.275 91.4597C119.122 91.7305 118.794 91.8492 118.503 91.7393L116.132 90.8443C115.549 90.6241 114.908 90.9856 114.795 91.5988L112.988 101.417L115.551 100.569C117.841 99.8112 120.063 98.862 122.195 97.7314L125.436 96.0118C125.989 95.7182 126.14 94.994 125.749 94.5045L124.506 92.9486L126.353 89.0447C127.796 85.9926 128.882 82.7838 129.588 79.4822C130.225 76.5037 130.549 73.467 130.556 70.4212L130.559 69.215C130.567 65.3858 130.178 61.566 129.397 57.8171L128.592 53.9512L124.608 46.9425L125.595 52.4446L121.592 53.9359L118.392 41.9449C118.212 41.2684 117.972 40.6093 117.675 39.9751L114.642 33.4928C114.34 32.8488 114.475 32.085 114.979 31.5833C115.627 30.9382 116.671 30.9271 117.333 31.5583L124.511 38.4078C125.576 39.4242 126.443 40.6301 127.067 41.9637L131.811 52.1034C133.315 55.3161 134.216 58.7773 134.47 62.3151L134.764 66.4108C134.958 69.1102 134.952 71.8203 134.747 74.5188L134.724 74.8111C134.332 79.9585 132.976 84.9783 130.735 89.6118C130.055 91.019 130.271 92.7191 131.374 93.8268V93.8268C132.233 94.6894 132.128 96.1125 131.153 96.8406L129.102 98.3715C125.073 101.379 120.431 103.462 115.505 104.469L109.363 105.726C108.8 105.841 108.215 105.709 107.756 105.363C107.01 104.801 106.752 103.798 107.133 102.946L109.876 96.8088C110.291 95.8823 110.568 94.9003 110.698 93.8939L111.213 89.9363C111.414 88.3919 111.962 86.9131 112.816 85.6107C112.939 85.4222 113.171 85.3358 113.388 85.3972Z" fill="#052F45"/>
<path d="M50.993 112.378L49.8819 115.987L50.9503 116.555C52.8674 117.574 54.8653 118.433 56.9238 119.123C59.156 119.871 61.4508 120.418 63.7807 120.757L65.7262 121.04C70.385 121.717 75.1063 121.855 79.7968 121.452L81.7598 121.284L83.1596 125.32L82.4339 125.405C75.9346 126.169 69.356 125.915 62.9348 124.653L60.6951 124.213C55.0862 123.111 49.7088 121.052 44.7982 118.126C44.5309 117.967 44.4197 117.637 44.5361 117.348L45.4849 114.998C45.7183 114.42 45.3715 113.771 44.761 113.645L34.9863 111.614L35.7759 114.196C36.4814 116.503 37.3799 118.746 38.4617 120.902L40.1071 124.182C40.388 124.742 41.1087 124.909 41.6069 124.529L43.1906 123.323L47.0516 125.257C50.0701 126.77 53.2534 127.928 56.5381 128.709C59.5012 129.413 62.5299 129.807 65.5748 129.883L66.7805 129.913C70.6086 130.008 74.4363 129.706 78.2019 129.011L82.0851 128.294L89.1826 124.47L83.6594 125.332L82.2596 121.296L94.3203 118.369C95.0007 118.204 95.6651 117.979 96.3058 117.697L102.855 114.812C103.506 114.526 104.267 114.678 104.757 115.193C105.387 115.856 105.374 116.9 104.728 117.547L97.7173 124.567C96.6769 125.609 95.4517 126.448 94.1042 127.042L83.8592 131.555C80.6132 132.984 77.1324 133.807 73.5897 133.98L69.4883 134.181C66.7852 134.314 64.076 134.246 61.3828 133.979L61.0912 133.95C55.954 133.441 50.9663 131.971 46.385 129.626C44.9936 128.913 43.289 129.091 42.1565 130.168V130.168C41.2747 131.007 39.8543 130.871 39.1486 129.879L37.6647 127.794C34.7491 123.698 32.7731 119.009 31.8775 114.061L30.7609 107.893C30.6586 107.327 30.8039 106.745 31.1601 106.294C31.739 105.561 32.7476 105.325 33.5914 105.726L39.6642 108.608C40.581 109.044 41.5564 109.343 42.5596 109.497L46.5045 110.101C48.0439 110.337 49.5099 110.918 50.7926 111.802C50.9781 111.929 51.0593 112.163 50.993 112.378Z" fill="#052F45"/>
<path d="M22.5116 50.6297L18.8779 49.6026L18.3349 50.6839C17.3605 52.624 16.5481 54.6413 15.906 56.7153C15.2097 58.9643 14.7162 61.2711 14.4316 63.6081L14.1939 65.5597C13.6248 70.2329 13.5958 74.9562 14.1074 79.636L14.3215 81.5946L10.3189 83.0876L10.2168 82.364C9.30278 75.8842 9.40393 69.3015 10.5166 62.8529L10.9047 60.6035C11.8767 54.9706 13.8105 49.5469 16.6217 44.5698C16.7747 44.2989 17.1023 44.18 17.3934 44.2898L19.7648 45.1838C20.3483 45.4038 20.9885 45.042 21.1011 44.4287L22.9043 34.6097L20.3418 35.4588C18.0518 36.2177 15.8298 37.1678 13.6993 38.2993L10.4586 40.0203C9.90541 40.3141 9.75542 41.0384 10.1465 41.5278L11.3894 43.0831L9.5448 46.9878C8.10269 50.0406 7.01851 53.2499 6.31386 56.5518C5.67818 59.5305 5.35503 62.5674 5.34967 65.6132L5.34754 66.8193C5.3408 70.6486 5.7317 74.4682 6.51397 78.2168L7.32065 82.0823L11.3083 89.0893L10.318 83.5876L14.3206 82.0946L17.526 94.0842C17.7068 94.7606 17.9471 95.4196 18.2441 96.0536L21.2801 102.535C21.5817 103.179 21.447 103.942 20.9433 104.444C20.2957 105.09 19.2516 105.101 18.5898 104.47L11.4085 97.6239C10.3428 96.608 9.47551 95.4025 8.85093 94.0692L4.10205 83.9315C2.59742 80.7195 1.6948 77.2587 1.43901 73.721L1.14289 69.6254C0.947718 66.9261 0.952491 64.216 1.15717 61.5174L1.17934 61.2251C1.56976 56.0775 2.92355 51.0572 5.16212 46.4227C5.84199 45.0152 5.62484 43.3151 4.5215 42.2079V42.2079C3.66239 41.3458 3.76606 39.9226 4.74102 39.1941L6.79094 37.6623C10.8187 34.6525 15.4608 32.5684 20.3863 31.5583L26.5269 30.2991C27.0898 30.1837 27.6752 30.3155 28.1343 30.6611C28.8805 31.2229 29.1396 32.2258 28.7587 33.0787L26.0178 39.2166C25.604 40.1433 25.3275 41.1254 25.197 42.1318L24.6841 46.0897C24.4839 47.6341 23.9367 49.1132 23.0833 50.416C22.9599 50.6045 22.7284 50.691 22.5116 50.6297Z" fill="#052F45"/>
<path d="M37.2988 36.5L40.2988 40L41.7116 38.5873C42.6526 37.6462 44.1011 37.4376 45.2695 38.0749L47.5323 39.3092C48.3328 39.7458 49.2884 39.7947 50.1292 39.442L60.422 35.1247C61.2038 34.7968 61.8104 34.1534 62.0917 33.3536L63.0938 30.5046C63.5162 29.3036 64.6507 28.5 65.9238 28.5H70.3964C71.7636 28.5 72.9579 29.4244 73.3006 30.7479L73.9135 33.1147C74.1564 34.0528 74.8376 34.8159 75.7423 35.1632L85.3625 38.8571C85.9702 39.0904 86.6373 39.1198 87.2631 38.9407L90.6843 37.9619C91.6874 37.6749 92.7676 37.9297 93.5367 38.6347L96.7784 41.6063C97.6942 42.4458 97.9978 43.763 97.5419 44.9187L96.6227 47.2485C96.3491 47.9421 96.3436 48.7127 96.6072 49.4102L100.409 59.4684C100.661 60.1343 101.141 60.6891 101.764 61.0334L105.584 63.144C106.54 63.6721 107.133 64.6779 107.133 65.7698V69.7657C107.133 71.0916 106.262 72.2602 104.992 72.64L102.192 73.477C101.312 73.74 100.601 74.3916 100.263 75.2452L96.2486 85.3661C95.9602 86.0931 95.9672 86.904 96.268 87.626L97.5266 90.6465C97.9939 91.7682 97.7385 93.0609 96.8798 93.9206L93.7254 97.0784C92.8661 97.9386 91.5726 98.1951 90.4501 97.7279L87.5002 96.5C86.7338 96.181 85.8695 96.1939 85.1129 96.5354L75.3343 100.95C74.6682 101.251 74.1348 101.785 73.8342 102.451L72.7551 104.843C72.2956 105.861 71.3081 106.54 70.1925 106.604L65.5908 106.868C64.2382 106.946 63.0013 106.107 62.5728 104.822L61.7219 102.269C61.4526 101.461 60.8528 100.806 60.072 100.467L50.9255 96.4898C50.2036 96.1759 49.3872 96.1584 48.6524 96.441L45.1185 97.8001C44.0119 98.2257 42.7586 97.9597 41.9202 97.1214L38.8278 94.029C37.9147 93.1159 37.6883 91.721 38.2658 90.566L39.6713 87.7551C40.069 86.9597 40.0933 86.0289 39.7377 85.2138L35.3458 75.1473C34.9984 74.3509 34.3227 73.7442 33.4935 73.4843L30.8717 72.6624C29.6156 72.2686 28.7629 71.102 28.7692 69.7856L28.7892 65.55C28.795 64.3138 29.5584 63.2078 30.7122 62.7641L34.0688 61.4731C34.8526 61.1716 35.4743 60.5553 35.7825 59.774L39.7746 49.655C40.1063 48.8144 40.0413 47.8691 39.5979 47.0818L38.4161 44.9837C37.7556 43.811 37.957 42.3419 38.9087 41.3901L39.7988 40.5L36.7988 37L33.5419 40.6188C32.7803 41.465 32.5634 42.6694 32.9818 43.7282L34.3816 47.2706C34.6505 47.9509 34.6615 48.706 34.4126 49.3938L31.7417 56.776C31.4592 57.5568 30.8656 58.1856 30.1024 58.5128L26.1171 60.2208C25.014 60.6935 24.2988 61.7781 24.2988 62.9782V72.9215C24.2988 74.1718 25.0743 75.291 26.2448 75.7302L29.759 77.0489C30.5267 77.337 31.143 77.9267 31.4646 78.681L34.3315 85.404C34.6316 86.1079 34.6515 86.8999 34.3869 87.618L32.9642 91.4791C32.5587 92.5794 32.8315 93.815 33.6625 94.6423L41.102 102.049C41.9804 102.923 43.3062 103.168 44.4386 102.664L48.0798 101.043C48.8558 100.697 49.742 100.697 50.5182 101.042L57.2667 104.041C57.932 104.337 58.4671 104.864 58.7722 105.526L60.4944 109.257C60.9848 110.32 62.0482 111 63.2183 111H72.7896C73.9554 111 75.0157 110.325 75.5085 109.268L77.6562 104.662C78.0023 103.92 78.6369 103.351 79.4126 103.089L85.9443 100.876C86.6583 100.634 87.4372 100.67 88.126 100.977L91.818 102.619C93.0004 103.145 94.3867 102.853 95.2571 101.896L102.416 94.021C103.25 93.1043 103.434 91.7695 102.88 90.6614L101.413 87.728C101.023 86.9482 100.992 86.0374 101.327 85.2326L104.286 78.129C104.588 77.4053 105.161 76.8283 105.882 76.5217L109.386 75.0328C110.494 74.5621 111.213 73.4751 111.213 72.2717V62.6054C111.213 61.3418 110.421 60.2138 109.233 59.7841L105.621 58.4782C104.783 58.1752 104.124 57.5154 103.82 56.6776L101.226 49.5071C100.953 48.7517 100.994 47.9182 101.34 47.1933L103.331 43.0268C103.905 41.8253 103.618 40.3893 102.627 39.5003L95.1907 32.8316C94.3387 32.0675 93.1263 31.8547 92.0651 32.2829L87.3274 34.1946C86.6636 34.4625 85.926 34.4842 85.2477 34.2558L78.7288 32.0614C77.8347 31.7604 77.1343 31.0564 76.8379 30.1608L75.4798 26.0574C75.0733 24.8292 73.9253 24 72.6317 24H63.3778C62.1273 24 61.0079 24.7757 60.5688 25.9466L58.8365 30.5662C58.4988 31.4668 57.7497 32.1508 56.8222 32.4056L49.7734 34.342C49.1411 34.5156 48.4694 34.4774 47.861 34.2331L44.0338 32.6966C42.9718 32.2702 41.7598 32.4851 40.9092 33.2507L37.2988 36.5Z" fill="#052F45"/>
<path d="M85.799 19L84.7782 22.6355C84.7173 22.8524 84.8043 23.0838 84.993 23.2069V23.2069C86.2973 24.0579 87.7773 24.6026 89.3221 24.8L93.2809 25.306C94.2876 25.4346 95.2701 25.7094 96.1975 26.1216L102.34 28.8517C103.194 29.2311 104.196 28.9702 104.757 28.223V28.223C105.101 27.7633 105.232 27.1777 105.116 26.615L103.846 20.4766C102.827 15.5529 100.735 10.9145 97.718 6.89203L96.1826 4.84482C95.4523 3.87114 94.029 3.76998 93.1684 4.6306L91.299 6.5M85.799 19L84.7167 18.4589C82.7749 17.488 80.7561 16.6791 78.6811 16.0406V16.0406C76.4309 15.3483 74.1231 14.8589 71.7856 14.5784L69.8336 14.3442C65.1594 13.7833 60.4361 13.7625 55.7571 14.2824L53.7989 14.5M85.799 19L84.7782 22.6355C84.7173 22.8524 84.8043 23.0838 84.993 23.2069C86.2973 24.0579 87.7773 24.6026 89.3221 24.8L93.2809 25.306C94.2876 25.4346 95.2701 25.7094 96.1975 26.1216L102.34 28.8517C103.194 29.2311 104.196 28.9702 104.757 28.223C105.102 27.7633 105.232 27.1777 105.116 26.615L103.846 20.4766C102.827 15.5529 100.735 10.9145 97.718 6.89203L96.1826 4.84482C95.4523 3.87114 94.029 3.76998 93.1684 4.6306L91.299 6.5M85.799 19L84.7167 18.4589C82.7749 17.488 80.7561 16.6791 78.6811 16.0406C76.4309 15.3483 74.1232 14.8589 71.7856 14.5784L69.8336 14.3442C65.1594 13.7833 60.4361 13.7625 55.7571 14.2824L53.7989 14.5M91.299 6.5V6.5C86.0302 3.53633 80.1738 1.76851 74.1453 1.32195L73.853 1.3003C71.154 1.10037 68.4439 1.10037 65.745 1.3003L61.6499 1.60363C58.1126 1.86565 54.6534 2.77437 51.444 4.28466L41.3148 9.05139C39.9825 9.67832 38.7786 10.5477 37.7645 11.6152L30.9309 18.8085C30.3011 19.4714 30.3145 20.5155 30.961 21.1621V21.1621C31.4638 21.6648 32.2279 21.7982 32.8712 21.4954L39.3469 18.448C39.9803 18.1499 40.639 17.9085 41.315 17.7264L53.2989 14.5M91.299 6.5C86.0302 3.53633 80.1738 1.76851 74.1453 1.32195L73.853 1.3003C71.154 1.10037 68.444 1.10037 65.745 1.3003L61.6499 1.60363C58.1126 1.86565 54.6534 2.77437 51.4441 4.28466L41.3148 9.05139C39.9825 9.67832 38.7786 10.5477 37.7645 11.6152L30.9309 18.8085C30.3011 19.4714 30.3145 20.5155 30.961 21.1621C31.4638 21.6648 32.2279 21.7982 32.8712 21.4954L39.3469 18.448C39.9803 18.1499 40.639 17.9085 41.315 17.7264L53.2989 14.5M53.2989 14.5L51.7989 10.5L46.2989 11.5L53.2989 7.5M53.2989 7.5L57.163 6.68651C60.9102 5.89764 64.7291 5.5 68.5584 5.5H69.7646C72.8104 5.5 75.8478 5.8178 78.8277 6.44823V6.44823C82.1308 7.14707 85.342 8.22559 88.3973 9.66232L92.3053 11.5M53.2989 7.5L57.163 6.68651C60.9102 5.89763 64.7291 5.5 68.5584 5.5H69.7646C72.8104 5.5 75.8478 5.8178 78.8277 6.44823C82.1308 7.14707 85.342 8.22559 88.3973 9.66232L92.3053 11.5M92.3053 11.5L93.8584 10.2544C94.347 9.86246 95.0716 10.0112 95.3664 10.5639L97.0931 13.8015C98.2283 15.9301 99.1824 18.1504 99.9453 20.439L100.799 23M92.3053 11.5L93.8584 10.2544C94.347 9.86246 95.0716 10.0112 95.3664 10.5639L97.0931 13.8015C98.2283 15.93 99.1824 18.1504 99.9453 20.439L100.799 23M100.799 23L90.9767 21.2141C90.3633 21.1026 90.0004 20.463 90.2193 19.8791L91.1091 17.5062C91.2184 17.2149 91.0989 16.8875 90.8278 16.735V16.735C85.8457 13.9325 80.4186 12.0082 74.784 11.0462L72.534 10.6621C66.0834 9.56075 59.5005 9.47121 53.0223 10.3967L52.2989 10.5M100.799 23L90.9767 21.2141C90.3633 21.1026 90.0004 20.463 90.2193 19.8791L91.1092 17.5062C91.2184 17.2149 91.0989 16.8875 90.8278 16.735C85.8457 13.9325 80.4186 12.0082 74.784 11.0462L72.534 10.6621C66.0834 9.56075 59.5005 9.47121 53.0223 10.3967L52.2989 10.5M52.2989 10.5L53.7989 14.5M58.7989 50L57.5943 52.7105C57.1426 53.7267 57.5337 54.9198 58.4992 55.4716V55.4716C59.5058 56.0468 60.7868 55.7276 61.4059 54.7474L65.5387 48.2039C66.0162 47.4477 66.1023 46.5084 65.7702 45.678V45.678C65.4708 44.9295 64.8623 44.3472 64.1015 44.0809L56.8126 41.5298C55.8999 41.2103 54.8846 41.4834 54.2553 42.2176V42.2176C53.2616 43.377 53.6219 45.1615 54.9876 45.8443L56.2989 46.5L53.7656 48.02C47.5823 51.73 43.7989 58.4121 43.7989 65.623V69.4392C43.7989 78.4984 49.4184 86.6073 57.9008 89.7882L61.7528 91.2327C62.8829 91.6565 64.1425 91.0839 64.5663 89.9539V89.9539C64.9763 88.8605 64.4543 87.638 63.3809 87.178L61.7989 86.5L56.9693 83.8994C55.8597 83.302 54.8255 82.5739 53.8888 81.7309V81.7309C51.5489 79.625 49.8911 76.8685 49.1276 73.8146L48.8734 72.7978C48.4919 71.2717 48.2989 69.7046 48.2989 68.1315V66.4797C48.2989 64.8339 48.5184 63.1955 48.9514 61.6077L49.0504 61.2446C49.5457 59.4285 50.3509 57.7115 51.4304 56.1694V56.1694C52.664 54.4071 54.2331 52.9055 56.0479 51.7506L58.7989 50ZM79.2969 93.9731L72.0075 91.4236C71.2466 91.1575 70.638 90.5752 70.3385 89.8269C70.0061 88.9965 70.092 88.0572 70.5694 87.3009L74.7007 80.7565C75.3196 79.7761 76.6006 79.4567 77.6073 80.0317C78.5729 80.5832 78.9642 81.7762 78.5128 82.7925L77.3087 85.5033L80.0593 83.7521C81.8739 82.5968 83.4427 81.0948 84.6759 79.3323C85.7551 77.7899 86.5599 76.0727 87.0548 74.2565L87.1537 73.8935C87.5864 72.3056 87.8054 70.6671 87.8051 69.0213L87.8047 67.3695C87.8044 65.7964 87.6111 64.2294 87.2292 62.7034L86.9748 61.6866C86.2106 58.6328 84.5522 55.8767 82.2118 53.7714C81.2749 52.9285 80.2406 52.2007 79.1308 51.6035L74.3006 49.004L72.7185 48.3263C71.6451 47.8666 71.1228 46.6442 71.5326 45.5507C71.9561 44.4206 73.2156 43.8478 74.3457 44.2713L78.1981 45.715C86.6812 48.8939 92.3024 57.0016 92.3044 66.0607L92.3053 69.877C92.3068 77.0879 88.525 83.7708 82.3425 87.4822L79.8095 89.0028L81.1209 89.6581C82.4868 90.3407 82.8476 92.1251 81.8541 93.2847C81.2249 94.0191 80.2097 94.2923 79.2969 93.9731ZM117.021 86.4259L113.388 85.3972C113.171 85.3358 112.939 85.4222 112.816 85.6107C111.962 86.9131 111.414 88.3919 111.213 89.9363L110.698 93.8939C110.568 94.9003 110.291 95.8823 109.876 96.8088L107.133 102.946C106.752 103.798 107.01 104.801 107.756 105.363C108.215 105.709 108.8 105.841 109.363 105.726L115.505 104.469C120.431 103.462 125.073 101.379 129.102 98.3715L131.153 96.8406C132.128 96.1125 132.233 94.6894 131.374 93.8268V93.8268C130.271 92.7191 130.055 91.019 130.735 89.6118C132.976 84.9783 134.332 79.9585 134.724 74.8111L134.747 74.5188C134.952 71.8203 134.958 69.1102 134.764 66.4108L134.47 62.3151C134.216 58.7773 133.315 55.3161 131.811 52.1034L127.067 41.9637C126.443 40.6301 125.576 39.4242 124.511 38.4078L117.333 31.5583C116.671 30.9271 115.627 30.9382 114.979 31.5833C114.475 32.085 114.34 32.8488 114.642 33.4928L117.675 39.9751C117.972 40.6093 118.212 41.2684 118.392 41.9449L121.592 53.9359L125.595 52.4446L124.608 46.9425L128.592 53.9512L129.397 57.8171C130.178 61.566 130.567 65.3858 130.559 69.215L130.556 70.4212C130.549 73.467 130.225 76.5037 129.588 79.4822C128.882 82.7838 127.796 85.9926 126.353 89.0447L124.506 92.9486L125.749 94.5045C126.14 94.994 125.989 95.7182 125.436 96.0118L122.195 97.7314C120.063 98.862 117.841 99.8112 115.551 100.569L112.988 101.417L114.795 91.5988C114.908 90.9856 115.549 90.6241 116.132 90.8443L118.503 91.7393C118.794 91.8492 119.122 91.7305 119.275 91.4597C122.088 86.4838 124.024 81.0609 124.999 75.4284L125.388 73.1793C126.503 66.7311 126.607 60.1485 125.696 53.6682L125.594 52.9446L121.591 54.4359L121.804 56.3945C122.314 61.0746 122.283 65.7978 121.712 70.4708L121.473 72.4223C121.188 74.7592 120.693 77.0658 119.996 79.3145C119.353 81.3882 118.539 83.4051 117.564 85.3449L117.021 86.4259ZM49.8819 115.987L50.993 112.378C51.0593 112.163 50.9781 111.929 50.7926 111.802C49.5099 110.918 48.0439 110.337 46.5045 110.101L42.5596 109.497C41.5564 109.343 40.581 109.044 39.6642 108.608L33.5914 105.726C32.7476 105.325 31.739 105.561 31.1601 106.294C30.8039 106.745 30.6586 107.327 30.7609 107.893L31.8775 114.061C32.7731 119.009 34.7491 123.698 37.6647 127.794L39.1486 129.879C39.8543 130.871 41.2747 131.007 42.1565 130.168V130.168C43.289 129.091 44.9936 128.913 46.385 129.626C50.9663 131.971 55.954 133.441 61.0912 133.95L61.3828 133.979C64.076 134.246 66.7852 134.314 69.4883 134.181L73.5897 133.98C77.1324 133.807 80.6132 132.984 83.8592 131.555L94.1042 127.042C95.4517 126.448 96.6769 125.609 97.7173 124.567L104.728 117.547C105.374 116.9 105.387 115.856 104.757 115.193C104.267 114.678 103.506 114.526 102.855 114.812L96.3058 117.697C95.6651 117.979 95.0007 118.204 94.3203 118.369L82.2596 121.296L83.6594 125.332L89.1826 124.47L82.0851 128.294L78.2019 129.011C74.4363 129.706 70.6086 130.008 66.7805 129.913L65.5748 129.883C62.5299 129.807 59.5012 129.413 56.5381 128.709C53.2534 127.928 50.0701 126.77 47.0516 125.257L43.1906 123.323L41.6069 124.529C41.1087 124.909 40.388 124.742 40.1071 124.182L38.4617 120.902C37.3799 118.746 36.4814 116.503 35.7759 114.196L34.9863 111.614L44.761 113.645C45.3715 113.771 45.7183 114.42 45.4849 114.998L44.5361 117.348C44.4197 117.637 44.5309 117.967 44.7982 118.126C49.7088 121.052 55.0862 123.111 60.6951 124.213L62.9348 124.653C69.356 125.915 75.9346 126.169 82.4339 125.405L83.1596 125.32L81.7598 121.284L79.7968 121.452C75.1063 121.855 70.385 121.717 65.7262 121.04L63.7807 120.757C61.4508 120.418 59.156 119.871 56.9238 119.123C54.8653 118.433 52.8674 117.574 50.9503 116.555L49.8819 115.987ZM18.8779 49.6026L22.5116 50.6297C22.7284 50.691 22.9599 50.6045 23.0833 50.416C23.9367 49.1132 24.4839 47.6341 24.6841 46.0897L25.197 42.1318C25.3275 41.1254 25.604 40.1433 26.0178 39.2166L28.7587 33.0787C29.1396 32.2258 28.8805 31.2229 28.1343 30.6611C27.6752 30.3155 27.0898 30.1837 26.5269 30.2991L20.3863 31.5583C15.4608 32.5684 10.8187 34.6525 6.79094 37.6623L4.74102 39.1941C3.76606 39.9226 3.66239 41.3458 4.5215 42.2079V42.2079C5.62484 43.3151 5.84199 45.0152 5.16212 46.4227C2.92355 51.0572 1.56976 56.0775 1.17934 61.2251L1.15717 61.5174C0.952491 64.216 0.947718 66.9261 1.14289 69.6254L1.43901 73.721C1.6948 77.2587 2.59742 80.7195 4.10205 83.9315L8.85093 94.0692C9.47551 95.4025 10.3428 96.608 11.4085 97.6239L18.5898 104.47C19.2516 105.101 20.2957 105.09 20.9433 104.444C21.447 103.942 21.5817 103.179 21.2801 102.535L18.2441 96.0536C17.9471 95.4196 17.7068 94.7606 17.526 94.0842L14.3206 82.0946L10.318 83.5876L11.3083 89.0893L7.32065 82.0823L6.51397 78.2168C5.7317 74.4682 5.3408 70.6486 5.34754 66.8193L5.34967 65.6132C5.35503 62.5674 5.67818 59.5305 6.31386 56.5518C7.01851 53.2499 8.10269 50.0406 9.5448 46.9878L11.3894 43.0831L10.1465 41.5278C9.75542 41.0384 9.90541 40.3141 10.4586 40.0203L13.6993 38.2993C15.8298 37.1678 18.0518 36.2177 20.3418 35.4588L22.9043 34.6097L21.1011 44.4287C20.9885 45.042 20.3483 45.4038 19.7648 45.1838L17.3934 44.2898C17.1023 44.18 16.7747 44.2989 16.6217 44.5698C13.8105 49.5469 11.8767 54.9706 10.9047 60.6035L10.5166 62.8529C9.40393 69.3015 9.30278 75.8842 10.2168 82.364L10.3189 83.0876L14.3215 81.5946L14.1074 79.636C13.5958 74.9562 13.6248 70.2329 14.1939 65.5597L14.4316 63.6081C14.7162 61.2711 15.2097 58.9643 15.906 56.7153C16.5481 54.6413 17.3605 52.624 18.3349 50.6839L18.8779 49.6026ZM37.2988 36.5L40.2988 40L41.7116 38.5873C42.6526 37.6462 44.1011 37.4376 45.2695 38.0749L47.5323 39.3092C48.3328 39.7458 49.2884 39.7947 50.1292 39.442L60.422 35.1247C61.2038 34.7968 61.8104 34.1534 62.0917 33.3536L63.0938 30.5046C63.5162 29.3036 64.6507 28.5 65.9238 28.5H70.3964C71.7636 28.5 72.9579 29.4244 73.3006 30.7479L73.9135 33.1147C74.1564 34.0528 74.8376 34.8159 75.7423 35.1632L85.3625 38.8571C85.9702 39.0904 86.6373 39.1198 87.2631 38.9407L90.6843 37.9619C91.6874 37.6749 92.7676 37.9297 93.5367 38.6347L96.7784 41.6063C97.6942 42.4458 97.9978 43.763 97.5419 44.9187L96.6227 47.2485C96.3491 47.9421 96.3436 48.7127 96.6072 49.4102L100.409 59.4684C100.661 60.1343 101.141 60.6891 101.764 61.0334L105.584 63.144C106.54 63.6721 107.133 64.6779 107.133 65.7698V69.7657C107.133 71.0916 106.262 72.2602 104.992 72.64L102.192 73.477C101.312 73.74 100.601 74.3916 100.263 75.2452L96.2486 85.3661C95.9602 86.0931 95.9672 86.904 96.268 87.626L97.5266 90.6465C97.9939 91.7682 97.7385 93.0609 96.8798 93.9206L93.7254 97.0784C92.8661 97.9386 91.5726 98.1951 90.4501 97.7279L87.5002 96.5C86.7338 96.181 85.8695 96.1939 85.1129 96.5354L75.3343 100.95C74.6682 101.251 74.1348 101.785 73.8342 102.451L72.7551 104.843C72.2956 105.861 71.3081 106.54 70.1925 106.604L65.5908 106.868C64.2382 106.946 63.0013 106.107 62.5728 104.822L61.7219 102.269C61.4526 101.461 60.8528 100.806 60.072 100.467L50.9255 96.4898C50.2036 96.1759 49.3872 96.1584 48.6524 96.441L45.1185 97.8001C44.0119 98.2257 42.7586 97.9597 41.9202 97.1214L38.8278 94.029C37.9147 93.1159 37.6883 91.721 38.2658 90.566L39.6713 87.7551C40.069 86.9597 40.0933 86.0289 39.7377 85.2138L35.3458 75.1473C34.9984 74.3509 34.3227 73.7442 33.4935 73.4843L30.8717 72.6624C29.6156 72.2686 28.7629 71.102 28.7692 69.7856L28.7892 65.55C28.795 64.3138 29.5584 63.2078 30.7122 62.7641L34.0688 61.4731C34.8526 61.1716 35.4743 60.5553 35.7825 59.774L39.7746 49.655C40.1063 48.8144 40.0413 47.8691 39.5979 47.0818L38.4161 44.9837C37.7556 43.811 37.957 42.3419 38.9087 41.3901L39.7988 40.5L36.7988 37L33.5419 40.6188C32.7803 41.465 32.5634 42.6694 32.9818 43.7282L34.3816 47.2706C34.6505 47.9509 34.6615 48.706 34.4126 49.3938L31.7417 56.776C31.4592 57.5568 30.8656 58.1856 30.1024 58.5128L26.1171 60.2208C25.014 60.6935 24.2988 61.7781 24.2988 62.9782V72.9215C24.2988 74.1718 25.0743 75.291 26.2448 75.7302L29.759 77.0489C30.5267 77.337 31.143 77.9267 31.4646 78.681L34.3315 85.404C34.6316 86.1079 34.6515 86.8999 34.3869 87.618L32.9642 91.4791C32.5587 92.5794 32.8315 93.815 33.6625 94.6423L41.102 102.049C41.9804 102.923 43.3062 103.168 44.4386 102.664L48.0798 101.043C48.8558 100.697 49.742 100.697 50.5182 101.042L57.2667 104.041C57.932 104.337 58.4671 104.864 58.7722 105.526L60.4944 109.257C60.9848 110.32 62.0482 111 63.2183 111H72.7896C73.9554 111 75.0157 110.325 75.5085 109.268L77.6562 104.662C78.0023 103.92 78.6369 103.351 79.4126 103.089L85.9443 100.876C86.6583 100.634 87.4372 100.67 88.126 100.977L91.818 102.619C93.0004 103.145 94.3867 102.853 95.2571 101.896L102.416 94.021C103.25 93.1043 103.434 91.7695 102.88 90.6614L101.413 87.728C101.023 86.9482 100.992 86.0374 101.327 85.2326L104.286 78.129C104.588 77.4053 105.161 76.8283 105.882 76.5217L109.386 75.0328C110.494 74.5621 111.213 73.4751 111.213 72.2717V62.6054C111.213 61.3418 110.421 60.2138 109.233 59.7841L105.621 58.4782C104.783 58.1752 104.124 57.5154 103.82 56.6776L101.226 49.5071C100.953 48.7517 100.994 47.9182 101.34 47.1933L103.331 43.0268C103.905 41.8253 103.618 40.3893 102.627 39.5003L95.1907 32.8316C94.3387 32.0675 93.1263 31.8547 92.0651 32.2829L87.3274 34.1946C86.6636 34.4625 85.926 34.4842 85.2477 34.2558L78.7288 32.0614C77.8347 31.7604 77.1343 31.0564 76.8379 30.1608L75.4798 26.0574C75.0733 24.8292 73.9253 24 72.6317 24H63.3778C62.1273 24 61.0079 24.7757 60.5688 25.9466L58.8365 30.5662C58.4988 31.4668 57.7497 32.1508 56.8222 32.4056L49.7734 34.342C49.1411 34.5156 48.4694 34.4774 47.861 34.2331L44.0338 32.6966C42.9718 32.2702 41.7598 32.4851 40.9092 33.2507L37.2988 36.5Z" stroke="#052F45"/>
</svg>
