<svg width="89" height="79" viewBox="0 0 89 79" fill="none" xmlns="http://www.w3.org/2000/svg">
<path d="M9 16.5C7.89543 16.5 7 17.3954 7 18.5V22C7 23.1046 7.89543 24 9 24H21V21.5H10V19.5H43.5001V21.5H21.1725V24H44.5C45.6046 24 46.5 23.1046 46.5 22V18.5C46.5 17.3954 45.6046 16.5 44.5 16.5H9Z" fill="#052F45"/>
<path d="M70.5 19C71.3284 19 72 19.6716 72 20.5C72 21.3284 71.3284 22 70.5 22H62.5001L62.4151 22.1699C61.5479 23.9044 59.7751 25 57.8359 25V22C58.755 22 59.5 21.255 59.5 20.3359V20.25C59.5 19.2835 58.7165 18.5 57.75 18.5C56.7835 18.5 56 19.2835 56 20.25C56 21.2165 56.7835 22 57.75 22H57.7798V25H57.5919C55.0559 25 53.0001 22.9442 53.0001 20.4082C53.0001 17.7519 55.247 15.6498 57.8974 15.8265L58.9354 15.8957C59.9218 15.9615 60.8215 16.4822 61.3699 17.3047L62.5001 19H70.5Z" fill="#052F45"/>
<path d="M7 33V36.5C7 37.6046 7.89543 38.5 9 38.5H21V36H10V34H43.5001V35.5667V36H21.1725V38.5H40.5001H44.5C45.6046 38.5 46.5 37.6046 46.5 36.5V33C46.5 31.8954 45.6046 31 44.5 31H9C7.89543 31 7 31.8954 7 33Z" fill="#052F45"/>
<path d="M75.2189 31.2949C75.3835 32.0007 76.0216 32.5 76.7463 32.5C77.3979 32.5 77.9025 31.9149 77.7954 31.2722L77.608 30.1478C77.537 29.7222 77.3649 29.3198 77.1059 28.9746L76 27.5C77.2257 26.8871 78 25.6343 78 24.2639V17.5C78 14.1863 75.3137 11.5 72 11.5H71V1H13.5C10.7386 1 8.5 3.23858 8.5 6V11.5H7C3.68629 11.5 1 14.1863 1 17.5V24.8069C1 25.8445 1.58626 26.7931 2.51435 27.2572C2.75327 27.3766 2.80494 27.6951 2.61606 27.8839L2.46261 28.0374C1.84626 28.6537 1.5 29.4897 1.5 30.3613V39.5C1.5 41.7091 3.29086 43.5 5.5 43.5H40.5001H43.61C44.3777 43.5 45 42.8777 45 42.11C45 41.2208 44.2792 40.5 43.39 40.5H40.5001H6C4.89543 40.5 4 39.6046 4 38.5V32C4 30.3431 5.34315 29 7 29H34V26H6C4.89543 26 4 25.1046 4 24V16.5C4 15.3954 4.89543 14.5 6 14.5H30V11.5H11V6.9738C11 5.32721 12.3272 3.98836 13.9737 3.97392L68.0001 3.5V11.5H30.1749V14.5H75V26H34.2472V29H72.3271C73.7072 29 74.9054 29.9509 75.2189 31.2949Z" fill="#052F45"/>
<path d="M63.0001 36V55.5H68.0001V59H62.5001C61.3955 59 60.5001 58.1046 60.5001 57L60.5 38.5L57.9341 39.0346C52.0043 40.2699 47.0188 44.2587 44.5123 49.7729L43.5 52V58C43.5 67.665 51.3351 75.5 61.0001 75.5H62.3612C71.4282 75.5 78.9278 68.4411 79.4764 59.3908L79.5001 59H68.2781V55.5H82.1001C82.5971 55.5 83.0001 55.9029 83.0001 56.4C83.0001 68.3293 73.3294 78 61.4001 78H60.021C49.3011 78 40.6692 69.2005 40.8753 58.4826L40.9341 55.4278C40.9777 53.1591 41.4071 50.9145 42.2038 48.7899L42.5 48L44.6565 44.6112C45.5454 43.2143 46.67 41.9823 47.9801 40.9699C50.305 39.1734 52.9538 37.8411 55.7822 37.0456L56.1306 36.9476C58.3663 36.3189 60.6777 36 63.0001 36Z" fill="#052F45"/>
<path d="M65.0689 31.2949L65.0062 51.9939C65.0028 53.1009 65.8992 54 67.0061 54H76.0001V51H68.0001V34L68.5294 34.0321C77.5019 34.5759 84.5001 42.0111 84.5001 51H76.3137V54H86.4757C87.3145 54 87.9915 53.3145 87.981 52.4758C87.8489 41.9026 79.9025 33.0641 69.4029 31.8118L65.0689 31.2949Z" fill="#052F45"/>
<path d="M53.0001 34.4691C53.0001 32.277 54.7771 30.5 56.9692 30.5H58.3075C59.9337 30.5 61.3961 31.4901 62.0001 33L62.2019 33.6055C62.3693 34.1078 62.1162 34.6535 61.6246 34.8502L60.9848 35.1061C60.4506 35.3198 59.8467 35.0397 59.6647 34.4939L59.6056 34.3167C59.267 33.3008 58.1884 32.7319 57.1588 33.0261L56.9506 33.0856C56.092 33.3309 55.5001 34.1156 55.5001 35.0086V35.8333C55.5001 36.2015 55.2016 36.5 54.8334 36.5H53.7223C53.3234 36.5 53.0001 36.1767 53.0001 35.7778V34.4691Z" fill="#052F45"/>
<path d="M9 16.5C7.89543 16.5 7 17.3954 7 18.5V22C7 23.1046 7.89543 24 9 24H21V21.5H10V19.5H43.5001V21.5H21.1725V24H44.5C45.6046 24 46.5 23.1046 46.5 22V18.5C46.5 17.3954 45.6046 16.5 44.5 16.5H9Z" stroke="#052F45" stroke-width="0.5"/>
<path d="M70.5 19C71.3284 19 72 19.6716 72 20.5C72 21.3284 71.3284 22 70.5 22H62.5001L62.4151 22.1699C61.5479 23.9044 59.7751 25 57.8359 25V22C58.755 22 59.5 21.255 59.5 20.3359V20.25C59.5 19.2835 58.7165 18.5 57.75 18.5C56.7835 18.5 56 19.2835 56 20.25C56 21.2165 56.7835 22 57.75 22H57.7798V25H57.5919C55.0559 25 53.0001 22.9442 53.0001 20.4082C53.0001 17.7519 55.247 15.6498 57.8974 15.8265L58.9354 15.8957C59.9218 15.9615 60.8215 16.4822 61.3699 17.3047L62.5001 19H70.5Z" stroke="#052F45" stroke-width="0.5"/>
<path d="M7 33V36.5C7 37.6046 7.89543 38.5 9 38.5H21V36H10V34H43.5001V35.5667V36H21.1725V38.5H40.5001H44.5C45.6046 38.5 46.5 37.6046 46.5 36.5V33C46.5 31.8954 45.6046 31 44.5 31H9C7.89543 31 7 31.8954 7 33Z" stroke="#052F45" stroke-width="0.5"/>
<path d="M75.2189 31.2949C75.3835 32.0007 76.0216 32.5 76.7463 32.5C77.3979 32.5 77.9025 31.9149 77.7954 31.2722L77.608 30.1478C77.537 29.7222 77.3649 29.3198 77.1059 28.9746L76 27.5C77.2257 26.8871 78 25.6343 78 24.2639V17.5C78 14.1863 75.3137 11.5 72 11.5H71V1H13.5C10.7386 1 8.5 3.23858 8.5 6V11.5H7C3.68629 11.5 1 14.1863 1 17.5V24.8069C1 25.8445 1.58626 26.7931 2.51435 27.2572C2.75327 27.3766 2.80494 27.6951 2.61606 27.8839L2.46261 28.0374C1.84626 28.6537 1.5 29.4897 1.5 30.3613V39.5C1.5 41.7091 3.29086 43.5 5.5 43.5H40.5001H43.61C44.3777 43.5 45 42.8777 45 42.11C45 41.2208 44.2792 40.5 43.39 40.5H40.5001H6C4.89543 40.5 4 39.6046 4 38.5V32C4 30.3431 5.34315 29 7 29H34V26H6C4.89543 26 4 25.1046 4 24V16.5C4 15.3954 4.89543 14.5 6 14.5H30V11.5H11V6.9738C11 5.32721 12.3272 3.98836 13.9737 3.97392L68.0001 3.5V11.5H30.1749V14.5H75V26H34.2472V29H72.3271C73.7072 29 74.9054 29.9509 75.2189 31.2949Z" stroke="#052F45" stroke-width="0.5"/>
<path d="M63.0001 36V55.5H68.0001V59H62.5001C61.3955 59 60.5001 58.1046 60.5001 57L60.5 38.5L57.9341 39.0346C52.0043 40.2699 47.0188 44.2587 44.5123 49.7729L43.5 52V58C43.5 67.665 51.3351 75.5 61.0001 75.5H62.3612C71.4282 75.5 78.9278 68.4411 79.4764 59.3908L79.5001 59H68.2781V55.5H82.1001C82.5971 55.5 83.0001 55.9029 83.0001 56.4C83.0001 68.3293 73.3294 78 61.4001 78H60.021C49.3011 78 40.6692 69.2005 40.8753 58.4826L40.9341 55.4278C40.9777 53.1591 41.4071 50.9145 42.2038 48.7899L42.5 48L44.6565 44.6112C45.5454 43.2143 46.67 41.9823 47.9801 40.9699C50.305 39.1734 52.9538 37.8411 55.7822 37.0456L56.1306 36.9476C58.3663 36.3189 60.6777 36 63.0001 36Z" stroke="#052F45" stroke-width="0.5"/>
<path d="M65.0689 31.2949L65.0062 51.9939C65.0028 53.1009 65.8992 54 67.0061 54H76.0001V51H68.0001V34L68.5294 34.0321C77.5019 34.5759 84.5001 42.0111 84.5001 51H76.3137V54H86.4757C87.3145 54 87.9915 53.3145 87.981 52.4758C87.8489 41.9026 79.9025 33.0641 69.4029 31.8118L65.0689 31.2949Z" stroke="#052F45" stroke-width="0.5"/>
<path d="M53.0001 34.4691C53.0001 32.277 54.7771 30.5 56.9692 30.5H58.3075C59.9337 30.5 61.3961 31.4901 62.0001 33L62.2019 33.6055C62.3693 34.1078 62.1162 34.6535 61.6246 34.8502L60.9848 35.1061C60.4506 35.3198 59.8467 35.0397 59.6647 34.4939L59.6056 34.3167C59.267 33.3008 58.1884 32.7319 57.1588 33.0261L56.9506 33.0856C56.092 33.3309 55.5001 34.1156 55.5001 35.0086V35.8333C55.5001 36.2015 55.2016 36.5 54.8334 36.5H53.7223C53.3234 36.5 53.0001 36.1767 53.0001 35.7778V34.4691Z" stroke="#052F45" stroke-width="0.5"/>
</svg>
