<svg width="261" height="241" viewBox="0 0 261 241" fill="none" xmlns="http://www.w3.org/2000/svg">
<g clip-path="url(#clip0_400_1159)">
<path d="M181.32 52.9C181.32 25.0648 158.755 2.5 130.92 2.5C103.084 2.5 80.5195 25.0648 80.5195 52.9V85.77C80.5195 113.605 103.084 136.17 130.92 136.17C158.755 136.17 181.32 113.605 181.32 85.77V52.9Z" fill="#F7F7F7" stroke="#052F45" stroke-width="5" stroke-miterlimit="10"/>
<path d="M175.48 142H86.3701C73.9826 142.037 62.113 146.974 53.3537 155.734C44.5944 164.493 39.6571 176.362 39.6201 188.75C39.6201 214.46 29.2501 238.33 54.9601 238.33H206.89C232.6 238.33 222.8 200.45 222.23 188.75C222.193 176.362 217.256 164.493 208.497 155.734C199.737 146.974 187.868 142.037 175.48 142Z" fill="#F7F7F7" stroke="#052F45" stroke-width="5" stroke-miterlimit="10"/>
<path d="M112.141 132.52V145.66L131.041 164.56L149.221 146.38V132.52L133.851 136.17H123.621L112.141 132.52Z" fill="#F7F7F7" stroke="#052F45" stroke-width="5" stroke-miterlimit="10"/>
<path d="M80.5508 51.4099H181.321" stroke="#052F45" stroke-width="3" stroke-miterlimit="10"/>
<path d="M82.2598 39.8301H179.54" stroke="#052F45" stroke-width="3" stroke-miterlimit="10"/>
<path d="M106.209 238.34C103.129 231.55 91.309 209 99.309 179.34C99.309 179.34 118.639 185.34 134.159 183.22C134.159 183.22 136.469 219.22 157.429 238.3L106.209 238.34Z" fill="#F7F7F7" stroke="#052F45" stroke-width="5" stroke-miterlimit="10"/>
<path d="M104.76 180.83L106.4 162.73C106.4 162.73 92.9996 156.9 92.6796 150.93C92.4896 146.72 94.6796 138.63 95.9796 134.22C96.2711 133.232 96.7588 132.313 97.4134 131.517C98.068 130.722 98.8761 130.066 99.7896 129.59C104.05 127.35 111.67 124.72 115.79 125.3C125.16 126.64 124.11 109.86 128.93 107.99C133.75 106.12 135.58 108.28 137.65 110.79C139.72 113.3 136.52 133 136.52 133C136.533 135.009 136.693 137.014 137 139C137.47 142.13 143.88 142.84 144.18 151C144.45 158.52 133.18 164.07 129.55 163.41C125.92 162.75 130.71 183.67 130.71 183.67C130.71 183.67 115.83 184.69 104.76 180.83Z" fill="#F7F7F7" stroke="#052F45" stroke-width="5" stroke-miterlimit="10"/>
<path d="M111.941 69.3301H111.931C108.772 69.3301 106.211 71.891 106.211 75.0501V75.0601C106.211 78.2191 108.772 80.7801 111.931 80.7801H111.941C115.1 80.7801 117.661 78.2191 117.661 75.0601V75.0501C117.661 71.891 115.1 69.3301 111.941 69.3301Z" fill="#052F45" stroke="#052F45" stroke-width="3" stroke-miterlimit="10"/>
<path d="M151.871 69.3301H151.861C148.702 69.3301 146.141 71.891 146.141 75.0501V75.0601C146.141 78.2191 148.702 80.7801 151.861 80.7801H151.871C155.03 80.7801 157.591 78.2191 157.591 75.0601V75.0501C157.591 71.891 155.03 69.3301 151.871 69.3301Z" fill="#052F45" stroke="#052F45" stroke-width="3" stroke-miterlimit="10"/>
<path d="M122.26 102.28L140.65 99.49" stroke="#052F45" stroke-width="6" stroke-miterlimit="10" stroke-linecap="round"/>
<path d="M72.1699 204.11V236.08" stroke="#052F45" stroke-width="3" stroke-miterlimit="10" stroke-linecap="round"/>
<path d="M187.42 204.11V236.08" stroke="#052F45" stroke-width="3" stroke-miterlimit="10" stroke-linecap="round"/>
<path d="M213.451 69.24H213.441C210.282 69.24 207.721 71.8009 207.721 74.96V74.97C207.721 78.1291 210.282 80.69 213.441 80.69H213.451C216.61 80.69 219.171 78.1291 219.171 74.97V74.96C219.171 71.8009 216.61 69.24 213.451 69.24Z" fill="#052F45" stroke="#052F45" stroke-width="3" stroke-miterlimit="10"/>
<path d="M253.371 69.24H253.361C250.202 69.24 247.641 71.8009 247.641 74.96V74.97C247.641 78.1291 250.202 80.69 253.361 80.69H253.371C256.53 80.69 259.091 78.1291 259.091 74.97V74.96C259.091 71.8009 256.53 69.24 253.371 69.24Z" fill="#052F45" stroke="#052F45" stroke-width="3" stroke-miterlimit="10"/>
<path d="M7.23 69.3301H7.22C4.06093 69.3301 1.5 71.891 1.5 75.0501V75.0601C1.5 78.2191 4.06093 80.7801 7.22 80.7801H7.23C10.3891 80.7801 12.95 78.2191 12.95 75.0601V75.0501C12.95 71.891 10.3891 69.3301 7.23 69.3301Z" fill="#052F45" stroke="#052F45" stroke-width="3" stroke-miterlimit="10"/>
<path d="M47.1597 69.3301H47.1497C43.9906 69.3301 41.4297 71.891 41.4297 75.0501V75.0601C41.4297 78.2191 43.9906 80.7801 47.1497 80.7801H47.1597C50.3188 80.7801 52.8797 78.2191 52.8797 75.0601V75.0501C52.8797 71.891 50.3188 69.3301 47.1597 69.3301Z" fill="#052F45" stroke="#052F45" stroke-width="3" stroke-miterlimit="10"/>
</g>
<defs>
<clipPath id="clip0_400_1159">
<rect width="260.59" height="240.84" fill="white"/>
</clipPath>
</defs>
</svg>
