<svg width="132" height="226" viewBox="0 0 132 226" fill="none" xmlns="http://www.w3.org/2000/svg">
<path d="M39.3742 132.074L92.0351 123.355C92.8 123.23 93.4929 122.829 93.9837 122.23C94.4745 121.63 94.7293 120.871 94.7004 120.096L92.8334 73.1653C92.8157 72.7146 92.7024 72.2729 92.501 71.8694C92.2996 71.4659 92.0147 71.1098 91.6653 70.8248C91.3158 70.5398 90.9098 70.3324 90.4741 70.2164C90.0384 70.1003 89.583 70.0782 89.1381 70.1516C88.6881 70.2256 88.2273 70.2018 87.7872 70.082C87.3471 69.9622 86.9379 69.749 86.5874 69.4571C86.2369 69.1651 85.9533 68.8012 85.7558 68.3899C85.5583 67.9786 85.4516 67.5297 85.4429 67.0735L85.1596 51.0392C85.1406 50.224 84.8118 49.4466 84.2402 48.8652C83.6685 48.2839 82.8969 47.9422 82.0823 47.9096L40.2497 46.6217C39.4357 46.5957 38.6427 46.8831 38.0342 47.4247C37.4257 47.9662 37.0482 48.7206 36.9793 49.5324L36.5416 54.9287C36.4834 55.6341 36.1926 56.3002 35.7148 56.8224C35.2371 57.3446 34.5994 57.6932 33.9021 57.8136L31.1596 58.2643C30.4203 58.3882 29.7481 58.7684 29.2608 59.3382C28.7735 59.9081 28.5022 60.6312 28.4944 61.381L28.3914 79.5275C28.3901 80.2765 28.1247 81.001 27.6419 81.5735C27.1591 82.146 26.4898 82.5297 25.7519 82.6571L24.2326 82.9146C23.7789 82.9884 23.3466 83.1596 22.9654 83.4166C22.5843 83.6735 22.2633 84.01 22.0247 84.403C21.7861 84.7959 21.6354 85.2359 21.5831 85.6926C21.5309 86.1494 21.5782 86.6121 21.7218 87.0488L35.8849 129.936C36.1198 130.647 36.5993 131.253 37.2381 131.644C37.8769 132.035 38.6338 132.188 39.3742 132.074Z" stroke="#F7F7F7" stroke-width="3" stroke-miterlimit="10"/>
<path d="M32.0606 58.2644L69.1679 57.5947C70.1349 57.5773 71.0955 57.7544 71.9928 58.1154C72.89 58.4764 73.7057 59.014 74.3913 59.6963C75.077 60.3785 75.6187 61.1915 75.9843 62.0871C76.35 62.9827 76.5321 63.9426 76.5199 64.9099L76.3654 80.3647L41.7559 86.0443L32.949 81.4723L27.7988 81.2791V58.8182L30.2066 58.4318C30.8192 58.3275 31.4392 58.2715 32.0606 58.2644Z" stroke="#F7F7F7" stroke-width="3" stroke-miterlimit="10"/>
<path d="M34.5977 67.0993L68.7565 66.8159" stroke="#F7F7F7" stroke-width="3" stroke-miterlimit="10"/>
<path d="M34.4941 74.6335L69.3997 74.7623" stroke="#F7F7F7" stroke-width="3" stroke-miterlimit="10"/>
<path d="M36.3483 57.4144L35.6016 44.793L85.4299 45.9392L84.5157 89.0451L80.2797 79.6692L76.3655 80.326L74.8076 60.1576L69.1681 57.5947L36.3483 57.4144Z" stroke="#F7F7F7" stroke-width="3" stroke-miterlimit="10"/>
<path d="M94.7011 120.096L82.9844 85.6708" stroke="#F7F7F7" stroke-width="3" stroke-miterlimit="10"/>
<path d="M10.1713 124.256L17.24 213.533C17.4576 216.406 18.7527 219.091 20.8659 221.05C22.979 223.008 25.7541 224.096 28.6348 224.094H93.1413C95.9987 224.096 98.7532 223.027 100.862 221.098C102.971 219.17 104.282 216.522 104.536 213.675L112.442 124.385C112.581 122.805 112.39 121.214 111.882 119.712C111.373 118.209 110.558 116.83 109.487 115.66C108.417 114.49 107.115 113.555 105.664 112.915C104.213 112.276 102.645 111.945 101.06 111.944H21.5662C19.9908 111.943 18.4322 112.267 16.9884 112.898C15.5445 113.528 14.2467 114.451 13.1765 115.607C12.1063 116.763 11.2869 118.129 10.7697 119.617C10.2525 121.106 10.0488 122.685 10.1713 124.256Z" fill="#092F44" stroke="#F7F7F7" stroke-width="3" stroke-miterlimit="10"/>
<path d="M28.8027 138.642L34.7255 201.594" stroke="#F7F7F7" stroke-width="3" stroke-miterlimit="10"/>
<path d="M92.7435 140.084L87.5547 201.594" stroke="#F7F7F7" stroke-width="3" stroke-miterlimit="10"/>
<path d="M61.3145 127.154L61.366 202.38" stroke="#F7F7F7" stroke-width="3" stroke-miterlimit="10"/>
<path d="M116.859 99.6959H4.17198C2.93468 99.6959 1.93164 100.699 1.93164 101.937V117.443C1.93164 118.681 2.93468 119.684 4.17198 119.684H116.859C118.096 119.684 119.099 118.681 119.099 117.443V101.937C119.099 100.699 118.096 99.6959 116.859 99.6959Z" fill="#092F44" stroke="#F7F7F7" stroke-width="3" stroke-miterlimit="10"/>
<path d="M86.0049 31.339L86.0063 31.3166L86.0057 31.2942C85.9903 30.7658 86.0814 30.2398 86.2733 29.7473C86.4653 29.2549 86.7543 28.8061 87.1231 28.4276C87.4919 28.0491 87.933 27.7486 88.4202 27.544C88.9074 27.3394 89.4308 27.2349 89.9591 27.2367V27.2367L89.9679 27.2366C90.3394 27.2313 90.7079 27.303 91.0504 27.4471C91.3929 27.5912 91.7018 27.8047 91.9578 28.074C92.2138 28.3434 92.4114 28.6628 92.538 29.0122C92.6646 29.3616 92.7176 29.7335 92.6936 30.1044L92.6921 30.1271L92.6927 30.1497C92.7065 30.6772 92.6143 31.202 92.4216 31.6931C92.229 32.1842 91.9398 32.6317 91.5711 33.0089C91.2024 33.3862 90.7619 33.6857 90.2754 33.8895C89.789 34.0934 89.2666 34.1976 88.7392 34.1959L88.7392 34.1958L88.7306 34.1959C88.3601 34.2011 87.9925 34.1297 87.6509 33.9862C87.3092 33.8428 87.0008 33.6303 86.7449 33.3622C86.4891 33.094 86.2913 32.7759 86.164 32.4278C86.0366 32.0797 85.9825 31.709 86.0049 31.339ZM94.4666 6.60438L94.4666 6.60456H94.4801C96.3464 6.60456 97.9476 7.0228 99.0679 7.82891C100.167 8.61997 100.843 9.81008 100.843 11.4751C100.843 14.8275 98.6025 16.4779 95.7215 18.5382L95.7214 18.5381L95.7132 18.5442C94.8063 19.2214 93.9846 19.8497 93.3639 20.6255C92.8041 21.325 92.4157 22.1318 92.2316 23.1843H88.524C88.8416 19.9111 91.0823 18.1016 93.1205 16.6487C94.0375 16.0072 94.8021 15.4325 95.3343 14.8246C95.8834 14.1974 96.2033 13.5147 96.2033 12.6728C96.2033 11.8628 95.9359 11.2011 95.4049 10.752C94.8879 10.3147 94.1899 10.138 93.4372 10.138C91.5932 10.138 90.3145 10.9565 88.9005 12.3017L86.6444 10.1638C87.5434 9.07433 88.6683 8.19066 89.9433 7.57518C91.352 6.89514 92.903 6.56227 94.4666 6.60438Z" fill="#F7F7F7" stroke="#F7F7F7"/>
<path d="M97.4522 51.546L97.4535 51.5244L97.453 51.5027C97.4392 50.9746 97.5314 50.449 97.724 49.9571C97.9166 49.4652 98.2057 49.0168 98.5744 48.6385C98.943 48.2602 99.3837 47.9596 99.8703 47.7543C100.357 47.5491 100.88 47.4435 101.408 47.4437V47.4437L101.415 47.4436C101.787 47.4384 102.155 47.51 102.498 47.6542C102.84 47.7983 103.149 48.0117 103.405 48.281C103.661 48.5504 103.859 48.8698 103.985 49.2193C104.112 49.5687 104.165 49.9405 104.141 50.3114L104.139 50.3341L104.14 50.3568C104.154 50.8842 104.062 51.409 103.869 51.9001C103.676 52.3912 103.387 52.8387 103.018 53.216C102.65 53.5932 102.209 53.8927 101.723 54.0966C101.236 54.3004 100.714 54.4046 100.187 54.4029L100.187 54.4028L100.178 54.4029C99.8074 54.4081 99.4398 54.3367 99.0981 54.1933C98.7564 54.0498 98.448 53.8374 98.1922 53.5692C97.9363 53.3011 97.7385 52.983 97.6112 52.6348C97.4839 52.2867 97.4298 51.916 97.4522 51.546ZM96.9531 51.5157H96.9531H96.9531ZM105.927 26.7599L105.927 26.7601H105.94C107.807 26.7601 109.408 27.1783 110.528 27.9844C111.627 28.7755 112.303 29.9656 112.303 31.6306C112.303 34.9833 110.075 36.6342 107.182 38.6931L107.182 38.6931L107.18 38.6949C106.237 39.375 105.411 40.003 104.794 40.7745C104.239 41.4676 103.862 42.2616 103.68 43.2883H99.973C100.3 40.0214 102.528 38.2585 104.58 36.8046C105.497 36.163 106.262 35.5881 106.794 34.9801C107.344 34.3529 107.663 33.6702 107.663 32.8284C107.663 32.0206 107.401 31.3583 106.871 30.9082C106.354 30.4698 105.655 30.2935 104.897 30.2935C103.066 30.2935 101.777 31.1116 100.361 32.4573L98.1046 30.3193C99.0035 29.2299 100.128 28.3462 101.403 27.7307C102.812 27.0507 104.363 26.7178 105.927 26.7599Z" fill="#F7F7F7" stroke="#F7F7F7"/>
<path d="M108.126 71.238L108.127 71.2156L108.127 71.1933C108.111 70.6642 108.202 70.1374 108.394 69.6441C108.586 69.1509 108.875 68.7012 109.244 68.3216C109.613 67.9421 110.054 67.6404 110.541 67.4345C111.029 67.2286 111.553 67.1226 112.082 67.1228V67.1229L112.089 67.1228C112.461 67.1176 112.83 67.1893 113.174 67.3334C113.517 67.4775 113.827 67.6909 114.084 67.9603C114.341 68.2297 114.54 68.5492 114.667 68.8989C114.795 69.2486 114.85 69.621 114.827 69.9927L114.826 70.0143L114.827 70.0359C114.84 70.565 114.748 71.0914 114.555 71.5841C114.361 72.0768 114.071 72.5257 113.701 72.9042C113.331 73.2827 112.889 73.583 112.401 73.7876C111.913 73.9921 111.389 74.0966 110.86 74.0949L110.86 74.0948L110.852 74.0949C110.481 74.1001 110.114 74.0287 109.772 73.8853C109.43 73.7418 109.122 73.5294 108.866 73.2612C108.61 72.9931 108.412 72.675 108.285 72.3268C108.158 71.9787 108.104 71.608 108.126 71.238ZM116.64 46.4905L116.64 46.4907H116.653C118.518 46.4907 120.123 46.9119 121.247 47.72C122.351 48.5134 123.028 49.7039 123.028 51.3612C123.028 54.6991 120.777 56.3627 117.845 58.4356L117.845 58.4355L117.836 58.4419C116.928 59.1136 116.109 59.7386 115.49 60.5134C114.931 61.2118 114.543 62.0184 114.355 63.0705H110.658C110.974 59.7968 113.204 57.9873 115.241 56.5354C116.164 55.8939 116.932 55.3193 117.466 54.7113C118.017 54.0839 118.337 53.401 118.337 52.559C118.337 51.7489 118.07 51.0867 117.537 50.6375C117.018 50.2004 116.316 50.0241 115.558 50.0241C113.728 50.0241 112.44 50.8407 111.026 52.1843L108.827 50.0538C109.725 48.9642 110.849 48.0802 112.123 47.4642C113.53 46.7842 115.078 46.4504 116.64 46.4905Z" fill="#F7F7F7" stroke="#F7F7F7"/>
</svg>
