<svg width="71" height="80" viewBox="0 0 71 80" fill="none" xmlns="http://www.w3.org/2000/svg">
<path d="M20.5 22H15.1286C15.0595 22 15.0054 21.9407 15.0116 21.872L15.2358 19.406C15.3914 17.6941 16.6827 16.3029 18.3783 16.0203C18.4292 16.0118 18.4493 15.9493 18.4127 15.9127L18.0612 15.5612C17.7019 15.2019 17.5 14.7145 17.5 14.2063V13.7553C17.5 11.9575 18.9575 10.5 20.7553 10.5H21.25C23.0449 10.5 24.5 11.9551 24.5 13.75V14.2544C24.5 14.7318 24.3103 15.1897 23.9728 15.5272L23.8396 15.6604C23.7143 15.7857 23.8031 16 23.9803 16H23.9925C23.9975 16 24.0025 16.0005 24.0073 16.0015C25.4858 16.2972 26.5936 17.5301 26.7301 19.0316L26.9842 21.8264C26.9927 21.9196 26.9193 22 26.8257 22H20.5312V20H24.3718C24.4426 20 24.5 19.9426 24.5 19.8718C24.5 18.5619 23.4381 17.5 22.1282 17.5H21.0391V15.5C21.8459 15.5 22.5 14.8459 22.5 14.0391V14C22.5 13.1716 21.8284 12.5 21 12.5C20.1716 12.5 19.5 13.1716 19.5 14C19.5 14.8284 20.1716 15.5 21 15.5V17.5H19.875C18.5633 17.5 17.5 18.5633 17.5 19.875C17.5 19.944 17.556 20 17.625 20H20.5V22Z" fill="#F7F7F7"/>
<path d="M59.25 13H40.25C39.5596 13 39 12.4404 39 11.75C39 11.0596 39.5596 10.5 40.25 10.5H59.25C59.9404 10.5 60.5 11.0596 60.5 11.75C60.5 12.4404 59.9404 13 59.25 13Z" fill="#F7F7F7"/>
<path d="M59.25 17.5H40.25C39.5596 17.5 39 16.9404 39 16.25C39 15.5596 39.5596 15 40.25 15H59.25C59.9404 15 60.5 15.5596 60.5 16.25C60.5 16.9404 59.9404 17.5 59.25 17.5Z" fill="#F7F7F7"/>
<path d="M59.25 22.5H40.25C39.5596 22.5 39 21.9404 39 21.25C39 20.5596 39.5596 20 40.25 20H59.25C59.9404 20 60.5 20.5596 60.5 21.25C60.5 21.9404 59.9404 22.5 59.25 22.5Z" fill="#F7F7F7"/>
<path d="M45 50.5V53.75C45 54.4404 44.4404 55 43.75 55C43.0596 55 42.5 54.4404 42.5 53.75V51H33.0312V48.5H34.5V45.5C34.5 44.6716 33.8284 44 33 44C32.1716 44 31.5 44.6716 31.5 45.5V48.5H33V51L27.3085 50.9961V48.5H29.5V45C29.5 43.067 31.067 41.5 33 41.5C34.933 41.5 36.5 43.067 36.5 45V48.5H39V45C39 41.6863 36.3137 39 33 39C29.6863 39 27 41.6863 27 45V51H23.5V65H42.5V58.75C42.5 58.0596 43.0596 57.5 43.75 57.5C44.4404 57.5 45 58.0596 45 58.75V65.5C45 66.6046 44.1046 67.5 43 67.5H23.035C21.932 67.5 21.0372 66.6071 21.035 65.5041L21.0041 50.5041C21.0018 49.3979 21.8979 48.5 23.0041 48.5H24.5V45C24.5 40.3056 28.3056 36.5 33 36.5C37.6944 36.5 41.5 40.3056 41.5 45V48.5H43C44.1046 48.5 45 49.3954 45 50.5Z" fill="#F7F7F7"/>
<path d="M29.5 56.4997V56.1912C29.5 54.4288 30.9288 53 32.6912 53H32.8595V55.1726C32.1087 55.1726 31.5 55.7813 31.5 56.5321V56.5863C31.5 57.3671 32.1329 58 32.9137 58H33.0863C33.8671 58 34.5 57.3671 34.5 56.5863C34.5 55.8055 33.8671 55.1726 33.0863 55.1726H33V53H33.0845C34.9708 53 36.5 54.5292 36.5 56.4155V56.5639C36.5 58.0352 35.6042 59.3583 34.2381 59.9048C34.0943 59.9623 34 60.1016 34 60.2564V61.5C34 62.0523 33.5523 62.5 33 62.5C32.4477 62.5 32 62.0523 32 61.5V60.1923C32 60.0762 31.9293 59.9717 31.8214 59.9286C30.4194 59.3677 29.5 58.0098 29.5 56.4997Z" fill="#F7F7F7"/>
<path d="M65.5 20V14.5C65.5 13.6716 64.8284 13 64 13C63.1716 13 62.5 13.6716 62.5 14.5V65.8107H65V22.5H68V73.4529C68 75.4119 66.4119 77 64.4529 77H62.9934C61.8219 77 60.8007 76.2027 60.5165 75.0661C60.5081 75.0325 60.5335 75 60.5681 75H63.027C64.1167 75 65 74.1167 65 73.027V66H62.5V72.5H60.5V31.5C60.5 30.3954 59.6046 29.5 58.5 29.5H33.25C32.5596 29.5 32 30.0596 32 30.75C32 31.4404 32.5596 32 33.25 32H58V74.1148C58 74.3693 58.0485 74.6214 58.143 74.8576L59 77H6.5C4.84315 77 3.5 75.6569 3.5 74V28C3.5 27.4477 3.94772 27 4.5 27H14.6716C15.202 27 15.7107 27.2107 16.0858 27.5858L19.9142 31.4142C20.2893 31.7893 20.798 32 21.3284 32H28.25C28.9404 32 29.5 31.4404 29.5 30.75C29.5 30.0596 28.9404 29.5 28.25 29.5H22.363C21.8122 29.5 21.2858 29.2729 20.9079 28.8722L19.1423 27H24.4214V24.5H12.5V8H29.5V24.5H24.5V27H30C31.1046 27 32 26.1046 32 25V8C32 6.89543 31.1046 6 30 6H12.5C11.3954 6 10.5 6.89543 10.5 8V24.5H8V3.5H62.5V9C62.5 9.82843 63.1716 10.5 64 10.5C64.8284 10.5 65.5 9.82843 65.5 9V3C65.5 1.89543 64.6046 1 63.5 1H8C6.89543 1 6 1.89543 6 3V24.5H3C1.89543 24.5 1 25.3954 1 26.5V74.5C1 77.2614 3.23858 79.5 6 79.5H64.1626C67.4763 79.5 70.1626 76.8137 70.1626 73.5V21C70.1626 20.4477 69.7149 20 69.1626 20H65.5Z" fill="#F7F7F7"/>
<path d="M35.25 20C35.9404 20 36.5 20.5596 36.5 21.25C36.5 21.9404 35.9404 22.5 35.25 22.5C34.5596 22.5 34 21.9404 34 21.25C34 20.5596 34.5596 20 35.25 20Z" fill="#F7F7F7"/>
<path d="M35.25 15C35.9404 15 36.5 15.5596 36.5 16.25C36.5 16.9404 35.9404 17.5 35.25 17.5C34.5596 17.5 34 16.9404 34 16.25C34 15.5596 34.5596 15 35.25 15Z" fill="#F7F7F7"/>
<path d="M36.5 11.75C36.5 12.4404 35.9404 13 35.25 13C34.5596 13 34 12.4404 34 11.75C34 11.0596 34.5596 10.5 35.25 10.5C35.9404 10.5 36.5 11.0596 36.5 11.75Z" fill="#F7F7F7"/>
<path d="M20.5 22H15.1286C15.0595 22 15.0054 21.9407 15.0116 21.872L15.2358 19.406C15.3914 17.6941 16.6827 16.3029 18.3783 16.0203C18.4292 16.0118 18.4493 15.9493 18.4127 15.9127L18.0612 15.5612C17.7019 15.2019 17.5 14.7145 17.5 14.2063V13.7553C17.5 11.9575 18.9575 10.5 20.7553 10.5H21.25C23.0449 10.5 24.5 11.9551 24.5 13.75V14.2544C24.5 14.7318 24.3103 15.1897 23.9728 15.5272L23.8396 15.6604C23.7143 15.7857 23.8031 16 23.9803 16H23.9925C23.9975 16 24.0025 16.0005 24.0073 16.0015C25.4858 16.2972 26.5936 17.5301 26.7301 19.0316L26.9842 21.8264C26.9927 21.9196 26.9193 22 26.8257 22H20.5312V20H24.3718C24.4426 20 24.5 19.9426 24.5 19.8718C24.5 18.5619 23.4381 17.5 22.1282 17.5H21.0391V15.5C21.8459 15.5 22.5 14.8459 22.5 14.0391V14C22.5 13.1716 21.8284 12.5 21 12.5C20.1716 12.5 19.5 13.1716 19.5 14C19.5 14.8284 20.1716 15.5 21 15.5V17.5H19.875C18.5633 17.5 17.5 18.5633 17.5 19.875C17.5 19.944 17.556 20 17.625 20H20.5V22Z" stroke="#F7F7F7" stroke-width="0.5"/>
<path d="M59.25 13H40.25C39.5596 13 39 12.4404 39 11.75C39 11.0596 39.5596 10.5 40.25 10.5H59.25C59.9404 10.5 60.5 11.0596 60.5 11.75C60.5 12.4404 59.9404 13 59.25 13Z" stroke="#F7F7F7" stroke-width="0.5"/>
<path d="M59.25 17.5H40.25C39.5596 17.5 39 16.9404 39 16.25C39 15.5596 39.5596 15 40.25 15H59.25C59.9404 15 60.5 15.5596 60.5 16.25C60.5 16.9404 59.9404 17.5 59.25 17.5Z" stroke="#F7F7F7" stroke-width="0.5"/>
<path d="M59.25 22.5H40.25C39.5596 22.5 39 21.9404 39 21.25C39 20.5596 39.5596 20 40.25 20H59.25C59.9404 20 60.5 20.5596 60.5 21.25C60.5 21.9404 59.9404 22.5 59.25 22.5Z" stroke="#F7F7F7" stroke-width="0.5"/>
<path d="M45 50.5V53.75C45 54.4404 44.4404 55 43.75 55C43.0596 55 42.5 54.4404 42.5 53.75V51H33.0312V48.5H34.5V45.5C34.5 44.6716 33.8284 44 33 44C32.1716 44 31.5 44.6716 31.5 45.5V48.5H33V51L27.3085 50.9961V48.5H29.5V45C29.5 43.067 31.067 41.5 33 41.5C34.933 41.5 36.5 43.067 36.5 45V48.5H39V45C39 41.6863 36.3137 39 33 39C29.6863 39 27 41.6863 27 45V51H23.5V65H42.5V58.75C42.5 58.0596 43.0596 57.5 43.75 57.5C44.4404 57.5 45 58.0596 45 58.75V65.5C45 66.6046 44.1046 67.5 43 67.5H23.035C21.932 67.5 21.0372 66.6071 21.035 65.5041L21.0041 50.5041C21.0018 49.3979 21.8979 48.5 23.0041 48.5H24.5V45C24.5 40.3056 28.3056 36.5 33 36.5C37.6944 36.5 41.5 40.3056 41.5 45V48.5H43C44.1046 48.5 45 49.3954 45 50.5Z" stroke="#F7F7F7" stroke-width="0.5"/>
<path d="M29.5 56.4997V56.1912C29.5 54.4288 30.9288 53 32.6912 53H32.8595V55.1726C32.1087 55.1726 31.5 55.7813 31.5 56.5321V56.5863C31.5 57.3671 32.1329 58 32.9137 58H33.0863C33.8671 58 34.5 57.3671 34.5 56.5863C34.5 55.8055 33.8671 55.1726 33.0863 55.1726H33V53H33.0845C34.9708 53 36.5 54.5292 36.5 56.4155V56.5639C36.5 58.0352 35.6042 59.3583 34.2381 59.9048C34.0943 59.9623 34 60.1016 34 60.2564V61.5C34 62.0523 33.5523 62.5 33 62.5C32.4477 62.5 32 62.0523 32 61.5V60.1923C32 60.0762 31.9293 59.9717 31.8214 59.9286C30.4194 59.3677 29.5 58.0098 29.5 56.4997Z" stroke="#F7F7F7" stroke-width="0.5"/>
<path d="M65.5 20V14.5C65.5 13.6716 64.8284 13 64 13C63.1716 13 62.5 13.6716 62.5 14.5V65.8107H65V22.5H68V73.4529C68 75.4119 66.4119 77 64.4529 77H62.9934C61.8219 77 60.8007 76.2027 60.5165 75.0661C60.5081 75.0325 60.5335 75 60.5681 75H63.027C64.1167 75 65 74.1167 65 73.027V66H62.5V72.5H60.5V31.5C60.5 30.3954 59.6046 29.5 58.5 29.5H33.25C32.5596 29.5 32 30.0596 32 30.75C32 31.4404 32.5596 32 33.25 32H58V74.1148C58 74.3693 58.0485 74.6214 58.143 74.8576L59 77H6.5C4.84315 77 3.5 75.6569 3.5 74V28C3.5 27.4477 3.94772 27 4.5 27H14.6716C15.202 27 15.7107 27.2107 16.0858 27.5858L19.9142 31.4142C20.2893 31.7893 20.798 32 21.3284 32H28.25C28.9404 32 29.5 31.4404 29.5 30.75C29.5 30.0596 28.9404 29.5 28.25 29.5H22.363C21.8122 29.5 21.2858 29.2729 20.9079 28.8722L19.1423 27H24.4214V24.5H12.5V8H29.5V24.5H24.5V27H30C31.1046 27 32 26.1046 32 25V8C32 6.89543 31.1046 6 30 6H12.5C11.3954 6 10.5 6.89543 10.5 8V24.5H8V3.5H62.5V9C62.5 9.82843 63.1716 10.5 64 10.5C64.8284 10.5 65.5 9.82843 65.5 9V3C65.5 1.89543 64.6046 1 63.5 1H8C6.89543 1 6 1.89543 6 3V24.5H3C1.89543 24.5 1 25.3954 1 26.5V74.5C1 77.2614 3.23858 79.5 6 79.5H64.1626C67.4763 79.5 70.1626 76.8137 70.1626 73.5V21C70.1626 20.4477 69.7149 20 69.1626 20H65.5Z" stroke="#F7F7F7" stroke-width="0.5"/>
<path d="M35.25 20C35.9404 20 36.5 20.5596 36.5 21.25C36.5 21.9404 35.9404 22.5 35.25 22.5C34.5596 22.5 34 21.9404 34 21.25C34 20.5596 34.5596 20 35.25 20Z" stroke="#F7F7F7" stroke-width="0.5"/>
<path d="M35.25 15C35.9404 15 36.5 15.5596 36.5 16.25C36.5 16.9404 35.9404 17.5 35.25 17.5C34.5596 17.5 34 16.9404 34 16.25C34 15.5596 34.5596 15 35.25 15Z" stroke="#F7F7F7" stroke-width="0.5"/>
<path d="M36.5 11.75C36.5 12.4404 35.9404 13 35.25 13C34.5596 13 34 12.4404 34 11.75C34 11.0596 34.5596 10.5 35.25 10.5C35.9404 10.5 36.5 11.0596 36.5 11.75Z" stroke="#F7F7F7" stroke-width="0.5"/>
</svg>
