<svg width="97" height="75" viewBox="0 0 97 75" fill="none" xmlns="http://www.w3.org/2000/svg">
<path d="M87 3V37.25C87 38.2165 86.2165 39 85.25 39C84.2835 39 83.5 38.2165 83.5 37.25V6.5C83.5 5.39543 82.6046 4.5 81.5 4.5H6C4.89543 4.5 4 5.39543 4 6.5V47C4 48.1046 4.89543 49 6 49H37.5C38.3284 49 39 49.6716 39 50.5C39 51.3284 38.3284 52 37.5 52H6C4.89543 52 4 52.8954 4 54V56.5C4 57.6046 4.89543 58.5 6 58.5H37.75C38.4404 58.5 39 59.0596 39 59.75C39 60.4404 38.4404 61 37.75 61H37.3881C36.5903 61 35.9124 61.5837 35.7941 62.3728L34.8445 68.7033C34.6631 69.9125 35.5996 71 36.8224 71H37.5C38.3284 71 39 71.6716 39 72.5C39 73.3284 38.3284 74 37.5 74H29.5C28.6716 74 28 73.3284 28 72.5C28 71.6716 28.6716 71 29.5 71H29.6119C30.4097 71 31.0876 70.4163 31.2059 69.6272L32.1555 63.2967C32.3369 62.0875 31.4004 61 30.1776 61H3C1.89543 61 1 60.1046 1 59V3C1 1.89543 1.89543 1 3 1H85C86.1046 1 87 1.89543 87 3Z" fill="#F7F7F7"/>
<path d="M42.5 72V31.5C42.5 30.3954 43.3954 29.5 44.5 29.5H63.4111V32.5H47.5C46.3954 32.5 45.5 33.3954 45.5 34.5V36H63.4111V39H45.5V64.5H71.5V39H63.5V36H71.5V34.5C71.5 33.3954 70.6046 32.5 69.5 32.5H63.5V29.5H72.5C73.6046 29.5 74.5 30.3954 74.5 31.5V66.5L70.7991 68H45.5V69C45.5 70.1046 46.3954 71 47.5 71H69C70.1046 71 71 70.1046 71 69V68L74.5 67V72C74.5 73.1046 73.6046 74 72.5 74H44.5C43.3954 74 42.5 73.1046 42.5 72Z" fill="#F7F7F7"/>
<path d="M78 71.5V44.5C78 43.3954 78.8954 42.5 80 42.5H88.8908V45.5H82.5C81.3954 45.5 80.5 46.3954 80.5 47.5V49H93.5V47.5C93.5 46.3954 92.6046 45.5 91.5 45.5H89V42.5L93.9806 42.4516C95.0927 42.4408 96 43.3394 96 44.4515V71.5137C96 72.6129 95.1129 73.5061 94.0137 73.5136L86.0882 73.568V71H91.5C92.6046 71 93.5 70.1046 93.5 69V67.5H86.1861V64.5H93.5V51.5H80.5V64.5H86V67.5H80.5V69C80.5 70.1046 81.3954 71 82.5 71H86V73.5H80C78.8954 73.5 78 72.6046 78 71.5Z" fill="#F7F7F7"/>
<path d="M87 3V37.25C87 38.2165 86.2165 39 85.25 39C84.2835 39 83.5 38.2165 83.5 37.25V6.5C83.5 5.39543 82.6046 4.5 81.5 4.5H6C4.89543 4.5 4 5.39543 4 6.5V47C4 48.1046 4.89543 49 6 49H37.5C38.3284 49 39 49.6716 39 50.5C39 51.3284 38.3284 52 37.5 52H6C4.89543 52 4 52.8954 4 54V56.5C4 57.6046 4.89543 58.5 6 58.5H37.75C38.4404 58.5 39 59.0596 39 59.75C39 60.4404 38.4404 61 37.75 61H37.3881C36.5903 61 35.9124 61.5837 35.7941 62.3728L34.8445 68.7033C34.6631 69.9125 35.5996 71 36.8224 71H37.5C38.3284 71 39 71.6716 39 72.5C39 73.3284 38.3284 74 37.5 74H29.5C28.6716 74 28 73.3284 28 72.5C28 71.6716 28.6716 71 29.5 71H29.6119C30.4097 71 31.0876 70.4163 31.2059 69.6272L32.1555 63.2967C32.3369 62.0875 31.4004 61 30.1776 61H3C1.89543 61 1 60.1046 1 59V3C1 1.89543 1.89543 1 3 1H85C86.1046 1 87 1.89543 87 3Z" stroke="#F7F7F7"/>
<path d="M42.5 72V31.5C42.5 30.3954 43.3954 29.5 44.5 29.5H63.4111V32.5H47.5C46.3954 32.5 45.5 33.3954 45.5 34.5V36H63.4111V39H45.5V64.5H71.5V39H63.5V36H71.5V34.5C71.5 33.3954 70.6046 32.5 69.5 32.5H63.5V29.5H72.5C73.6046 29.5 74.5 30.3954 74.5 31.5V66.5L70.7991 68H45.5V69C45.5 70.1046 46.3954 71 47.5 71H69C70.1046 71 71 70.1046 71 69V68L74.5 67V72C74.5 73.1046 73.6046 74 72.5 74H44.5C43.3954 74 42.5 73.1046 42.5 72Z" stroke="#F7F7F7"/>
<path d="M78 71.5V44.5C78 43.3954 78.8954 42.5 80 42.5H88.8908V45.5H82.5C81.3954 45.5 80.5 46.3954 80.5 47.5V49H93.5V47.5C93.5 46.3954 92.6046 45.5 91.5 45.5H89V42.5L93.9806 42.4516C95.0927 42.4408 96 43.3394 96 44.4515V71.5137C96 72.6129 95.1129 73.5061 94.0137 73.5136L86.0882 73.568V71H91.5C92.6046 71 93.5 70.1046 93.5 69V67.5H86.1861V64.5H93.5V51.5H80.5V64.5H86V67.5H80.5V69C80.5 70.1046 81.3954 71 82.5 71H86V73.5H80C78.8954 73.5 78 72.6046 78 71.5Z" stroke="#F7F7F7"/>
</svg>
