<svg width="285" height="206" viewBox="0 0 285 206" fill="none" xmlns="http://www.w3.org/2000/svg">
<g clip-path="url(#clip0_400_1114)">
<path d="M108.444 45.8576C108.444 25.2264 91.7142 8.50146 71.0773 8.50146C50.4404 8.50146 33.7109 25.2264 33.7109 45.8576V70.2207C33.7109 90.8519 50.4404 107.577 71.0773 107.577C91.7142 107.577 108.444 90.8519 108.444 70.2207V45.8576Z" fill="#092F44" stroke="#F7F7F7" stroke-width="5" stroke-miterlimit="10"/>
<path d="M104.114 111.92H38.0485C28.8664 111.946 20.0674 115.603 13.5733 122.092C7.07916 128.582 3.41758 137.377 3.38823 146.556C3.38823 165.62 -4.30004 183.305 14.7612 183.305H127.402C146.463 183.305 139.197 155.236 138.775 146.556C138.745 137.377 135.084 128.582 128.589 122.092C122.095 115.603 113.296 111.946 104.114 111.92Z" fill="#092F44" stroke="#F7F7F7" stroke-width="5" stroke-miterlimit="10"/>
<path d="M57.1543 104.871V114.618L71.1593 128.627L84.6453 115.152V104.871L73.2426 107.577H65.6655L57.1543 104.871Z" fill="#092F44" stroke="#F7F7F7" stroke-width="5" stroke-miterlimit="10"/>
<path d="M57.006 58.0428H56.9986C54.6565 58.0428 52.7578 59.941 52.7578 62.2825V62.2899C52.7578 64.6314 54.6565 66.5295 56.9986 66.5295H57.006C59.3481 66.5295 61.2468 64.6314 61.2468 62.2899V62.2825C61.2468 59.941 59.3481 58.0428 57.006 58.0428Z" fill="#F7F7F7" stroke="#F7F7F7" stroke-width="5" stroke-miterlimit="10"/>
<path d="M86.6095 58.0428H86.6021C84.26 58.0428 82.3613 59.941 82.3613 62.2825V62.2899C82.3613 64.6314 84.26 66.5295 86.6021 66.5295H86.6095C88.9516 66.5295 90.8503 64.6314 90.8503 62.2899V62.2825C90.8503 59.941 88.9516 58.0428 86.6095 58.0428Z" fill="#F7F7F7" stroke="#F7F7F7" stroke-width="5" stroke-miterlimit="10"/>
<path d="M27.5137 157.934V181.637" stroke="#F7F7F7" stroke-width="5" stroke-miterlimit="10" stroke-linecap="round"/>
<path d="M112.959 157.934V181.637" stroke="#F7F7F7" stroke-width="5" stroke-miterlimit="10" stroke-linecap="round"/>
<path d="M64.1016 80.049C67.5268 85.6153 76.5199 86.0452 79.0926 80.049Z" fill="#092F44"/>
<path d="M64.1016 80.049C67.5268 85.6153 76.5199 86.0452 79.0926 80.049" stroke="#F7F7F7" stroke-width="5" stroke-miterlimit="10" stroke-linecap="round"/>
<path d="M33.7109 48.8149H108.444" stroke="#F7F7F7" stroke-width="5" stroke-miterlimit="10" stroke-linecap="round"/>
<path d="M33.8828 42.3666L108.312 42.7075" stroke="#F7F7F7" stroke-width="5" stroke-miterlimit="10" stroke-linecap="round"/>
<path d="M251.112 45.8576C251.112 25.2264 234.382 8.50146 213.745 8.50146C193.108 8.50146 176.379 25.2264 176.379 45.8576V70.2207C176.379 90.8519 193.108 107.577 213.745 107.577C234.382 107.577 251.112 90.8519 251.112 70.2207V45.8576Z" fill="#092F44" stroke="#F7F7F7" stroke-width="5" stroke-miterlimit="10"/>
<path d="M246.773 111.92H180.707C171.526 111.948 162.729 115.605 156.237 122.095C149.744 128.584 146.084 137.378 146.054 146.556C146.054 165.62 138.366 183.305 157.427 183.305H270.06C289.121 183.305 281.856 155.236 281.433 146.556C281.404 137.377 277.742 128.582 271.248 122.092C264.754 115.603 255.955 111.946 246.773 111.92Z" fill="#092F44" stroke="#F7F7F7" stroke-width="5" stroke-miterlimit="10"/>
<path d="M199.814 104.871V114.618L213.827 128.627L227.305 115.152V104.871L215.91 107.577H208.326L199.814 104.871Z" fill="#092F44" stroke="#F7F7F7" stroke-width="5" stroke-miterlimit="10"/>
<path d="M199.672 58.0428H199.665C197.322 58.0428 195.424 59.941 195.424 62.2825V62.2899C195.424 64.6314 197.322 66.5295 199.665 66.5295H199.672C202.014 66.5295 203.913 64.6314 203.913 62.2899V62.2825C203.913 59.941 202.014 58.0428 199.672 58.0428Z" fill="#F7F7F7" stroke="#F7F7F7" stroke-width="5" stroke-miterlimit="10"/>
<path d="M229.278 58.0428H229.27C226.928 58.0428 225.029 59.941 225.029 62.2825V62.2899C225.029 64.6314 226.928 66.5295 229.27 66.5295H229.278C231.62 66.5295 233.518 64.6314 233.518 62.2899V62.2825C233.518 59.941 231.62 58.0428 229.278 58.0428Z" fill="#F7F7F7" stroke="#F7F7F7" stroke-width="5" stroke-miterlimit="10"/>
<path d="M170.18 157.934V181.637" stroke="#F7F7F7" stroke-width="5" stroke-miterlimit="10" stroke-linecap="round"/>
<path d="M255.625 157.934V181.637" stroke="#F7F7F7" stroke-width="5" stroke-miterlimit="10" stroke-linecap="round"/>
<path d="M206.76 80.049C210.192 85.6153 219.186 86.0452 221.758 80.049Z" fill="#092F44"/>
<path d="M206.76 80.049C210.192 85.6153 219.186 86.0452 221.758 80.049" stroke="#F7F7F7" stroke-width="5" stroke-miterlimit="10" stroke-linecap="round"/>
<path d="M212.455 46.243C211.313 52.9138 207.902 50.6902 205.782 48.4666C205.611 48.2948 205.4 48.1691 205.167 48.1013C204.934 48.0336 204.688 48.026 204.452 48.0794C204.215 48.1327 203.996 48.2452 203.815 48.4063C203.634 48.5673 203.497 48.7717 203.417 49.0003C201.934 53.0843 197.997 50.794 195.343 48.6297C195.14 48.455 194.891 48.3413 194.626 48.3017C194.361 48.2621 194.09 48.2982 193.844 48.4058C193.598 48.5135 193.388 48.6884 193.238 48.9102C193.087 49.1321 193.002 49.392 192.993 49.66C192.822 55.9601 188.255 54.411 185.201 52.6247C184.975 52.4939 184.717 52.4275 184.456 52.4327C184.194 52.4379 183.939 52.5145 183.719 52.6543C183.498 52.7941 183.32 52.9916 183.203 53.2255C183.087 53.4594 183.037 53.7207 183.058 53.9811C183.481 58.7618 182.028 64.5505 173.479 58.0503C164.627 51.3276 169.239 44.8941 171.099 42.8632C171.284 42.6613 171.406 42.4104 171.45 42.1407C171.495 41.8711 171.461 41.5943 171.352 41.3438C167.511 32.6495 174.755 25.7787 177.075 23.8961C177.273 23.7391 177.424 23.5313 177.513 23.295C177.602 23.0587 177.625 22.8028 177.579 22.5545C175.459 11.2068 191.013 10.851 194.631 10.9177C194.863 10.9224 195.093 10.8701 195.299 10.7654C195.506 10.6607 195.684 10.5069 195.818 10.3174C197.708 7.63426 205.419 -2.28291 210.697 5.58856C210.809 5.75819 210.956 5.90203 211.128 6.01049C211.3 6.11896 211.493 6.18957 211.694 6.21762C211.896 6.24567 212.101 6.23052 212.296 6.17318C212.491 6.11583 212.671 6.0176 212.825 5.88504C216.058 3.14263 224.643 -2.5201 230.478 10.1098C230.591 10.3626 230.776 10.577 231.009 10.727C231.242 10.877 231.513 10.9561 231.79 10.9548C235.727 10.9029 250.8 11.4143 248.709 22.5916C248.663 22.8398 248.686 23.0958 248.775 23.3321C248.864 23.5684 249.015 23.7761 249.213 23.9331C251.534 25.838 258.777 32.6866 254.937 41.3808C254.827 41.6314 254.793 41.9082 254.838 42.1778C254.883 42.4474 255.004 42.6983 255.189 42.9003C257.05 44.9311 261.661 51.3647 252.809 58.0873C244.26 64.5876 242.807 58.8285 243.23 54.0182C243.252 53.7578 243.201 53.4965 243.085 53.2626C242.968 53.0287 242.79 52.8311 242.569 52.6914C242.349 52.5516 242.094 52.4749 241.832 52.4697C241.571 52.4645 241.313 52.5309 241.087 52.6618C238.033 54.4258 233.466 55.9749 233.295 49.697C233.284 49.4332 233.2 49.1776 233.052 48.9588C232.904 48.7401 232.698 48.5668 232.458 48.4583C232.217 48.3499 231.951 48.3106 231.689 48.3447C231.427 48.3789 231.18 48.4853 230.975 48.6519C228.32 50.8162 224.369 53.0991 222.901 49.0225C222.82 48.794 222.683 48.5896 222.502 48.4285C222.321 48.2674 222.102 48.1549 221.866 48.1016C221.63 48.0483 221.384 48.0558 221.151 48.1236C220.918 48.1913 220.707 48.317 220.536 48.4889C218.386 50.7124 214.975 52.936 213.863 46.2653" fill="#092F44"/>
<path d="M212.455 46.243C211.313 52.9138 207.902 50.6902 205.782 48.4666C205.611 48.2948 205.4 48.1691 205.167 48.1013C204.934 48.0336 204.688 48.026 204.452 48.0794C204.215 48.1327 203.996 48.2452 203.815 48.4063C203.634 48.5673 203.497 48.7717 203.417 49.0003C201.934 53.0843 197.997 50.794 195.343 48.6297C195.14 48.455 194.891 48.3413 194.626 48.3017C194.361 48.2621 194.09 48.2982 193.844 48.4058C193.598 48.5135 193.388 48.6884 193.238 48.9102C193.087 49.1321 193.002 49.392 192.993 49.66C192.822 55.9601 188.255 54.411 185.201 52.6247C184.975 52.4939 184.717 52.4275 184.456 52.4327C184.194 52.4379 183.939 52.5145 183.719 52.6543C183.498 52.7941 183.32 52.9916 183.203 53.2255C183.087 53.4594 183.037 53.7207 183.058 53.9811C183.481 58.7618 182.028 64.5505 173.479 58.0503C164.627 51.3276 169.239 44.8941 171.099 42.8632C171.284 42.6613 171.406 42.4104 171.45 42.1407C171.495 41.8711 171.461 41.5943 171.352 41.3438C167.511 32.6495 174.755 25.7787 177.075 23.8961C177.273 23.7391 177.424 23.5313 177.513 23.295C177.602 23.0587 177.625 22.8028 177.579 22.5545C175.459 11.2068 191.013 10.851 194.631 10.9177C194.863 10.9224 195.093 10.8701 195.299 10.7654C195.506 10.6607 195.684 10.5069 195.818 10.3174C197.708 7.63426 205.419 -2.28291 210.697 5.58856C210.809 5.75819 210.956 5.90203 211.128 6.01049C211.3 6.11896 211.493 6.18957 211.694 6.21762C211.896 6.24567 212.101 6.23052 212.296 6.17318C212.491 6.11583 212.671 6.0176 212.825 5.88504C216.058 3.14263 224.643 -2.5201 230.478 10.1098C230.591 10.3626 230.776 10.577 231.009 10.727C231.242 10.877 231.513 10.9561 231.79 10.9548C235.727 10.9029 250.8 11.4143 248.709 22.5916C248.663 22.8398 248.686 23.0958 248.775 23.3321C248.864 23.5684 249.015 23.7761 249.213 23.9331C251.534 25.838 258.777 32.6866 254.937 41.3808C254.827 41.6314 254.793 41.9082 254.838 42.1778C254.883 42.4474 255.004 42.6983 255.189 42.9003C257.05 44.9311 261.661 51.3647 252.809 58.0873C244.26 64.5876 242.807 58.8285 243.23 54.0182C243.252 53.7578 243.201 53.4965 243.085 53.2626C242.968 53.0287 242.79 52.8311 242.569 52.6914C242.349 52.5516 242.094 52.4749 241.832 52.4697C241.571 52.4645 241.313 52.5309 241.087 52.6618C238.033 54.4258 233.466 55.9749 233.295 49.697C233.284 49.4332 233.2 49.1776 233.052 48.9588C232.904 48.7401 232.698 48.5668 232.458 48.4583C232.217 48.3499 231.951 48.3106 231.689 48.3447C231.427 48.3789 231.18 48.4853 230.975 48.6519C228.32 50.8162 224.369 53.0991 222.901 49.0225C222.82 48.794 222.683 48.5896 222.502 48.4285C222.321 48.2674 222.102 48.1549 221.866 48.1016C221.63 48.0483 221.384 48.0558 221.151 48.1236C220.918 48.1913 220.707 48.317 220.536 48.4889C218.386 50.7124 214.975 52.936 213.863 46.2653" stroke="#F7F7F7" stroke-width="5" stroke-miterlimit="10" stroke-linecap="round"/>
<path d="M142.266 169.867C154.947 169.867 165.227 152.803 165.227 131.755C165.227 110.706 154.947 93.6423 142.266 93.6423C129.585 93.6423 119.305 110.706 119.305 131.755C119.305 152.803 129.585 169.867 142.266 169.867Z" fill="#092F44" stroke="#F7F7F7" stroke-width="5" stroke-miterlimit="10" stroke-linecap="round"/>
<path d="M179.811 66.7074C179.811 46.0761 163.081 29.3512 142.444 29.3512C121.808 29.3512 105.078 46.0761 105.078 66.7074V91.0704C105.078 111.702 121.808 128.427 142.444 128.427C163.081 128.427 179.811 111.702 179.811 91.0704V66.7074Z" fill="#092F44" stroke="#F7F7F7" stroke-width="5" stroke-miterlimit="10"/>
<path d="M175.481 132.755H109.416C100.231 132.781 91.4298 136.44 84.9353 142.932C78.4407 149.425 74.7809 158.224 74.7554 167.406C74.7554 186.462 67.0671 204.147 86.1284 204.147H198.769C217.83 204.147 210.564 176.078 210.142 167.406C210.116 158.224 206.456 149.425 199.962 142.932C193.467 136.44 184.666 132.781 175.481 132.755Z" fill="#092F44" stroke="#F7F7F7" stroke-width="5" stroke-miterlimit="10"/>
<path d="M128.521 125.714V135.461L142.534 149.469L156.012 135.994V125.714L144.61 128.419H137.033L128.521 125.714Z" fill="#092F44" stroke="#F7F7F7" stroke-width="5" stroke-miterlimit="10"/>
<path d="M128.373 78.8853H128.366C126.024 78.8853 124.125 80.7834 124.125 83.1249V83.1323C124.125 85.4738 126.024 87.3719 128.366 87.3719H128.373C130.715 87.3719 132.614 85.4738 132.614 83.1323V83.1249C132.614 80.7834 130.715 78.8853 128.373 78.8853Z" fill="#F7F7F7" stroke="#F7F7F7" stroke-width="5" stroke-miterlimit="10"/>
<path d="M157.977 78.8853H157.969C155.627 78.8853 153.729 80.7834 153.729 83.1249V83.1323C153.729 85.4738 155.627 87.3719 157.969 87.3719H157.977C160.319 87.3719 162.217 85.4738 162.217 83.1323V83.1249C162.217 80.7834 160.319 78.8853 157.977 78.8853Z" fill="#F7F7F7" stroke="#F7F7F7" stroke-width="5" stroke-miterlimit="10"/>
<path d="M98.8809 178.776V202.479" stroke="#F7F7F7" stroke-width="5" stroke-miterlimit="10" stroke-linecap="round"/>
<path d="M184.326 178.776V202.479" stroke="#F7F7F7" stroke-width="5" stroke-miterlimit="10" stroke-linecap="round"/>
<path d="M135.469 100.921C138.894 106.487 147.887 106.917 150.46 100.921Z" fill="#092F44"/>
<path d="M135.469 100.921C138.894 106.487 147.887 106.917 150.46 100.921" stroke="#F7F7F7" stroke-width="5" stroke-miterlimit="10" stroke-linecap="round"/>
<path d="M142.444 30.8336C142.444 30.8336 127.616 66.8631 106.219 77.5659C106.219 77.5659 96.8478 35.4809 142.444 30.8336Z" fill="#092F44" stroke="#F7F7F7" stroke-width="5" stroke-miterlimit="10" stroke-linecap="round"/>
<path d="M142.963 30.8336C142.963 30.8336 157.791 66.8631 179.187 77.5659C179.187 77.5659 188.559 35.4809 142.963 30.8336Z" fill="#092F44" stroke="#F7F7F7" stroke-width="5" stroke-miterlimit="10" stroke-linecap="round"/>
</g>
<defs>
<clipPath id="clip0_400_1114">
<rect width="285" height="206" fill="white"/>
</clipPath>
</defs>
</svg>
