<svg width="209" height="193" viewBox="0 0 209 193" fill="none" xmlns="http://www.w3.org/2000/svg">
<g clip-path="url(#clip0_400_1146)">
<path d="M1.77734 189.69V71.0598L70.2635 46.2581L138.074 71.0598L207.224 46.2581V163.73L139.768 191.097L67.8827 163.73L1.77734 189.69Z" fill="#092F44" stroke="#F7F7F7" stroke-width="4" stroke-miterlimit="10"/>
<path d="M62.0788 89.8444C62.0788 89.8444 35.3453 56.3419 31.2825 32.214C27.2198 8.08602 79.6208 -22.0591 92.3776 32.214C92.3894 35.5477 89.4756 55.6445 62.0788 89.8444Z" fill="#092F44" stroke="#F7F7F7" stroke-width="4" stroke-miterlimit="10"/>
<path d="M66.0343 30.9964C66.0343 28.6394 64.1199 26.7288 61.7584 26.7288C59.3968 26.7288 57.4824 28.6394 57.4824 30.9964C57.4824 33.3533 59.3968 35.264 61.7584 35.264C64.1199 35.264 66.0343 33.3533 66.0343 30.9964Z" fill="#F7F7F7" stroke="#F7F7F7" stroke-width="4" stroke-miterlimit="10"/>
<path d="M27.1016 118.807L35.2981 131.894" stroke="#F7F7F7" stroke-width="4" stroke-miterlimit="10"/>
<path d="M38.0342 121.538L25.4551 129.175" stroke="#F7F7F7" stroke-width="4" stroke-miterlimit="10"/>
<path d="M52.2363 130.263L69.7191 132.45" stroke="#F7F7F7" stroke-width="4" stroke-miterlimit="10"/>
<path d="M87.7578 131.35L100.325 118.807" stroke="#F7F7F7" stroke-width="4" stroke-miterlimit="10"/>
<path d="M125.673 94.8096L109.611 104.633" stroke="#F7F7F7" stroke-width="4" stroke-miterlimit="10"/>
<path d="M139.768 98.6279L153.875 107.352" stroke="#F7F7F7" stroke-width="4" stroke-miterlimit="10"/>
<path d="M177.091 113.109H176.025C172.473 113.109 169.594 115.983 169.594 119.529V120.592C169.594 124.138 172.473 127.012 176.025 127.012H177.091C180.644 127.012 183.523 124.138 183.523 120.592V119.529C183.523 115.983 180.644 113.109 177.091 113.109Z" fill="#F7F7F7" stroke="#F7F7F7" stroke-width="4" stroke-miterlimit="10"/>
</g>
<defs>
<clipPath id="clip0_400_1146">
<rect width="209" height="193" fill="white"/>
</clipPath>
</defs>
</svg>
