<svg width="196" height="183" viewBox="0 0 196 183" fill="none" xmlns="http://www.w3.org/2000/svg">
<g clip-path="url(#clip0_400_1231)">
<path d="M44.6507 121.418C42.5535 117.435 24.8829 80.6967 64.9462 46.9116C114.021 15.6462 154.246 65.8768 155.288 79.3014C156.33 92.726 156.979 96.0449 157.805 101.64C158.63 107.234 167.005 118.681 168.115 123.151C169.224 127.622 160.321 131.781 157.805 131.781C156.641 131.781 157.155 138.107 156.803 144.853C155.924 161.84 150.119 160.824 141.392 160.824H128.457V180.927H61.523C61.523 180.927 65.9609 144.352 45.0431 122C44.885 121.826 44.7529 121.63 44.6507 121.418Z" fill="#052F45" stroke="#F7F7F7" stroke-width="3" stroke-miterlimit="10"/>
<path d="M98.1892 67.0553C98.1892 67.0553 77.9749 86.0204 98.1892 103.902C98.1892 103.902 120.419 83.7988 98.1892 67.0553Z" fill="#052F45" stroke="#F7F7F7" stroke-width="3" stroke-miterlimit="10"/>
<path d="M133.842 98.4697C133.842 98.4697 106.226 96.0855 106.457 123.084C106.457 123.084 136.196 126.172 133.842 98.4697Z" fill="#052F45" stroke="#F7F7F7" stroke-width="3" stroke-miterlimit="10"/>
<path d="M61.1172 96.5326C61.1172 96.5326 61.1984 124.276 88.0425 121.661C88.0425 121.661 88.4755 91.71 61.1172 96.5326Z" fill="#052F45" stroke="#F7F7F7" stroke-width="3" stroke-miterlimit="10"/>
<path d="M88.041 121.661V182.58" stroke="#F7F7F7" stroke-width="3" stroke-miterlimit="10"/>
<path d="M106.443 120.483V182.58" stroke="#F7F7F7" stroke-width="3" stroke-miterlimit="10"/>
<path d="M14.3965 145.422L31.2823 134.815" stroke="#F7F7F7" stroke-width="3" stroke-miterlimit="10"/>
<path d="M0 96.0043H21.7297" stroke="#F7F7F7" stroke-width="3" stroke-miterlimit="10"/>
<path d="M13.2461 47.2367L31.282 57.8572" stroke="#F7F7F7" stroke-width="3" stroke-miterlimit="10"/>
<path d="M49.3047 11.677L59.8989 30.2493" stroke="#F7F7F7" stroke-width="3" stroke-miterlimit="10"/>
<path d="M98.1895 0V20.97" stroke="#F7F7F7" stroke-width="3" stroke-miterlimit="10"/>
<path d="M146.844 13.262L136.764 30.2493" stroke="#F7F7F7" stroke-width="3" stroke-miterlimit="10"/>
<path d="M181.834 48.2933L164.867 58.9138" stroke="#F7F7F7" stroke-width="3" stroke-miterlimit="10"/>
<path d="M174.406 96.0043H196.001" stroke="#F7F7F7" stroke-width="3" stroke-miterlimit="10"/>
</g>
<defs>
<clipPath id="clip0_400_1231">
<rect width="196" height="183" fill="white"/>
</clipPath>
</defs>
</svg>
