<svg xmlns="http://www.w3.org/2000/svg" viewBox="0 0 161.81 143.97"><defs><style>.cls-1,.cls-3{fill:none;}.cls-1,.cls-2,.cls-3{stroke:#8bcafc;stroke-miterlimit:10;stroke-width:4px;}.cls-2{fill:#052f45;}.cls-3{stroke-linecap:round;}</style></defs><g id="Layer_4" data-name="Layer 4"><rect class="cls-1" x="21.51" y="113.74" width="26.27" height="28.23" rx="8.92"/><rect class="cls-2" x="7" y="121.19" width="54.11" height="9.02" rx="4.51"/><path class="cls-2" d="M18.77,115.7S17.7,92.22,14.45,89.83C7,84.34-17.3,41.21,32.88,31.8c5.41-1.55,53,9.45,23.78,54.32A24.66,24.66,0,0,0,54.19,91c-2.12,5.61-4.28,12.09-3.27,21.16C52.09,122.76,18.77,115.7,18.77,115.7Z"/><path class="cls-2" d="M56.6,121.19H11.51A4.52,4.52,0,0,1,7,116.68H7a4.52,4.52,0,0,1,4.51-4.51H56.6a4.52,4.52,0,0,1,4.51,4.51h0A4.52,4.52,0,0,1,56.6,121.19Z"/><line class="cls-3" x1="34.65" y1="30.62" x2="34.04" y2="2"/><line class="cls-3" x1="34.04" y1="2" x2="125.49" y2="2.2"/><line class="cls-3" x1="125.49" y1="2.2" x2="125.49" y2="51.79"/><line class="cls-1" x1="110.51" y1="38.07" x2="125.49" y2="51.79"/><line class="cls-1" x1="138.35" y1="38.46" x2="125.49" y2="51.79"/><polygon class="cls-3" points="118 70.28 131.32 70.28 131.32 77.3 139.14 81.11 145.06 75.19 154.49 84.62 148.97 90.34 152.18 98.16 159.81 98.16 159.81 111 152.18 111 148.37 119.03 153.49 124.14 144.86 132.77 139.84 127.76 131.52 131.67 131.52 140.09 118 139.69 118 131.67 110.45 128.46 104.43 133.68 96.2 125.05 101.02 119.43 98.01 111.61 89.78 111.2 89.38 98.97 98.01 98.36 101.42 89.94 95.4 83.92 104.63 75.29 110.45 80.91 117.47 77.9 118 70.28"/><circle class="cls-3" cx="125.49" cy="105.37" r="13.63"/></g></svg>