<svg width="181" height="237" viewBox="0 0 181 237" fill="none" xmlns="http://www.w3.org/2000/svg">
<g clip-path="url(#clip0_400_1178)">
<path d="M91.307 191.051L136.1 183.594C137.414 183.374 138.399 182.168 138.399 180.852L136.866 140.934C136.757 139.399 135.552 138.302 134.019 138.302C133.909 138.302 133.8 138.302 133.69 138.302C132.267 138.522 130.843 137.535 130.624 136.109C130.624 135.999 130.624 135.89 130.624 135.67L130.405 121.963C130.405 120.537 129.2 119.331 127.776 119.331L92.1831 118.234C90.7594 118.234 89.4452 119.331 89.4452 120.756L89.1166 125.362C89.0071 126.568 88.131 127.555 86.8168 127.775L84.2979 128.323C82.9837 128.542 81.998 129.639 81.998 130.955L81.8885 146.418C81.8885 147.733 80.9028 148.83 79.5886 149.049L78.2744 149.269C76.8507 149.488 75.7555 150.914 76.0841 152.339C76.0841 152.449 76.1936 152.559 76.1936 152.778L88.2405 189.296C88.6786 190.502 89.9928 191.27 91.307 191.051Z" stroke="#F7F7F7" stroke-width="3" stroke-miterlimit="10"/>
<path d="M85.0633 128.213L116.604 127.665C119.999 127.555 122.847 130.297 122.847 133.697C122.847 133.806 122.847 133.806 122.847 133.916L122.737 147.076L93.2771 151.901L85.8299 147.953L81.4492 147.843V128.652L83.5301 128.323C83.9681 128.323 84.5157 128.213 85.0633 128.213Z" stroke="#F7F7F7" stroke-width="3" stroke-miterlimit="10"/>
<path d="M87.1426 135.78L116.274 135.561" stroke="#F7F7F7" stroke-width="3" stroke-miterlimit="10"/>
<path d="M87.1426 142.141L116.822 142.25" stroke="#F7F7F7" stroke-width="3" stroke-miterlimit="10"/>
<path d="M88.6786 127.555L88.0215 116.808L130.405 117.795L129.638 154.423L126.024 146.418L122.739 146.966L121.424 129.858L116.606 127.665L88.6786 127.555Z" stroke="#F7F7F7" stroke-width="3" stroke-miterlimit="10"/>
<path d="M138.29 180.852L128.324 151.572" stroke="#F7F7F7" stroke-width="3" stroke-miterlimit="10"/>
<path d="M147.927 165.06L121.533 215.615L158.331 234.807L179.249 192.476L175.854 180.194L147.927 165.06Z" stroke="#F7F7F7" stroke-width="3" stroke-miterlimit="10"/>
<path d="M146.174 183.374L169.72 195.766" stroke="#F7F7F7" stroke-width="3" stroke-miterlimit="10"/>
<path d="M142.779 189.844L166.326 202.236" stroke="#F7F7F7" stroke-width="3" stroke-miterlimit="10"/>
<path d="M139.494 196.205L163.04 208.487" stroke="#F7F7F7" stroke-width="3" stroke-miterlimit="10"/>
<path d="M136.209 202.565L159.755 214.848" stroke="#F7F7F7" stroke-width="3" stroke-miterlimit="10"/>
<path d="M175.089 181.62L171.584 188.419L177.498 191.489C177.936 191.709 178.484 191.489 178.703 191.16C178.812 190.941 178.812 190.722 178.812 190.502L176.403 181.729C176.293 181.4 175.965 181.181 175.636 181.291C175.308 181.4 175.198 181.51 175.089 181.62Z" stroke="#F7F7F7" stroke-width="2" stroke-miterlimit="10"/>
<path d="M103.353 1.33238L158.441 41.0307C161.617 43.3336 162.274 47.7202 160.083 50.9004L67.8696 179.317C65.5698 182.497 61.1891 183.155 58.0131 180.962L2.92577 141.263C-0.250237 138.96 -0.907342 134.574 1.28301 131.394L93.4967 2.97734C95.6871 -0.202915 100.177 -0.970561 103.353 1.33238Z" fill="#F7F7F7" stroke="#F7F7F7" stroke-miterlimit="10"/>
<path d="M105.106 8.89916L150.665 41.6886C154.607 44.5399 155.484 50.0231 152.636 53.971L76.193 160.455C73.3455 164.402 67.8696 165.28 63.927 162.428L18.3677 129.639C14.4251 126.788 13.549 121.305 16.3964 117.357L92.8396 10.8731C95.6871 6.92521 101.163 6.0479 105.106 8.89916Z" fill="#052F45" stroke="#F7F7F7" stroke-miterlimit="10"/>
<path d="M31.6196 145.528L27.6562 151.049L40.9065 160.587L44.8699 155.066L31.6196 145.528Z" fill="#052F45" stroke="#F7F7F7" stroke-miterlimit="10"/>
</g>
<defs>
<clipPath id="clip0_400_1178">
<rect width="181" height="237" fill="white"/>
</clipPath>
</defs>
</svg>
